<svg width="385" height="375" viewBox="0 0 385 375" fill="none" xmlns="http://www.w3.org/2000/svg">
<path d="M60.666 206.364L65.9243 203.358" stroke="#293F27" stroke-width="3" stroke-linecap="round" stroke-linejoin="round"/>
<path d="M65.9248 203.358L102.34 224.472" stroke="#293F27" stroke-width="3" stroke-linecap="round" stroke-linejoin="round"/>
<path d="M97.045 227.514L60.666 206.364" stroke="#293F27" stroke-width="3" stroke-linecap="round" stroke-linejoin="round"/>
<path d="M102.339 224.472L369.404 71.1289" stroke="#293F27" stroke-width="3" stroke-linecap="round" stroke-linejoin="round"/>
<path d="M278.69 109.778L273.432 106.736" stroke="#293F27" stroke-width="3" stroke-linecap="round" stroke-linejoin="round"/>
<path d="M273.432 106.736L310.061 85.7295" stroke="#293F27" stroke-width="3" stroke-linecap="round" stroke-linejoin="round"/>
<path d="M310.061 85.7295L315.283 88.7713" stroke="#293F27" stroke-width="3" stroke-linecap="round" stroke-linejoin="round"/>
<path d="M315.283 88.7715L278.689 109.778" stroke="#293F27" stroke-width="3" stroke-linecap="round" stroke-linejoin="round"/>
<path d="M74.9741 152.077L69.7158 149.035" stroke="#293F27" stroke-width="3" stroke-linecap="round" stroke-linejoin="round"/>
<path d="M69.7158 149.035L106.309 128.029" stroke="#293F27" stroke-width="3" stroke-linecap="round" stroke-linejoin="round"/>
<path d="M106.31 128.029L111.568 131.071" stroke="#293F27" stroke-width="3" stroke-linecap="round" stroke-linejoin="round"/>
<path d="M111.568 131.071L74.9746 152.077" stroke="#293F27" stroke-width="3" stroke-linecap="round" stroke-linejoin="round"/>
<path d="M282.695 13.3345L319.074 34.4482" stroke="#293F27" stroke-width="3" stroke-linecap="round" stroke-linejoin="round"/>
<path d="M319.075 34.4484L324.334 31.4424" stroke="#293F27" stroke-width="3" stroke-linecap="round" stroke-linejoin="round"/>
<path d="M324.333 31.442L287.954 10.2925" stroke="#293F27" stroke-width="3" stroke-linecap="round" stroke-linejoin="round"/>
<path d="M282.696 13.3345L15.5947 166.678" stroke="#293F27" stroke-width="3" stroke-linecap="round" stroke-linejoin="round"/>
<path d="M102.339 224.472V230.556" stroke="#293F27" stroke-width="3" stroke-linecap="round" stroke-linejoin="round"/>
<path d="M97.0449 227.514V233.598" stroke="#293F27" stroke-width="3" stroke-linecap="round" stroke-linejoin="round"/>
<path d="M15.4873 193.661L78.0505 230.019" stroke="#293F27" stroke-width="3" stroke-linecap="round" stroke-linejoin="round"/>
<path d="M6.47363 189.938L8.33372 193.517" stroke="#293F27" stroke-width="3" stroke-linecap="round" stroke-linejoin="round"/>
<path d="M8.33301 193.517L11.3735 196.809" stroke="#293F27" stroke-width="3" stroke-linecap="round" stroke-linejoin="round"/>
<path d="M11.3735 190.762L8.33301 187.434" stroke="#293F27" stroke-width="3" stroke-linecap="round" stroke-linejoin="round"/>
<path d="M8.33372 187.434L6.47363 183.855" stroke="#293F27" stroke-width="3" stroke-linecap="round" stroke-linejoin="round"/>
<path d="M6.50879 176.412L8.40464 172.833" stroke="#293F27" stroke-width="3" stroke-linecap="round" stroke-linejoin="round"/>
<path d="M8.40527 172.833L11.4816 169.541" stroke="#293F27" stroke-width="3" stroke-linecap="round" stroke-linejoin="round"/>
<path d="M5.86523 186.217L6.47334 189.939" stroke="#293F27" stroke-width="3" stroke-linecap="round" stroke-linejoin="round"/>
<path d="M11.4814 169.541L15.5951 166.678" stroke="#293F27" stroke-width="3" stroke-linecap="round" stroke-linejoin="round"/>
<path d="M5.86523 186.217V180.133" stroke="#293F27" stroke-width="3" stroke-linecap="round" stroke-linejoin="round"/>
<path d="M5.86523 180.133L6.50911 176.412" stroke="#293F27" stroke-width="3" stroke-linecap="round" stroke-linejoin="round"/>
<path d="M6.47334 183.855L5.86523 180.133" stroke="#293F27" stroke-width="3" stroke-linecap="round" stroke-linejoin="round"/>
<path d="M11.374 196.81L15.4877 199.708" stroke="#293F27" stroke-width="3" stroke-linecap="round" stroke-linejoin="round"/>
<path d="M15.4877 193.66L11.374 190.762" stroke="#293F27" stroke-width="3" stroke-linecap="round" stroke-linejoin="round"/>
<path d="M369.547 44.1462L306.948 7.7876" stroke="#293F27" stroke-width="3" stroke-linecap="round" stroke-linejoin="round"/>
<path d="M378.526 53.9517L376.666 50.373" stroke="#293F27" stroke-width="3" stroke-linecap="round" stroke-linejoin="round"/>
<path d="M376.666 50.373L373.625 47.0449" stroke="#293F27" stroke-width="3" stroke-linecap="round" stroke-linejoin="round"/>
<path d="M376.594 64.9736L378.49 61.395" stroke="#293F27" stroke-width="3" stroke-linecap="round" stroke-linejoin="round"/>
<path d="M379.134 63.757V57.6733" stroke="#293F27" stroke-width="3" stroke-linecap="round" stroke-linejoin="round"/>
<path d="M378.49 61.3951L379.134 57.6733" stroke="#293F27" stroke-width="3" stroke-linecap="round" stroke-linejoin="round"/>
<path d="M379.134 63.7568L378.49 67.4428" stroke="#293F27" stroke-width="3" stroke-linecap="round" stroke-linejoin="round"/>
<path d="M373.626 47.0452L369.548 44.1465" stroke="#293F27" stroke-width="3" stroke-linecap="round" stroke-linejoin="round"/>
<path d="M378.49 67.4429L376.594 71.0215" stroke="#293F27" stroke-width="3" stroke-linecap="round" stroke-linejoin="round"/>
<path d="M373.518 68.2659L376.594 64.9736" stroke="#293F27" stroke-width="3" stroke-linecap="round" stroke-linejoin="round"/>
<path d="M376.594 71.0215L373.518 74.3138" stroke="#293F27" stroke-width="3" stroke-linecap="round" stroke-linejoin="round"/>
<path d="M369.404 71.129L373.518 68.2661" stroke="#293F27" stroke-width="3" stroke-linecap="round" stroke-linejoin="round"/>
<path d="M373.518 74.314L369.404 77.2126" stroke="#293F27" stroke-width="3" stroke-linecap="round" stroke-linejoin="round"/>
<path d="M379.134 57.6734L378.526 53.9517" stroke="#293F27" stroke-width="3" stroke-linecap="round" stroke-linejoin="round"/>
<path d="M292.354 7.75195L287.954 10.2928" stroke="#293F27" stroke-width="3" stroke-linecap="round" stroke-linejoin="round"/>
<path d="M92.6455 236.103L97.0453 233.598" stroke="#293F27" stroke-width="3" stroke-linecap="round" stroke-linejoin="round"/>
<path d="M92.6455 230.055L97.0453 227.514" stroke="#293F27" stroke-width="3" stroke-linecap="round" stroke-linejoin="round"/>
<path d="M305.375 7.0363L303.622 6.49951" stroke="#293F27" stroke-width="3" stroke-linecap="round" stroke-linejoin="round"/>
<path d="M306.949 7.78764L305.375 7.03613" stroke="#293F27" stroke-width="3" stroke-linecap="round" stroke-linejoin="round"/>
<path d="M295.716 6.46338L293.928 7.03596" stroke="#293F27" stroke-width="3" stroke-linecap="round" stroke-linejoin="round"/>
<path d="M297.648 6.1416L295.717 6.46368" stroke="#293F27" stroke-width="3" stroke-linecap="round" stroke-linejoin="round"/>
<path d="M299.652 6.03418L297.648 6.14154" stroke="#293F27" stroke-width="3" stroke-linecap="round" stroke-linejoin="round"/>
<path d="M87.3516 237.749L89.319 237.391" stroke="#293F27" stroke-width="3" stroke-linecap="round" stroke-linejoin="round"/>
<path d="M89.319 231.343L87.3516 231.665" stroke="#293F27" stroke-width="3" stroke-linecap="round" stroke-linejoin="round"/>
<path d="M301.69 6.14154L299.651 6.03418" stroke="#293F27" stroke-width="3" stroke-linecap="round" stroke-linejoin="round"/>
<path d="M83.3447 231.665L81.4131 231.307" stroke="#293F27" stroke-width="3" stroke-linecap="round" stroke-linejoin="round"/>
<path d="M78.0508 236.103L79.6247 236.818" stroke="#293F27" stroke-width="3" stroke-linecap="round" stroke-linejoin="round"/>
<path d="M91.1069 230.771L89.3184 231.343" stroke="#293F27" stroke-width="3" stroke-linecap="round" stroke-linejoin="round"/>
<path d="M293.927 7.03613L292.354 7.75185" stroke="#293F27" stroke-width="3" stroke-linecap="round" stroke-linejoin="round"/>
<path d="M303.622 6.49946L301.69 6.1416" stroke="#293F27" stroke-width="3" stroke-linecap="round" stroke-linejoin="round"/>
<path d="M83.3447 237.713L85.3479 237.856" stroke="#293F27" stroke-width="3" stroke-linecap="round" stroke-linejoin="round"/>
<path d="M85.3479 231.772L83.3447 231.665" stroke="#293F27" stroke-width="3" stroke-linecap="round" stroke-linejoin="round"/>
<path d="M79.625 236.818L81.4135 237.391" stroke="#293F27" stroke-width="3" stroke-linecap="round" stroke-linejoin="round"/>
<path d="M91.1074 236.854L92.6456 236.103" stroke="#293F27" stroke-width="3" stroke-linecap="round" stroke-linejoin="round"/>
<path d="M92.6456 230.055L91.1074 230.77" stroke="#293F27" stroke-width="3" stroke-linecap="round" stroke-linejoin="round"/>
<path d="M79.6247 230.771L78.0508 230.019" stroke="#293F27" stroke-width="3" stroke-linecap="round" stroke-linejoin="round"/>
<path d="M85.3477 237.856L87.3508 237.749" stroke="#293F27" stroke-width="3" stroke-linecap="round" stroke-linejoin="round"/>
<path d="M87.3508 231.665L85.3477 231.772" stroke="#293F27" stroke-width="3" stroke-linecap="round" stroke-linejoin="round"/>
<path d="M89.3184 237.391L91.1069 236.854" stroke="#293F27" stroke-width="3" stroke-linecap="round" stroke-linejoin="round"/>
<path d="M81.4135 231.307L79.625 230.771" stroke="#293F27" stroke-width="3" stroke-linecap="round" stroke-linejoin="round"/>
<path d="M81.4131 237.391L83.3447 237.713" stroke="#293F27" stroke-width="3" stroke-linecap="round" stroke-linejoin="round"/>
<path d="M102.339 224.472L97.0449 227.514" stroke="#293F27" stroke-width="3" stroke-linecap="round" stroke-linejoin="round"/>
<path d="M57.5184 332.725L27.9717 206.973" stroke="#293F27" stroke-width="3" stroke-linecap="round" stroke-linejoin="round"/>
<path d="M65.2451 349.115L62.6338 345.071" stroke="#293F27" stroke-width="3" stroke-linecap="round" stroke-linejoin="round"/>
<path d="M62.6332 345.071L60.4512 340.884" stroke="#293F27" stroke-width="3" stroke-linecap="round" stroke-linejoin="round"/>
<path d="M74.3304 359.028L71.1826 356.236" stroke="#293F27" stroke-width="3" stroke-linecap="round" stroke-linejoin="round"/>
<path d="M60.452 340.884L58.6992 336.697" stroke="#293F27" stroke-width="3" stroke-linecap="round" stroke-linejoin="round"/>
<path d="M58.699 336.697L57.5186 332.725" stroke="#293F27" stroke-width="3" stroke-linecap="round" stroke-linejoin="round"/>
<path d="M71.1831 356.236L68.1426 352.908" stroke="#293F27" stroke-width="3" stroke-linecap="round" stroke-linejoin="round"/>
<path d="M77.3716 361.139L74.3311 359.028" stroke="#293F27" stroke-width="3" stroke-linecap="round" stroke-linejoin="round"/>
<path d="M68.1426 352.909L65.2451 349.115" stroke="#293F27" stroke-width="3" stroke-linecap="round" stroke-linejoin="round"/>
<path d="M89.7836 368.332L77.3711 361.139" stroke="#293F27" stroke-width="3" stroke-linecap="round" stroke-linejoin="round"/>
<path d="M89.7832 368.332L91.1783 368.976" stroke="#293F27" stroke-width="3" stroke-linecap="round" stroke-linejoin="round"/>
<path d="M96.5088 367.008L96.9023 365.684" stroke="#293F27" stroke-width="3" stroke-linecap="round" stroke-linejoin="round"/>
<path d="M102.196 362.642L101.767 364.002" stroke="#293F27" stroke-width="3" stroke-linecap="round" stroke-linejoin="round"/>
<path d="M94.9346 368.833L100.193 365.827" stroke="#293F27" stroke-width="3" stroke-linecap="round" stroke-linejoin="round"/>
<path d="M101.767 364.002L101.087 365.076" stroke="#293F27" stroke-width="3" stroke-linecap="round" stroke-linejoin="round"/>
<path d="M95.8291 368.081L96.5087 367.008" stroke="#293F27" stroke-width="3" stroke-linecap="round" stroke-linejoin="round"/>
<path d="M91.1787 368.976L92.5738 369.298" stroke="#293F27" stroke-width="3" stroke-linecap="round" stroke-linejoin="round"/>
<path d="M96.9023 365.684L97.0454 364.109" stroke="#293F27" stroke-width="3" stroke-linecap="round" stroke-linejoin="round"/>
<path d="M101.088 365.076L100.193 365.827" stroke="#293F27" stroke-width="3" stroke-linecap="round" stroke-linejoin="round"/>
<path d="M94.9346 368.833L95.8288 368.082" stroke="#293F27" stroke-width="3" stroke-linecap="round" stroke-linejoin="round"/>
<path d="M92.5742 369.298L93.8262 369.263" stroke="#293F27" stroke-width="3" stroke-linecap="round" stroke-linejoin="round"/>
<path d="M102.339 361.104L102.196 362.642" stroke="#293F27" stroke-width="3" stroke-linecap="round" stroke-linejoin="round"/>
<path d="M93.8262 369.262L94.9351 368.833" stroke="#293F27" stroke-width="3" stroke-linecap="round" stroke-linejoin="round"/>
<path d="M270.283 236.711L242.167 150.252" stroke="#293F27" stroke-width="3" stroke-linecap="round" stroke-linejoin="round"/>
<path d="M275.542 239.753L245.78 148.212" stroke="#293F27" stroke-width="3" stroke-linecap="round" stroke-linejoin="round"/>
<path d="M283.304 247.232L280.692 246.159" stroke="#293F27" stroke-width="3" stroke-linecap="round" stroke-linejoin="round"/>
<path d="M280.693 246.159L275.435 243.117" stroke="#293F27" stroke-width="3" stroke-linecap="round" stroke-linejoin="round"/>
<path d="M280.692 246.158L278.475 244.512" stroke="#293F27" stroke-width="3" stroke-linecap="round" stroke-linejoin="round"/>
<path d="M273.217 241.471L275.435 243.117" stroke="#293F27" stroke-width="3" stroke-linecap="round" stroke-linejoin="round"/>
<path d="M292.425 246.588L289.277 247.447" stroke="#293F27" stroke-width="3" stroke-linecap="round" stroke-linejoin="round"/>
<path d="M278.474 244.512L276.722 242.365" stroke="#293F27" stroke-width="3" stroke-linecap="round" stroke-linejoin="round"/>
<path d="M276.722 242.365L275.542 239.753" stroke="#293F27" stroke-width="3" stroke-linecap="round" stroke-linejoin="round"/>
<path d="M270.283 236.711L271.499 239.323" stroke="#293F27" stroke-width="3" stroke-linecap="round" stroke-linejoin="round"/>
<path d="M289.277 247.447L286.201 247.661" stroke="#293F27" stroke-width="3" stroke-linecap="round" stroke-linejoin="round"/>
<path d="M295.502 245.157L292.426 246.588" stroke="#293F27" stroke-width="3" stroke-linecap="round" stroke-linejoin="round"/>
<path d="M286.201 247.661L283.304 247.232" stroke="#293F27" stroke-width="3" stroke-linecap="round" stroke-linejoin="round"/>
<path d="M271.5 239.323L273.217 241.47" stroke="#293F27" stroke-width="3" stroke-linecap="round" stroke-linejoin="round"/>
<path d="M307.986 238L295.502 245.157" stroke="#293F27" stroke-width="3" stroke-linecap="round" stroke-linejoin="round"/>
<path d="M307.985 237.999L309.416 237.033" stroke="#293F27" stroke-width="3" stroke-linecap="round" stroke-linejoin="round"/>
<path d="M314.746 228.91L315.14 227.084" stroke="#293F27" stroke-width="3" stroke-linecap="round" stroke-linejoin="round"/>
<path d="M314.066 230.771L314.746 228.91" stroke="#293F27" stroke-width="3" stroke-linecap="round" stroke-linejoin="round"/>
<path d="M309.417 237.033L310.776 235.745" stroke="#293F27" stroke-width="3" stroke-linecap="round" stroke-linejoin="round"/>
<path d="M315.14 227.084L315.283 225.367" stroke="#293F27" stroke-width="3" stroke-linecap="round" stroke-linejoin="round"/>
<path d="M313.137 232.56L314.067 230.771" stroke="#293F27" stroke-width="3" stroke-linecap="round" stroke-linejoin="round"/>
<path d="M310.776 235.745L312.028 234.242" stroke="#293F27" stroke-width="3" stroke-linecap="round" stroke-linejoin="round"/>
<path d="M312.028 234.242L313.137 232.56" stroke="#293F27" stroke-width="3" stroke-linecap="round" stroke-linejoin="round"/>
<path d="M114.716 257.431L124.016 218.103" stroke="#293F27" stroke-width="3" stroke-linecap="round" stroke-linejoin="round"/>
<path d="M109.565 269.777L106.954 273.821" stroke="#293F27" stroke-width="3" stroke-linecap="round" stroke-linejoin="round"/>
<path d="M111.782 265.59L109.564 269.777" stroke="#293F27" stroke-width="3" stroke-linecap="round" stroke-linejoin="round"/>
<path d="M114.716 257.431L113.535 261.403" stroke="#293F27" stroke-width="3" stroke-linecap="round" stroke-linejoin="round"/>
<path d="M106.954 273.821L104.057 277.579" stroke="#293F27" stroke-width="3" stroke-linecap="round" stroke-linejoin="round"/>
<path d="M104.056 277.579L102.339 279.44" stroke="#293F27" stroke-width="3" stroke-linecap="round" stroke-linejoin="round"/>
<path d="M113.535 261.403L111.782 265.59" stroke="#293F27" stroke-width="3" stroke-linecap="round" stroke-linejoin="round"/>
<path d="M282.695 13.3343L287.954 10.2925" stroke="#293F27" stroke-width="3" stroke-linecap="round" stroke-linejoin="round"/>
<path d="M322.223 164.459L346.118 90.5967" stroke="#293F27" stroke-width="3" stroke-linecap="round" stroke-linejoin="round"/>
<path d="M327.48 161.417L351.375 87.5547" stroke="#293F27" stroke-width="3" stroke-linecap="round" stroke-linejoin="round"/>
<path d="M322.365 167.823L317.071 170.829" stroke="#293F27" stroke-width="3" stroke-linecap="round" stroke-linejoin="round"/>
<path d="M317.072 170.829L315.283 171.581" stroke="#293F27" stroke-width="3" stroke-linecap="round" stroke-linejoin="round"/>
<path d="M322.365 167.823L324.547 166.177" stroke="#293F27" stroke-width="3" stroke-linecap="round" stroke-linejoin="round"/>
<path d="M319.289 169.219L317.071 170.829" stroke="#293F27" stroke-width="3" stroke-linecap="round" stroke-linejoin="round"/>
<path d="M324.548 166.177L326.301 164.03" stroke="#293F27" stroke-width="3" stroke-linecap="round" stroke-linejoin="round"/>
<path d="M326.301 164.029L327.481 161.417" stroke="#293F27" stroke-width="3" stroke-linecap="round" stroke-linejoin="round"/>
<path d="M322.223 164.459L321.007 167.036" stroke="#293F27" stroke-width="3" stroke-linecap="round" stroke-linejoin="round"/>
<path d="M321.006 167.036L319.289 169.219" stroke="#293F27" stroke-width="3" stroke-linecap="round" stroke-linejoin="round"/>
<path d="M102.339 230.556L124.016 218.103" stroke="#293F27" stroke-width="3" stroke-linecap="round" stroke-linejoin="round"/>
<path d="M15.4873 199.708L27.9713 206.973" stroke="#293F27" stroke-width="3" stroke-linecap="round" stroke-linejoin="round"/>
<path d="M27.9717 206.973L78.0509 236.102" stroke="#293F27" stroke-width="3" stroke-linecap="round" stroke-linejoin="round"/>
<path d="M97.0449 233.598V364.109" stroke="#293F27" stroke-width="3" stroke-linecap="round" stroke-linejoin="round"/>
<path d="M315.283 108.275V171.58" stroke="#293F27" stroke-width="3" stroke-linecap="round" stroke-linejoin="round"/>
<path d="M315.283 171.581V225.367" stroke="#293F27" stroke-width="3" stroke-linecap="round" stroke-linejoin="round"/>
<path d="M124.017 218.102L242.168 150.252" stroke="#293F27" stroke-width="3" stroke-linecap="round" stroke-linejoin="round"/>
<path d="M102.339 230.556V279.439" stroke="#293F27" stroke-width="3" stroke-linecap="round" stroke-linejoin="round"/>
<path d="M102.339 279.439V361.103" stroke="#293F27" stroke-width="3" stroke-linecap="round" stroke-linejoin="round"/>
<path d="M242.167 150.252L245.78 148.212" stroke="#293F27" stroke-width="3" stroke-linecap="round" stroke-linejoin="round"/>
<path d="M245.78 148.212L315.283 108.275" stroke="#293F27" stroke-width="3" stroke-linecap="round" stroke-linejoin="round"/>
<path d="M315.283 108.275L346.118 90.5967" stroke="#293F27" stroke-width="3" stroke-linecap="round" stroke-linejoin="round"/>
<path d="M346.117 90.5965L351.375 87.5547" stroke="#293F27" stroke-width="3" stroke-linecap="round" stroke-linejoin="round"/>
<path d="M351.376 87.5546L369.404 77.2124" stroke="#293F27" stroke-width="3" stroke-linecap="round" stroke-linejoin="round"/>
</svg>
