<?xml version="1.0" encoding="UTF-8"?><svg id="Layer_2" xmlns="http://www.w3.org/2000/svg" viewBox="0 0 71.04 94.2"><defs><style>.cls-1{fill:#293f27;stroke-width:0px;}</style></defs><g id="Layer_1-2"><path class="cls-1" d="m50.36,94.2h0s-.09,0-.14-.03c-.03-.01-.06-.02-.08-.04l-6.89-4.37s-.03-.02-.04-.03c-.05-.04-.08-.08-.11-.13-.02-.05-.04-.1-.04-.16,0-.02,0-.04,0-.05l.03-.48v-.5s-.03-.52-.03-.52l-.06-.53-.08-.53-.11-.52-.13-.5-.15-.47-.17-.43-.19-.39-.21-.36c-.11-.19-.05-.44.15-.55.19-.11.44-.05.55.15l.21.37s0,.01,0,.02c0,0,0,.01.01.02l.19.41s0,.01,0,.02c0,0,0,0,0,.01l.18.45s0,0,0,.01c0,0,0,.01,0,.02l.16.48s0,0,0,0c0,0,0,.01,0,.02l.14.51s0,.01,0,.02c0,0,0,0,0,.01l.11.53h0s0,.02,0,.02l.08.54s0,0,0,.01c0,0,0,0,0,.01l.06.54s0,.01,0,.02c0,0,0,0,0,0h0s0,0,0,0l.03.54s0,.01,0,.02h0s0,.53,0,.53c0,0,0,0,0,.01,0,0,0,.01,0,.02l-.02.26,6.2,3.93.02-.11.08-.74.05-.78.02-.81v-.83s-.06-.85-.06-.85l-.08-.85-.11-.86-.14-.85-.17-.84-.2-.82-.23-.8s0,0,0,0l-.27-.92s0-.01,0-.02c0,0,0,0,0,0l-.23-.95s0-.01,0-.02l-.2-.97s0,0,0-.01c0,0,0,0,0,0l-.17-.98s0,0,0,0c0,0,0,0,0-.01l-.13-.99s0,0,0,0c0,0,0,0,0-.01l-.09-.99s0-.01,0-.02c0,0,0,0,0,0l-.05-.98s0,0,0,0c0,0,0,0,0-.01l-.02-.96s0-.01,0-.02c0,0,0,0,0,0l.02-.94s0-.01,0-.02l.06-.91h0s0-.02,0-.02l.1-.86s0,0,0,0h0s0-.01,0-.02l.14-.82s0,0,0,0l.21-1.3.16-1.36.1-1.42.04-1.48-.03-1.52-.09-1.55-.15-1.56-.21-1.57-.26-1.56-.32-1.53-.37-1.5-.79-2.73s0,0,0-.02c0,0,0,0,0,0l-.32-1.31s0,0,0,0c0,0,0,0,0,0l-.28-1.34s0,0,0-.01h0s-.23-1.37-.23-1.37c0,0,0,0,0,0,0,0,0,0,0,0h0s0-.01,0-.02l-.18-1.37s0,0,0-.01c0,0,0,0,0,0l-.13-1.37s0,0,0-.01c0,0,0,0,0,0l-.08-1.36s0-.01,0-.02l-.02-1.33s0,0,0-.01h0s0,0,0,0l.03-1.3s0-.01,0-.02c0,0,0,0,0,0l.08-1.25s0,0,0-.01c0,0,0,0,0-.01l.14-1.2s0,0,0,0h0s0-.01,0-.02l.4-2.44.16-1.37.1-1.44.04-1.49-.03-1.53-.09-1.56-.15-1.58-.21-1.58-.26-1.57-.22-1.05c-.04-.22.09-.43.31-.47.22-.04.43.09.47.31l.22,1.06s0,.01,0,.02l.27,1.58h0s0,.02,0,.02l.21,1.59s0,.01,0,.02l.15,1.59s0,0,0,.01c0,0,0,0,0,0l.09,1.57s0,0,0,.01c0,0,0,0,0,0l.03,1.55s0,.01,0,.02l-.04,1.5s0,.01,0,.02h0s0,0,0,0l-.1,1.45s0,.01,0,.02l-.16,1.39s0,0,0,.01h0s0,0,0,0c0,0,0,0,0,.01l-.4,2.44-.13,1.18-.08,1.24-.03,1.28.02,1.32.07,1.34.13,1.36.18,1.36.23,1.35.28,1.33.32,1.3.79,2.73s0,.01,0,.02h0s.37,1.51.37,1.51c0,0,0,.01,0,.02l.32,1.54s0,0,0,0c0,0,0,0,0,0l.26,1.56s0,0,0,.01h0s0,0,0,0l.21,1.58s0,0,0,.01c0,0,0,0,0,0l.15,1.57s0,0,0,0c0,0,0,0,0,.01l.09,1.56s0,.01,0,.02c0,0,0,0,0,0l.03,1.53s0,.01,0,.02l-.04,1.49s0,0,0,.01c0,0,0,0,0,0l-.1,1.44h0s0,.02,0,.02l-.16,1.37s0,0,0,.01c0,0,0,0,0,.01l-.22,1.3s0,0,0,0l-.13.81-.1.85-.06.89-.02.92.02.95.05.97.09.98.13.98.16.97.2.96.23.94.26.91s0,0,0,0l.23.8s0,0,0,.01c0,0,0,0,0,0l.2.83s0,.01,0,.02l.18.85s0,0,0,.01c0,0,0,0,0,0l.14.86s0,0,0,0c0,0,0,0,0,0l.11.87s0,0,0,.01c0,0,0,0,0,0h0s.08.87.08.87c0,0,0,.01,0,.02l.05.86s0,.01,0,.02h0s.01.84.01.84c0,0,0,.01,0,.02,0,0,0,0,0,0l-.02.82s0,.01,0,.02c0,0,0,0,0,0l-.05.79s0,0,0,0h0s0,.01,0,.02l-.09.75s0,0,0,0h0s0,.01,0,.02l-.12.71s-.01.06-.02.09c-.02.05-.04.09-.07.12-.04.04-.08.08-.14.1-.05.02-.11.04-.17.04Zm-8.71-10.76c-.14,0-.27-.07-.35-.2l-.41-.71s0-.01-.01-.02h0s0,0,0,0c0,0,0-.01,0-.02l-.38-.8s0-.01,0-.02c0,0,0-.01,0-.02l-.35-.87s0,0,0,0c0,0,0-.01,0-.02l-.31-.94s0-.01,0-.02c0,0,0,0,0-.01l-.26-.99s0-.01,0-.02c0,0,0,0,0,0l-.22-1.03s0-.01,0-.02c0,0,0,0,0,0l-.16-1.05s0,0,0-.01c0,0,0,0,0,0h0s0,0,0-.01l-.11-1.05h0s0,0,0,0c0,0,0-.02,0-.02l-.05-1.04s0,0,0-.01c0,0,0-.01,0-.02v-1.01s0,0,0-.01c0,0,0-.01,0-.02l.06-.97.08-1.45-.02-1.51-.12-1.55-.22-1.56-.31-1.53-.39-1.47-.47-1.38-.53-1.25-.58-1.1-.62-.91-.63-.71-.66-.53c-.17-.14-.2-.39-.06-.56s.39-.2.56-.06l.68.54s.02.02.03.03c.01,0,.02.02.03.03l.66.75s.02.02.02.03c0,0,.01.02.02.02l.64.94s.01.02.02.02c0,0,0,.01.01.02l.59,1.12s0,.01.01.02c0,0,0,.01,0,.02l.54,1.27s0,0,0,.01c0,0,0,.01,0,.02l.47,1.39s0,.01,0,.02c0,0,0,.01,0,.02l.4,1.49s0,0,0,.01c0,0,0,.01,0,.02l.31,1.55s0,0,0,.01c0,0,0,.01,0,.02l.22,1.58s0,.02,0,.02c0,0,0,0,0,0l.12,1.57s0,0,0,.01c0,0,0,.01,0,.02l.02,1.53s0,.01,0,.02h0s0,.01,0,.02l-.08,1.46s0,0,0,0l-.06.96v.99s.05,1.02.05,1.02l.11,1.03.16,1.03.21,1.01.26.98.3.92.34.86.37.78.4.7c.11.19.05.44-.15.55-.06.04-.13.05-.2.05Zm-12.46-22.99s-.07,0-.1-.01c-.21-.06-.34-.28-.28-.49l.03-.13c.06-.21.28-.34.49-.28.21.06.34.28.28.49l-.03.13c-.05.18-.21.3-.39.3Zm6.73-24.56s-.03,0-.04,0l-.52-.04s-.05,0-.08-.01c-.03,0-.05-.02-.07-.03l-.54-.24c-.2-.09-.29-.33-.2-.53.09-.2.33-.29.53-.2l.49.22.38.03.36-.12.41-.33c.09-.07.19-.1.3-.09-.05-.1-.05-.23,0-.34l.33-.72.25-.86.17-1,.09-1.11v-1.19s-.09-1.24-.09-1.24l-.34-2.33s0,0,0-.01h0s0,0,0,0c0,0,0-.01,0-.02l-.1-1.07s0,0,0-.01c0,0,0-.01,0-.02l-.04-1.05s0,0,0,0c0,0,0-.01,0-.02v-.3c.01-.22.2-.4.42-.39.22,0,.4.19.39.41v.29s.03,1.04.03,1.04l.1,1.06.16,1.07h0s0,0,0,0h0s0,0,0,0c0,0,0,0,0,0l.18,1.27s0,.01,0,.02c0,0,0,.01,0,.02l.09,1.26s0,.01,0,.02c0,0,0,.01,0,.02v1.21s0,.01,0,.02c0,0,0,.01,0,.02l-.09,1.14s0,.01,0,.02c0,0,0,.02,0,.03l-.18,1.03s0,.02,0,.03c0,0,0,.02,0,.03l-.26.9s0,.02-.01.04c0,.01,0,.02-.01.03l-.34.74c-.07.16-.24.25-.41.23.08.16.04.36-.11.48l-.46.37s-.04.03-.06.04c-.02.01-.05.02-.08.03l-.49.17s-.06.02-.09.02c-.02,0-.03,0-.05,0Zm-3.99-3.02c-.15,0-.29-.08-.36-.23l-.46-.96s0-.01,0-.02c0,0,0-.01,0-.02l-.4-1.08s0-.01,0-.02h0s0,0,0,0c0,0,0-.01,0-.02l-.34-1.17h0s0-.03,0-.04l-.26-1.24c-.05-.22.09-.43.31-.47.22-.05.43.09.47.31l.26,1.23.33,1.15.39,1.05.45.95c.1.2.01.44-.19.53-.06.03-.11.04-.17.04Zm-1.74-7h0c-.22,0-.4-.18-.4-.4v-1.22s0-.01,0-.02c0,0,0-.01,0-.02l.09-1.14c.02-.22.21-.38.43-.37.22.02.38.21.37.43l-.09,1.13v1.21c0,.22-.18.4-.4.4Zm14.71-7.53c-.07,0-.15-.02-.21-.06l-5.12-3.24c-.19-.12-.24-.37-.12-.55.12-.19.37-.24.55-.12l5.12,3.24c.19.12.24.37.12.55-.08.12-.21.19-.34.19Z"/><path class="cls-1" d="m50.32,94.2c-.2,0-.37-.14-.4-.34-.03-.22.12-.42.34-.45l2.45-.35.07-.42.08-.74.05-.78.02-.81v-.83s-.06-.85-.06-.85l-.08-.85-.11-.86-.14-.85-.17-.84-.2-.82-.13-.46-2.4.35c-.22.03-.42-.12-.45-.34-.03-.22.12-.42.34-.45l2.29-.33-.14-.48h0s0-.01,0-.01c0,0,0,0,0,0l-.23-.95s0-.01,0-.02l-.2-.97s0,0,0-.01c0,0,0,0,0,0l-.17-.98s0,0,0-.01c0,0,0,0,0,0l-.13-.99s0-.01,0-.02l-.09-.99s0,0,0,0c0,0,0-.01,0-.02l-.05-.98c-.01-.22.16-.41.38-.42.22-.01.41.16.42.38l.05.98.09.98.13.98.16.97.2.96.23.94.26.91s0,0,0,.01l.23.8s0,0,0,0h0s0,0,0,0c0,0,0,0,0,.01l.2.83s0,0,0,.01c0,0,0,0,0,0l.18.85s0,.01,0,.02c0,0,0,0,0,0l.15.86s0,0,0,.01c0,0,0,0,0,0l.11.87s0,0,0,.01c0,0,0,0,0,0l.08.86s0,.01,0,.02h0s.05.86.05.86c0,0,0,0,0,0,0,0,0,0,0,.01v.84s.01,0,.01,0h0s0,.01,0,.02l-.02.82s0,.01,0,.02c0,0,0,0,0,0l-.05.79s0,0,0,.01c0,0,0,0,0,.01l-.09.75s0,.01,0,.02h0s0,0,0,0l-.12.71s-.01.06-.02.08c-.02.05-.05.1-.09.14-.04.04-.1.08-.16.1-.03,0-.05.01-.08.02l-2.73.39s-.04,0-.06,0Zm-25.43-16.13s-.06,0-.09-.01c0,0,0,0,0,0,0,0,0,0,0,0,0,0,0,0,0,0h0s-.08-.03-.12-.05l-.83-.53c-.19-.12-.24-.37-.12-.55.12-.19.37-.24.55-.12l.19.12v-.32s0-.01,0-.02c0,0,0,0,0,0l.03-.5s0-.01,0-.02c0,0,0-.01,0-.02l.06-.47s0,0,0,0c0,0,0-.02,0-.03l.08-.43s0-.01,0-.02c0,0,0,0,0,0h0s0-.01,0-.02l.11-.38s0-.02,0-.03c0,0,0-.01,0-.02l.13-.33s0-.02.01-.03c0-.01.01-.02.02-.03l.15-.28s.01-.02.02-.03c0-.01.02-.02.02-.03l.17-.22s.02-.03.03-.04c.01-.01.02-.02.04-.03l.19-.15s.03-.03.05-.04c.02-.01.04-.02.05-.03l.2-.1c.16-.08.35-.03.47.1.04-.08.1-.15.19-.19l.36-.17.31-.26.3-.38.28-.5.25-.62.21-.72.16-.81.11-.89.05-.95v-.99s-.06-1.03-.06-1.03c0,0,0,0,0-.01l-.08-1.56s0-.01,0-.02c0,0,0,0,0-.01l.02-1.5s0,0,0-.01h0s0-.02,0-.02l.12-1.41s0-.02,0-.03c0,0,0-.01,0-.02l.22-1.3c.04-.22.24-.37.46-.33.22.04.37.24.33.46l-.22,1.29-.12,1.39-.02,1.48.06,1.11,1.94-.28-.06-1.2s0-.01,0-.02c0,0,0,0,0-.01l.02-1.5s0-.01,0-.02h0s0-.01,0-.02l.12-1.42s0-.01,0-.02c0,0,0-.02,0-.02l.22-1.3s0-.02,0-.02c0,0,0-.02,0-.02l.31-1.15s0-.02,0-.03c0-.01,0-.02.01-.03l.23-.57c.08-.21.32-.3.52-.22.21.08.3.32.22.52l-.22.56-.3,1.12-.21,1.27-.12,1.39-.02,1.48.08,1.55s0,0,0,0l.06,1.04s0,0,0,0c0,0,0,.01,0,.02v1.01s0,0,0,.01c0,0,0,.01,0,.02l-.05.97s0,.01,0,.02c0,0,0,.01,0,.02l-.11.91s0,.01,0,.02c0,0,0,.01,0,.02l-.16.84s0,0,0,.01c0,0,0,0,0,0,0,0,0,.02,0,.03l-.21.75s0,.02,0,.02c0,0,0,.02,0,.02l-.26.65s0,.02-.01.03c0,.01-.01.02-.02.03l-.3.54s-.01.02-.02.03c0,.01-.02.02-.02.03l-.34.43s-.02.03-.03.04c-.01.01-.02.02-.04.03l-.37.31s-.03.02-.05.04c-.02.01-.04.02-.05.03l-.4.19c-.17.08-.36.03-.47-.1-.04.08-.11.16-.2.2l-.16.07-.13.1-.13.17-.13.24-.12.3-.1.36-.08.41-.05.45-.03.48v.51s.03.53.03.53c0,.04,0,.08,0,.12,0,0,0,0,0,0h0c-.01.06-.04.12-.08.17,0,0,0,0,0,0h0s-.08.08-.13.1c0,0,0,0,0,0h0s-.08.03-.12.04l-2.73.39s-.01,0-.02,0c-.01,0-.03,0-.04,0h0Zm.37-.95v.09s1.95-.28,1.95-.28v-.17s0,0-.01,0c0,0,0-.02,0-.02v-.52s0,0,0,0c0,0,0-.02,0-.02l.03-.5s0-.01,0-.02c0,0,0,0,0-.01l.06-.47s0-.02,0-.03c0,0,0,0,0-.01l.08-.43s0-.01,0-.02c0,0,0-.01,0-.02l.11-.38s0-.02,0-.03c0,0,0-.01,0-.02l.13-.33s0-.02.01-.03c0-.01.01-.02.02-.03l.15-.28s.01-.02.02-.03c0-.01.02-.02.02-.03l.17-.22s.02-.03.03-.04c.01-.01.02-.02.04-.03l.18-.15s.03-.03.05-.04c.02-.01.03-.02.05-.03l.2-.09c.17-.08.36-.03.47.1.04-.08.11-.16.2-.2l.36-.17.31-.26.3-.38.28-.5.25-.62.21-.72.16-.81.11-.89.05-.95v-.99s-.04-.6-.04-.6l-1.95.28.04.68s0,0,0,0c0,0,0,.01,0,.02v1.01s0,0,0,0c0,0,0,.02,0,.03l-.05.96s0,.02,0,.02h0s-.11.92-.11.92c0,0,0,0,0,.01,0,0,0,.01,0,.02l-.16.83s0,.01,0,.02c0,0,0,.02,0,.02l-.21.75s0,.02,0,.03c0,0,0,.01,0,.02l-.26.65s0,.02-.01.02c0,.01-.01.02-.02.03l-.3.54s-.01.02-.02.03c0,.01-.02.02-.02.03l-.34.43s-.02.03-.03.04c-.01.01-.02.02-.04.03l-.37.31s-.03.02-.05.04c-.02.01-.04.02-.06.03l-.4.19c-.16.08-.35.03-.47-.1-.04.08-.1.15-.19.19l-.17.08-.13.1-.13.17-.13.24-.12.3-.1.36-.08.41-.05.45-.03.48v.51Zm25.9-.98s0,0,0,0c-.22,0-.4-.19-.39-.41l.02-.94h0s0-.02,0-.02l.06-.9s0,0,0,0h0s0,0,0,0c0,0,0-.01,0-.02l.1-.86s0,0,0,0c0,0,0-.01,0-.02l.05-.28-2.2.32c-.22.03-.42-.12-.45-.34-.03-.22.12-.42.34-.45l2.45-.35.17-1.01.15-1.36.1-1.42.04-1.48-.03-1.52-.09-1.55-.15-1.56-.21-1.57-.26-1.56-.32-1.53-.37-1.5-.32-1.12-2.4.35c-.22.03-.42-.12-.45-.34-.03-.22.12-.42.34-.45l2.29-.33-.24-.83s0-.01,0-.02l-.32-1.31s0,0,0,0h0s0-.01,0-.02l-.28-1.34s0-.01,0-.02l-.23-1.36s0,0,0-.01c0,0,0,0,0,0l-.18-1.37s0,0,0-.01c0,0,0,0,0,0l-.13-1.37h0s0-.02,0-.02l-.08-1.35s0-.01,0-.02c0,0,0,0,0,0l-.02-1.33h0s0-.01,0-.02l.03-1.3s0,0,0,0c0,0,0,0,0-.01l.08-1.25s0,0,0,0h0s0-.01,0-.02l.14-1.19s0-.01,0-.02c0,0,0,0,0,0l.1-.59-2.2.32c-.22.03-.42-.12-.45-.34-.03-.22.12-.42.34-.45l2.45-.35.17-1.02.16-1.37.1-1.44.04-1.49-.03-1.53-.09-1.56-.15-1.58-.21-1.58-.26-1.57-.13-.64c-.04-.22.09-.43.31-.47.22-.04.43.09.47.31l.13.65s0,0,0,.01h0s.27,1.59.27,1.59c0,0,0,.01,0,.02l.21,1.59s0,.01,0,.02h0s0,0,0,0l.15,1.59s0,.01,0,.02l.09,1.58s0,.01,0,.02l.03,1.54s0,.01,0,.02l-.04,1.51s0,0,0,.01h0s0,0,0,0l-.1,1.45s0,0,0,0c0,0,0,0,0,.01l-.16,1.39s0,0,0,.01c0,0,0,.01,0,.02l-.22,1.3s0,.01,0,.02l-.19,1.12-.13,1.18-.08,1.24-.03,1.28.02,1.32.07,1.34.13,1.36.18,1.36.23,1.35.28,1.33.32,1.3.36,1.26s0,0,0,.01l.42,1.46s0,0,0,.01c0,0,0,0,0,0h0s0,0,0,0l.37,1.51s0,.01,0,.02t0,0s0,0,0,0l.32,1.54s0,.01,0,.02c0,0,0,0,0,0l.26,1.57s0,0,0,.01c0,0,0,0,0,0l.21,1.58s0,0,0,.01c0,0,0,0,0,0l.15,1.57h0s0,.02,0,.02l.09,1.56s0,.01,0,.02l.03,1.53s0,0,0,0c0,0,0,.01,0,.02l-.04,1.49h0s0,.01,0,.02l-.1,1.44s0,0,0,.01c0,0,0,0,0,.01l-.16,1.37s0,0,0,.01h0s0,.01,0,.02l-.21,1.29s0,.01,0,.02l-.13.8-.1.85-.06.89-.02.93c0,.22-.18.39-.4.39Zm14.96-13.71s-.04,0-.05,0c-.22-.03-.37-.23-.34-.45l.13-.96s0-.02,0-.03c0,0,0,0,0-.01l.21-.96c.05-.22.26-.35.48-.31.22.05.35.26.31.48l-.2.95-.13.95c-.03.2-.2.35-.4.35Zm1.07-4.38s-.06,0-.08,0c-.22-.05-.35-.26-.31-.48l.33-1.51.2-1.52c.03-.22.23-.37.45-.34.22.03.37.23.34.45l-.2,1.53s0,.01,0,.02h0s0,0,0,0c0,0,0,.01,0,.02l-.33,1.52c-.04.19-.21.32-.39.32Zm.61-4.59c-.21,0-.39-.17-.4-.39l-.05-1.51c0-.22.16-.41.39-.41,0,0,0,0,.01,0,.21,0,.39.17.4.39l.05,1.51c0,.22-.16.41-.39.41,0,0,0,0-.01,0Zm-.98-5.82c-.16,0-.31-.09-.37-.25l-.55-1.3-.65-1.21-.77-1.15c-.12-.18-.07-.43.11-.56.18-.12.43-.07.56.11l.78,1.16s.01.02.02.03c0,0,0,.01,0,.02l.67,1.24s0,.02.01.03c0,0,0,.01,0,.02l.55,1.32c.09.2-.01.44-.21.52-.05.02-.1.03-.15.03Zm-3.66-5.73c-.13,0-.26-.06-.33-.18l-.68-1.01s0-.01-.01-.02c0,0-.01-.02-.02-.03l-.58-1.08s0-.01-.01-.02c0,0,0-.01,0-.02l-.48-1.15c-.09-.2.01-.44.21-.52.2-.09.44.01.52.21l.47,1.13.57,1.05.67,1c.12.18.07.43-.11.56-.07.05-.15.07-.22.07Zm-51.59-3.87c-.18,0-.35-.13-.39-.31l-.28-1.23-.34-1.04-.24-.15.04.13s0,.02,0,.02c0,0,0,.01,0,.02l.29,1.24c.05.22-.08.43-.3.48s-.43-.08-.48-.3l-.28-1.23-.39-1.18s0,0,0,0l-.46-1.39c-.07-.21.05-.44.26-.51.21-.07.44.05.51.26l.41,1.25.24.15-.11-.33c-.07-.21.05-.44.26-.51.21-.07.44.05.51.26l.46,1.39s0,0,0,0l.39,1.19s0,.01,0,.02c0,0,0,.02,0,.03l.29,1.24c.05.22-.09.43-.3.48-.03,0-.06.01-.09.01Zm49.46-.59c-.18,0-.35-.13-.39-.32l-.27-1.25s0-.01,0-.02c0,0,0-.02,0-.02l-.16-1.28c-.03-.22.13-.42.35-.45.22-.03.42.13.45.35l.16,1.27.27,1.24c.05.22-.09.43-.31.48-.03,0-.06,0-.08,0Zm-27.37-1.77s-.03,0-.05,0l-1.11-.14s-.03,0-.05,0c-.01,0-.03,0-.04-.01l-1.04-.33s-.03,0-.04-.01c-.02,0-.03-.01-.04-.02l-.96-.52c-.1-.05-.17-.14-.19-.25l-.07-.02s-.03,0-.04-.02c-.01,0-.03-.01-.04-.02l-.06-.03c-.19-.11-.27-.35-.16-.54.11-.19.35-.27.54-.16l.03.02.99.32,1.08.13c.08,0,.14.04.2.08l-.49-.58s-.01-.02-.02-.03c0,0-.01-.02-.02-.03l-.5-.81c-.12-.19-.06-.43.13-.55.19-.12.43-.06.55.13l.49.79.49.59.38.31,1.7-.25-.47-.56s-.02-.02-.02-.03c0,0-.01-.02-.02-.03l-.5-.8s-.01-.02-.02-.03c0,0,0-.01-.01-.02l-.46-.95s0,0,0-.02c0,0,0-.02-.01-.03l-.4-1.08s0-.01,0-.02c0,0,0-.01,0-.02l-.34-1.17s0-.01,0-.02c0,0,0-.01,0-.02l-.26-1.24s0,0,0,0c0,0,0-.02,0-.02l-.18-1.26s0-.01,0-.02c0,0,0-.01,0-.02l-.09-1.25s0-.01,0-.02c0,0,0-.01,0-.02v-1.21s0-.01,0-.02c0,0,0-.01,0-.02l.09-1.14s0-.02,0-.03c0,0,0-.01,0-.02v-.07c.05-.22.26-.36.48-.33.22.04.36.25.33.46v.05s-.1,1.11-.1,1.11v1.19s.09,1.23.09,1.23l.17,1.24.26,1.21.33,1.15.39,1.05.44.93.48.77.49.59.37.3.93-.22.18-.08c.2-.09.44.01.52.22s-.01.44-.22.52l-.2.09s-.03.01-.04.01c-.01,0-.03,0-.04.01l-.21.05.09.06c.19.12.24.37.12.55-.05.07-.11.13-.19.16,0,.19-.15.35-.34.38l-2.08.3s-.05,0-.07,0h0s-.04,0-.06,0c0,0,0,0,0,0,0,0,0,0,0,0-.03,0-.05-.01-.07-.02,0,0,0,0,0,0,0,0,0,0,0,0-.02,0-.04-.02-.06-.03l-.54-.34s0,.08,0,.12c-.03.2-.2.35-.4.35Zm-1.04-.93l.88.11-.21-.13s-.01,0-.02-.01c0,0,0,0,0,0,0,0-.02-.01-.03-.02l-.54-.44s-.01,0-.02-.01c.05.08.07.17.06.26-.01.1-.06.19-.13.25h0Zm2.01-.12l.27.17,1.52-.22-.27-.17-1.52.22Zm25.92-1.03s-.01,0-.02,0c-.22-.01-.39-.2-.38-.42l.06-1.33s0-.01,0-.02c0,0,0-.02,0-.02l.18-1.33c.03-.22.23-.37.45-.34.22.03.37.23.34.45l-.17,1.32-.06,1.31c-.01.21-.19.38-.4.38Zm-31.61-.49c-.14,0-.28-.07-.35-.21l-.55-.99s-.01-.02-.02-.04c0-.01-.01-.03-.02-.04l-.37-1.09c-.07-.21.04-.44.25-.51.21-.07.44.04.51.25l.36,1.07.53.96c.11.19.04.44-.16.54-.06.03-.13.05-.19.05Zm-18.85-.34c-.2,0-.37-.15-.4-.35l-.2-1.49c-.03-.22.12-.42.34-.45.22-.03.42.12.45.34l.2,1.49c.03.22-.12.42-.34.45-.02,0-.04,0-.06,0Zm-1.31-.83c-.2,0-.37-.15-.4-.35l-.2-1.49c-.03-.22.12-.42.34-.45.22-.03.42.12.45.34l.2,1.49c.03.22-.12.42-.34.45-.02,0-.04,0-.06,0Zm19.05-2.1h0c-.22,0-.4-.18-.4-.4v-1.22s0-.02,0-.04c0-.01,0-.03,0-.04l.19-1.22s0-.02,0-.03c0-.01,0-.02.01-.04l.37-1.2s0,0,0,0l.33-1,.2-1,.08-1-.02-.47c-.01-.22.16-.41.38-.42.22-.01.41.16.42.38l.02.48s0,.02,0,.04c0,0,0,.02,0,.03l-.08,1.03s0,.02,0,.03c0,.01,0,.02,0,.03l-.21,1.03s0,.02,0,.03c0,0,0,.02,0,.02l-.33,1.02-.37,1.18-.18,1.17v1.19c0,.22-.18.4-.4.4Zm-18.02-.08s0,0-.01,0c-.22,0-.39-.19-.39-.41l.05-1.54c0-.22.19-.39.4-.39,0,0,0,0,.01,0,.22,0,.39.19.39.41l-.05,1.54c0,.22-.19.39-.4.39Zm-1.31-.83s0,0-.01,0c-.22,0-.39-.19-.39-.41l.05-1.54c0-.22.2-.4.41-.39.22,0,.39.19.39.41l-.05,1.54c0,.22-.19.39-.4.39Zm21.93-.51c-.2,0-.37-.14-.4-.34l-.18-1.27s0,0,0,0c0,0,0-.02,0-.03l-.09-1.26c-.02-.22.15-.41.37-.43.22-.02.41.15.43.37l.09,1.25.18,1.26c.03.22-.12.42-.34.45-.02,0-.04,0-.06,0Zm31.82-3.19s-.04,0-.05,0c-.22-.03-.37-.23-.34-.45l.2-1.53.07-1.53c.01-.22.2-.39.42-.38.22.01.39.2.38.42l-.08,1.54s0,.01,0,.02c0,0,0,.02,0,.03l-.2,1.54c-.03.2-.2.35-.4.35Zm-51.9-.11s-.07,0-.11-.02c-.21-.06-.34-.28-.27-.5l.44-1.52s0-.01,0-.02c0,0,0-.01,0-.02l.56-1.49c.08-.21.31-.31.52-.23.21.08.31.31.23.52l-.55,1.48-.43,1.51c-.05.18-.21.29-.38.29Zm-1.31-.83s-.07,0-.11-.02c-.21-.06-.34-.28-.27-.5l.44-1.52s0-.01,0-.02c0,0,0,0,0,0h0s0-.01,0-.02l.56-1.49c.08-.21.31-.31.52-.23.21.08.31.31.23.52l-.55,1.48-.43,1.51c-.05.18-.21.29-.38.29Zm21.21-.78s-.05,0-.07,0c-.22-.04-.36-.24-.33-.46l.14-.79c.04-.22.25-.36.46-.33.22.04.36.24.33.46l-.14.79c-.03.19-.2.33-.39.33Zm32.22-2.9c-.2,0-.37-.15-.4-.35l-.18-1.48-.31-1.44c-.05-.22.09-.43.31-.48.22-.05.43.09.48.31l.31,1.45s0,.01,0,.02c0,0,0,.02,0,.02l.18,1.49c.03.22-.13.42-.35.45-.02,0-.03,0-.05,0Zm-17.62-2.26c-.2,0-.37-.14-.4-.34-.03-.22.12-.42.34-.45l1.67-.24-4.07-2.58-2.59.37c-.22.03-.42-.12-.45-.34-.03-.22.12-.42.34-.45l2.74-.4s.04,0,.06,0h0s.05,0,.08,0h0s0,0,0,0c0,0,0,0,0,0t0,0s.05.01.08.03c0,0,0,0,0,0,.02,0,.03.02.05.03l5.11,3.24s0,0,.01,0c.05.03.08.07.11.11.03.04.05.09.06.15,0,.02,0,.05,0,.07h0s0,.06,0,.08c0,0,0,0,0,0,0,.03-.01.05-.03.08h0s0,0,0,0c0,0,0,0,0,0h0s-.02.04-.03.06c-.03.04-.07.08-.11.11-.05.03-.1.05-.16.06h0s-2.74.4-2.74.4c-.02,0-.04,0-.06,0Zm-20.44-4.88c-.07,0-.15-.02-.21-.06l-1.31-.83c-.19-.12-.24-.37-.12-.55.12-.19.37-.24.55-.12l1.31.83c.19.12.24.37.12.55-.08.12-.21.19-.34.19Zm4.12-5.47h0s-.05,0-.08,0c0,0,0,0,0,0,0,0,0,0,0,0-.03,0-.05-.01-.08-.02,0,0,0,0,0,0,0,0,0,0,0,0,0,0,0,0,0,0h0s-.04-.02-.05-.03l-5.11-3.24s0,0,0,0c-.05-.03-.09-.07-.12-.12-.03-.04-.05-.09-.06-.14,0-.02,0-.05,0-.07h0s0-.05,0-.08h0s0,0,0,0c0,0,0,0,0,0h0s.02-.06.03-.09c0-.02.02-.04.03-.05.03-.05.07-.09.12-.12.04-.03.09-.04.14-.05,0,0,.02,0,.02,0l2.74-.4s.03,0,.04,0c0,0,0,0,0,0,.04,0,.08,0,.12.01,0,0,0,0,0,0,0,0,0,0,0,0,0,0,0,0,0,0h0s.03,0,.04.01c0,0,0,0,0,0,0,0,0,0,0,0,0,0,0,0,0,0,.02,0,.04.02.06.03l5.11,3.24s0,0,.01,0c.05.03.08.07.11.11.03.04.05.09.06.15,0,.02,0,.05,0,.07h0s0,.06,0,.08c0,0,0,0,0,0h0s-.01.05-.02.07h0s0,0,0,0c0,0,0,0,0,0-.01.02-.02.05-.04.07-.03.04-.07.08-.11.11-.04.03-.09.05-.15.06,0,0,0,0,0,0h0s0,0-.01,0l-2.74.4s-.04,0-.06,0Zm-3.98-3.4l4.07,2.58,1.52-.22-4.07-2.58-1.52.22Z"/><path class="cls-1" d="m2.29,89.05s-.03,0-.05,0c-.01,0-.03,0-.04,0,0,0,0,0,0,0,0,0,0,0,0,0-.02,0-.04-.01-.06-.02,0,0,0,0,0,0-.02,0-.04-.02-.06-.03h0s-1.3-.83-1.3-.83c-.06-.03-.1-.08-.14-.14h0s0,0,0,0,0,0,0,0c0,0,0,0,0,0,0,0,0,0,0,0h0s-.02-.05-.03-.07l-.25-.75s0-.01,0-.02c0,0,0-.02,0-.02l-.18-.78s0-.01,0-.02c0,0,0-.02,0-.02l-.11-.8s0-.01,0-.02c0,0,0-.02,0-.03l-.04-.82s0-.02,0-.02c0,0,0-.01,0-.02l.03-.83s0-.01,0-.02c0,0,0-.01,0-.02l.1-.84s0-.01,0-.02c0,0,0-.01,0-.02l.17-.83s0-.01,0-.02H.31s0-.02,0-.02l.24-.82s0-.02,0-.02c0,0,0-.01,0-.02l.3-.81s0-.01,0-.02c0,0,0-.01,0-.02l.37-.79s0-.01.01-.02c0,0,0,0,0-.01l.43-.76s0,0,0-.01c0,0,0-.01.01-.02l.48-.72h0s.55-.82.55-.82l.48-.85.41-.88.34-.9.26-.92.19-.93.11-.93.03-.93-.05-.91-.12-.89-.2-.87-.28-.85s0,0,0,0l-.45-1.37s0-.02,0-.02c0,0,0-.01,0-.02l-.33-1.42s0-.01,0-.02c0,0,0-.02,0-.02l-.2-1.47s0-.02,0-.02c0,0,0-.01,0-.02l-.07-1.5s0-.01,0-.02c0,0,0-.02,0-.02l.05-1.52s0-.01,0-.02c0,0,0-.02,0-.02l.18-1.52s0,0,0-.01c0,0,0-.02,0-.03l.31-1.52s0-.01,0-.02c0,0,0-.01,0-.02l.43-1.5s0-.02,0-.02c0,0,0,0,0-.01l.55-1.47s0-.02,0-.02c0,0,0,0,0-.01l.67-1.43s0-.01,0-.02c0,0,0-.01.01-.02l.78-1.38s0,0,0-.01c0,0,0-.02.01-.02l.88-1.32s0,0,0,0l.76-1.14.67-1.18.57-1.23.47-1.26.37-1.28.26-1.3.15-1.3.05-1.29-.06-1.28-.17-1.27c-.03-.22.12-.42.34-.45.22-.03.42.12.45.34l.18,1.28s0,.01,0,.02c0,0,0,.02,0,.02l.06,1.3s0,.01,0,.02c0,0,0,.01,0,.02l-.05,1.32s0,.01,0,.02c0,0,0,.01,0,.02l-.16,1.32s0,.02,0,.02c0,0,0,.01,0,.02l-.27,1.32s0,.01,0,.02c0,0,0,.01,0,.02l-.38,1.31s0,.01,0,.02c0,0,0,.01,0,.02l-.48,1.28s0,.01,0,.02c0,0,0,.01,0,.02l-.58,1.25s0,0,0,.01c0,0,0,.01-.01.02l-.68,1.2s0,0,0,.01c0,0,0,.01-.01.02l-.54.81.63.4.55-.82.67-1.18.57-1.23.47-1.26.37-1.28.26-1.3.15-1.3.05-1.29-.06-1.28-.17-1.27c-.03-.22.12-.42.34-.45.22-.03.42.12.45.34l.18,1.28s0,.02,0,.02h0s0,.01,0,.02l.06,1.3s0,.02,0,.02c0,0,0,.01,0,.02l-.05,1.32s0,.02,0,.02c0,0,0,.01,0,.02l-.16,1.33s0,.02,0,.03c0,0,0,.01,0,.01l-.27,1.32s0,.02,0,.02c0,0,0,.01,0,.02l-.37,1.31s0,.02,0,.02h0s-.48,1.3-.48,1.3c0,0,0,.02-.01.03,0,0,0,0,0,.01l-.58,1.25s0,.02-.01.02c0,0,0,0,0,.01l-.68,1.2s0,.01,0,.02c0,0,0,.01-.01.02l-.77,1.15s0,0,0,0l-.88,1.31-.77,1.36-.66,1.41-.54,1.45-.42,1.48-.3,1.5-.18,1.5-.05,1.49.07,1.47.2,1.44.32,1.4.45,1.36s0,0,0,0l.28.86s0,.01,0,.02c0,0,0,.02,0,.03l.2.89s0,.01,0,.02c0,0,0,.02,0,.03l.13.92s0,.01,0,.02c0,0,0,.01,0,.02l.05.94s0,0,0,.01c0,0,0,.02,0,.03l-.03.95s0,.01,0,.02c0,0,0,.02,0,.02l-.11.96s0,.01,0,.02c0,0,0,.01,0,.02l-.19.95s0,.01,0,.02c0,0,0,.01,0,.02l-.27.94s0,.02,0,.03c0,0,0,0,0,0l-.35.93s0,0,0,.01c0,0,0,.02-.01.02l-.42.9s0,.01,0,.02c0,0,0,.01,0,.02l-.49.87s0,.01,0,.02c0,0,0,.01-.01.02l-.56.83s0,0,0,0l-.48.71-.42.74-.36.77-.29.79-.23.8-.16.81-.1.81-.03.81.04.79.11.78.17.75.14.42,13.75-1.99v-.12s-.02-.02-.02-.03c0-.01,0-.02,0-.03v-.51s0-.02,0-.02c0-.01,0-.02,0-.03l.06-.52s0-.02,0-.02c0-.01,0-.02,0-.03l.12-.52s0-.02,0-.03c0,0,0-.02,0-.03l.18-.51s0-.02.01-.03c0,0,0,0,0,0,0,0,0-.01,0-.02l.23-.49s0-.02.01-.02c0,0,0-.02.01-.02l.28-.46s0-.01.01-.02c0,0,.01-.02.02-.02l.33-.43s.01-.02.02-.03c0,0,0,0,.01-.01l.37-.39s.01-.01.02-.02c0,0,0,0,0,0,0,0,.01-.01.02-.02l.41-.34s.02-.01.03-.02c0,0,.01,0,.02-.01l.44-.3c.18-.12.43-.07.56.11.12.18.07.43-.11.56l-.43.29-.38.32-.35.37-.31.4-.27.44-.22.46-.16.48-.11.49-.05.49v.48s.06.49.06.49c0,.05,0,.09,0,.14h0s0,0,0,0c0,0,0,0,0,0,0,0,0,0,0,0s0,0,0,0h0c-.01.06-.04.11-.07.15h0s0,0,0,0c0,0,0,0,0,0,0,0,0,0,0,0,0,0,0,0,0,0,0,0,0,0,0,0,0,0,0,0,0,0h0s-.07.07-.11.09c0,0,0,0,0,0s0,0,0,0c0,0,0,0,0,0,0,0,0,0,0,0-.04.03-.1.05-.15.05l-14.46,2.09s-.04,0-.06,0Zm-.97-1.49l.28.18-.12-.54s0-.01,0-.02c0,0,0-.02,0-.02l-.11-.8s0-.02,0-.03c0,0,0-.01,0-.02l-.04-.82s0-.01,0-.02c0,0,0-.02,0-.03l.03-.83s0-.01,0-.02c0,0,0-.01,0-.02l.1-.84s0-.01,0-.02c0,0,0-.02,0-.02l.17-.83s0-.01,0-.02c0,0,0-.01,0-.02l.24-.82s0-.01,0-.02c0,0,0-.02,0-.02l.3-.81s0,0,0-.01c0,0,0-.02.01-.02l.37-.78s0-.01,0-.02c0,0,0-.01,0-.02l.43-.76s0-.01.01-.02c0,0,0-.01.01-.02l.26-.38-.63-.4-.26.39-.42.74-.36.77-.29.79-.23.8-.16.81-.1.81-.03.81.04.79.11.78.17.75.2.6Zm1.77-9.5l.63.4.33-.5.48-.85.41-.88.34-.9.26-.92.19-.93.11-.93.03-.93-.05-.91-.12-.89-.2-.87-.23-.71-.26-.17.17.75s0,.01,0,.02,0,.02,0,.02l.13.92s0,.01,0,.02c0,0,0,.02,0,.02l.05.94s0,.01,0,.02c0,0,0,.02,0,.03l-.03.95s0,.01,0,.02c0,0,0,.01,0,.02l-.11.96s0,.01,0,.02c0,0,0,.02,0,.02l-.19.95s0,.01,0,.02c0,0,0,.01,0,.02l-.27.94s0,.02,0,.02c0,0,0,.01,0,.02l-.35.93s0,.01,0,.02c0,0,0,.01,0,.02l-.42.9s0,.01,0,.02c0,0,0,.01-.01.02l-.49.87s0,.01-.01.02c0,0,0,0,0,.01l-.33.49Zm1.55-11.18l.24.15-.1-.31s0-.02,0-.03c0,0,0-.01,0-.02l-.33-1.42s0-.01,0-.02c0,0,0-.02,0-.03l-.2-1.47s0-.01,0-.02c0,0,0-.02,0-.03l-.07-1.5s0-.02,0-.02c0,0,0-.01,0-.02l.05-1.52s0-.01,0-.02c0,0,0-.01,0-.02l.18-1.53s0,0,0-.01c0,0,0-.02,0-.03l.31-1.52s0-.01,0-.02c0,0,0-.01,0-.02l.43-1.5s0-.01,0-.02c0,0,0-.02,0-.02l.55-1.47s0-.01,0-.02c0,0,0-.01,0-.02l.67-1.43s0-.01,0-.02c0,0,0-.01.01-.02l.78-1.38s0-.01.01-.02c0,0,0,0,0-.01l.66-.98-.63-.4-.66.99-.77,1.36-.66,1.41-.54,1.45-.42,1.48-.3,1.5-.18,1.5-.05,1.49.07,1.47.2,1.44.32,1.4.4,1.22Zm50.95,14.47s-.06,0-.08,0c0,0,0,0,0,0-.02,0-.03,0-.05-.01-.03-.01-.06-.03-.09-.04l-1.29-.82s-.04-.02-.05-.04c-.04-.04-.08-.08-.1-.13-.02-.05-.04-.11-.04-.17,0-.02,0-.04,0-.06l.06-.5v-.48s-.05-.47-.05-.47l-.11-.44-.16-.42-.21-.38-.25-.34-.13-.13c-.16-.16-.15-.41,0-.57.16-.16.41-.15.57,0h0c.08,0,.16.02.23.06l.41.23s.02.01.03.02c.01,0,.02.01.03.02l.37.28s.02.01.03.02c0,0,.02.02.03.03l.33.33s.02.02.03.03c0,0,.01.02.02.02l.28.38s.01.02.02.03c0,0,.01.02.02.03l.23.42s.01.02.02.03c0,0,0,.02.01.03l.17.45s0,.02.01.04c0,0,0,.02,0,.03l.12.48s0,.02,0,.03c0,.01,0,.02,0,.03l.06.5s0,.02,0,.03c0,0,0,.02,0,.03v.52s0,.02,0,.03c0,0,0,.02,0,.03h0s13.7-1.97,13.7-1.97l.17-.57.17-.81.11-.81.04-.81-.03-.8-.1-.78-.16-.76-.23-.73-.29-.69-.35-.65-.42-.62c-.12-.18-.07-.43.11-.56.18-.12.43-.07.56.11l.43.64s0,.01.01.02c0,0,.01.02.01.03l.36.68s0,.02.01.03c0,0,0,.01,0,.02l.3.72s0,.01,0,.02c0,0,0,.01,0,.02l.24.75s0,.02,0,.02c0,0,0,.01,0,.02l.17.78s0,.01,0,.02h0s0,0,0,0c0,0,0,.02,0,.03l.1.81s0,.01,0,.02c0,0,0,.02,0,.02l.03.82s0,.01,0,.02h0s0,.02,0,.03l-.04.83s0,.01,0,.02c0,0,0,.02,0,.02l-.11.83s0,.02,0,.02c0,0,0,.01,0,.02l-.18.83s0,.02,0,.03c0,0,0,0,0,.01l-.25.82s-.01.04-.02.06c-.02.05-.06.1-.1.14-.04.04-.1.07-.15.08-.02,0-.04,0-.06.01l-14.45,2.08s-.04,0-.06,0h0Zm-.88-1.43l.54.35v-.35s-.05-.47-.05-.47l-.11-.44-.16-.42-.21-.38-.16-.22.11.46s0,.02,0,.03c0,.01,0,.02,0,.03l.06.5s0,.02,0,.03c0,0,0,.02,0,.03v.51s0,.02,0,.03c0,0,0,.02,0,.03l-.03.28Zm-34.18,1.26c-.13,0-.26-.06-.33-.18-.12-.18-.07-.43.11-.56l.84-.56.77-.65.7-.73.63-.83c.13-.18.39-.21.56-.07.18.13.21.39.07.56l-.64.84s-.01.01-.02.02c0,0-.01.01-.02.02l-.72.76s-.01.02-.02.02c0,0-.01.01-.02.02l-.79.67s-.02.01-.02.02t0,0h0s-.01,0-.02.01l-.86.57c-.07.05-.15.07-.22.07Zm3.6-3.77c-.06,0-.12-.01-.17-.04-.2-.09-.29-.33-.19-.53l.44-.94.33-.96.22-.98.11-.98v-.97s-.12-.96-.12-.96h0s-.17-1.49-.17-1.49c0-.01,0-.02,0-.03,0-.01,0-.03,0-.04l.04-1.52s0-.02,0-.03c0-.01,0-.02,0-.03l.25-1.52s0-.02,0-.03c0-.01,0-.02,0-.03l.45-1.5s0-.02,0-.03c0-.01,0-.02.01-.03l.65-1.44s0-.02.01-.03c0-.01.01-.02.02-.03l.83-1.35s.01-.02.02-.02c0,0,.01-.02.02-.03l.99-1.24c.14-.17.39-.2.56-.06.17.14.2.39.06.56l-.98,1.22-.81,1.32-.63,1.41-.44,1.46-.24,1.48-.04,1.47.16,1.46.12.98s0,.02,0,.03c0,.01,0,.02,0,.03v1s0,.02,0,.03c0,0,0,.02,0,.03l-.11,1.01s0,.02,0,.03c0,.01,0,.02,0,.03l-.23,1.01s0,.02,0,.03c0,0,0,.02,0,.02l-.34.99s0,.02,0,.03c0,0,0,.02-.01.02l-.45.96c-.07.14-.21.23-.36.23Zm27.69-.75s-.1,0-.14-.03l-.66-.25c-.21-.08-.31-.31-.23-.52.08-.21.31-.31.52-.23l.66.25c.21.08.31.31.23.52-.06.16-.21.26-.37.26Zm16.13-7.27c-.13,0-.26-.06-.33-.18l-.49-.73s0-.01-.01-.02h0s0-.02-.01-.02l-.42-.78s0-.01,0-.02c0,0,0-.02-.01-.03l-.34-.82s0-.02-.01-.03c0,0,0-.01,0-.02l-.27-.86s0-.02,0-.02c0,0,0-.01,0-.02l-.19-.9s0-.01,0-.02c0,0,0-.02,0-.02l-.11-.92s0-.01,0-.02c0,0,0-.02,0-.03l-.03-.94s0-.01,0-.02,0-.01,0-.02l.05-.96c.01-.22.2-.39.42-.38.22.01.39.2.38.42l-.05.95.03.92.11.9.19.87.26.84.33.8.4.75.48.72c.12.18.07.43-.11.56-.07.05-.15.07-.22.07Zm-38.6-9.22c-.12,0-.24-.06-.32-.16-.13-.18-.09-.43.08-.56l1.25-.93s.02-.01.03-.02c0,0,.02-.01.03-.02l1.34-.74c.19-.11.44-.04.54.16.11.19.04.44-.16.54l-1.32.73-1.23.91c-.07.05-.16.08-.24.08Zm4.01-2.21c-.18,0-.35-.13-.39-.31-.05-.22.09-.43.3-.48l1.44-.32c.22-.05.43.09.48.3.05.22-.09.43-.3.48l-1.44.32s-.06,0-.09,0Zm34.36-2.99s-.01,0-.02,0c-.22-.01-.39-.2-.38-.42l.07-1.53c.01-.22.2-.39.42-.38.22.01.39.2.38.42l-.07,1.53c-.01.21-.19.38-.4.38Zm.02-3.04c-.2,0-.37-.15-.4-.35l-.18-1.46-.3-1.4-.43-1.37c-.07-.21.05-.44.26-.5.21-.07.44.05.5.26l.43,1.38s0,.01,0,.02c0,0,0,.02,0,.03l.31,1.43s0,.02,0,.02c0,0,0,.01,0,.02l.18,1.48c.03.22-.13.42-.35.45-.02,0-.03,0-.05,0Zm-6.34-13.28c-.17,0-.33-.11-.38-.28l-.38-1.21c-.07-.21.05-.44.26-.5.21-.07.44.05.5.26l.38,1.21c.07.21-.05.44-.26.5-.04.01-.08.02-.12.02Zm-27.75-2.98c-.21,0-.39-.16-.4-.38-.01-.22.16-.41.38-.42l1.15-.07c.22-.01.41.16.42.38.01.22-.16.41-.38.42l-1.15.07s-.02,0-.02,0Zm26.95-.77c-.21,0-.39-.17-.4-.39l-.05-1.31c0-.22.16-.41.39-.41,0,0,0,0,.01,0,.21,0,.39.17.4.39l.05,1.31c0,.22-.16.41-.39.41,0,0,0,0-.01,0Zm-28.26-.06c-.21,0-.39-.16-.4-.38-.01-.22.16-.41.38-.42l1.15-.07c.22-.01.41.16.42.38.01.22-.16.41-.38.42l-1.15.07s-.02,0-.02,0Zm-21.93-.64c-.18,0-.35-.13-.39-.31l-.33-1.44c-.05-.22.08-.43.3-.48.22-.05.43.08.48.3l.33,1.44c.05.22-.08.43-.3.48-.03,0-.06.01-.09.01Zm19.23-.24c-.12,0-.23-.05-.31-.15l-.71-.86c-.14-.17-.12-.42.05-.56.17-.14.42-.12.56.05l.71.86c.14.17.12.42-.05.56-.07.06-.16.09-.25.09Zm-20.54-.59c-.18,0-.35-.13-.39-.31l-.33-1.44c-.05-.22.08-.43.3-.48.22-.05.43.08.48.3l.33,1.44c.05.22-.08.43-.3.48-.03,0-.06.01-.09.01Zm.77-2.1c-.21,0-.39-.17-.4-.38l-.08-1.52c-.01-.22.16-.41.38-.42.22,0,.41.16.42.38l.08,1.52c.01.22-.16.41-.38.42,0,0-.01,0-.02,0Zm18.14-.27c-.19,0-.36-.14-.39-.34l-.19-1.18c-.04-.22.11-.42.33-.46.22-.03.42.11.46.33l.19,1.18c.04.22-.11.42-.33.46-.02,0-.04,0-.06,0Zm32.78-.08s-.06,0-.08,0c-.22-.05-.35-.26-.31-.48l.29-1.33c.05-.22.26-.35.48-.31.22.05.35.26.31.48l-.29,1.33c-.04.19-.21.32-.39.32Zm-52.22-.49c-.21,0-.39-.17-.4-.38l-.08-1.52c-.01-.22.16-.41.38-.42.22,0,.41.16.42.38l.08,1.52c.01.22-.16.41-.38.42,0,0-.01,0-.02,0Zm1.29-2.23s-.03,0-.05,0c-.22-.03-.38-.23-.35-.44l.18-1.54s0-.02,0-.03c0,0,0-.01,0-.02l.31-1.54c.04-.22.25-.36.47-.31.22.04.36.26.31.47l-.31,1.53-.18,1.53c-.02.2-.2.35-.4.35Zm-1.31-.83s-.03,0-.05,0c-.22-.03-.38-.23-.35-.44l.18-1.54s0-.01,0-.02c0,0,0-.01,0-.02l.31-1.54c.04-.22.25-.36.47-.31.22.04.36.26.31.47l-.31,1.53-.18,1.53c-.02.2-.2.35-.4.35Zm53.38-.61s-.06,0-.08,0c-.22-.05-.35-.26-.31-.48l.33-1.54c.05-.22.26-.35.48-.31.22.05.35.26.31.48l-.33,1.54c-.04.19-.21.32-.39.32Zm.61-4.63c-.21,0-.39-.17-.4-.39l-.05-1.52c0-.22.16-.41.39-.41.22,0,.41.16.41.39l.05,1.52c0,.22-.16.41-.39.41,0,0,0,0-.01,0Zm-51.19-.04c-.06,0-.11-.01-.17-.04-.2-.09-.29-.33-.19-.53l.51-1.1c.09-.2.33-.29.53-.19.2.09.29.33.19.53l-.51,1.1c-.07.15-.21.23-.36.23Zm-1.31-.83c-.06,0-.11-.01-.17-.04-.2-.09-.29-.33-.19-.53l.18-.38c.09-.2.33-.29.53-.19.2.09.29.33.19.53l-.18.38c-.07.15-.21.23-.36.23Zm51.95-3.6c-.17,0-.33-.11-.38-.28l-.16-.51c-.07-.21.05-.44.26-.5.21-.07.44.05.5.26l.16.51c.07.21-.05.44-.26.5-.04.01-.08.02-.12.02Zm-61.33-.08c-.22,0-.4-.18-.4-.4v-2.9c0-.22.18-.4.4-.4s.4.18.4.4v2.9c0,.22-.18.4-.4.4Zm13.05-2.57s-.05,0-.08,0h0s0,0,0,0h0s-.06-.02-.09-.03c0,0,0,0,0,0-.02,0-.03-.02-.04-.02l-1.3-.83s-.01,0-.02-.01c-.04-.03-.08-.07-.1-.11-.03-.05-.05-.1-.06-.16,0-.02,0-.03,0-.05,0-.03,0-.07,0-.1,0-.03.01-.05.03-.08h0s0,0,0,0c0,0,0,0,0,0,0-.02.02-.04.03-.06,0,0,0,0,0,0,.03-.05.07-.08.11-.11.04-.03.09-.05.15-.06,0,0,0,0,0,0h0s.01,0,.02,0l10.71-1.55c.22-.03.42.12.45.34.03.22-.12.42-.34.45l-9.64,1.39.27.17,10.57-1.53c.22-.03.42.12.45.34.03.22-.12.42-.34.45l-10.71,1.55s-.04,0-.06,0h0Zm34.21-4.94s-.06,0-.09-.01h0s0,0,0,0c0,0,0,0,0,0h0s-.04-.01-.06-.02c0,0,0,0,0,0,0,0,0,0,0,0-.02,0-.04-.02-.06-.03l-1.3-.83s0,0,0,0c-.05-.03-.08-.07-.11-.11-.03-.05-.05-.1-.06-.16,0-.02,0-.03,0-.05,0-.03,0-.07,0-.1,0-.03.02-.06.03-.09,0-.02.02-.03.03-.05.03-.05.07-.08.11-.11.05-.03.1-.05.16-.06,0,0,0,0,0,0l10.71-1.55s.03,0,.04,0c0,0,0,0,0,0h0s0,0,.01,0c.03,0,.07,0,.1.01,0,0,0,0,0,0,0,0,0,0,0,0,0,0,0,0,0,0h0s.03,0,.05.02c0,0,0,0,0,0,0,0,0,0,0,0,0,0,0,0,0,0,.02,0,.04.02.07.03l1.3.83s.01,0,.02.01c.04.03.08.07.11.11.03.04.05.09.06.15,0,.02,0,.04,0,.06h0s0,.07-.01.11c0,0,0,0,0,0,0,0,0,0,0,0,0,0,0,0,0,0,0,0,0,0,0,0h0s0,.02-.01.04c-.01.03-.03.06-.05.09h0s-.07.08-.11.1c-.04.03-.09.05-.15.06,0,0-.01,0-.02,0l-10.71,1.55s-.03,0-.05,0c0,0,0,0-.01,0Zm-.18-.99l.27.17,9.5-1.37-.27-.17-9.5,1.37Z"/><path class="cls-1" d="m42.3,84.36c-.13,0-.25-.06-.33-.17l-.66-.93c-.13-.18-.09-.43.09-.56.18-.13.43-.09.56.09l.66.93c.13.18.09.43-.09.56-.07.05-.15.07-.23.07Zm-23.13-2.48c-.15,0-.29-.08-.36-.22-.1-.2-.02-.44.17-.54l1.38-.71c.2-.1.44-.02.54.17.1.2.02.44-.17.54l-1.38.71c-.06.03-.12.04-.18.04Zm4.42-3.57c-.07,0-.14-.02-.21-.06-.19-.12-.25-.36-.13-.55l.48-.78s0,0,0,0l.08-.13c.12-.19.36-.25.55-.13.19.12.25.36.13.55l-.08.13h0s-.48.78-.48.78c-.08.12-.21.19-.34.19Zm30.09-1.18s-.09,0-.14-.03l-.33-.12s0,0,0,0l-.09-.03-1.35-.3c-.06-.01-.11-.04-.16-.07v.11c0,.22-.17.4-.39.41h0c-.22,0-.4-.17-.4-.39v-.68s-.01,0-.01,0v-.28c0-.22.17-.4.39-.41h0c.22,0,.4.17.4.39v.23c.1-.08.22-.11.35-.08l1.37.31s.02,0,.04,0c.01,0,.02,0,.03.01l.11.04s0,0,0,0l.33.12c.21.08.31.31.23.52-.06.16-.21.26-.37.26Zm-27.63-3.08c-.2,0-.37-.14-.4-.35-.03-.22.12-.42.34-.45l.66-.09h0l2.07-.3s0,0,0,0l.67-.1c.22-.03.42.12.45.34.03.22-.12.42-.34.45l-.67.1h0l-2.07.3s0,0,0,0l-.66.09s-.04,0-.06,0Zm43-3.41c-.11,0-.23-.05-.31-.14l-1.05-1.26c-.14-.17-.12-.42.05-.56.17-.14.42-.12.56.05l1.05,1.26c.14.17.12.42-.05.56-.07.06-.17.09-.26.09Zm-40.81-9.38c-.1,0-.21-.04-.29-.12-.15-.16-.15-.41.01-.57l.98-.95s0,0,0,0l.15-.15c.16-.15.41-.15.57.01.15.16.15.41-.01.57l-.15.15h0s-.98.95-.98.95c-.08.07-.18.11-.28.11Zm38.26-.78s-.08,0-.12-.02c-.21-.06-.33-.29-.27-.5l.74-2.46c.06-.21.29-.33.5-.27.21.06.33.29.27.5l-.74,2.46c-.05.17-.21.29-.38.29Zm-34.52-1.99c-.16,0-.31-.1-.37-.26-.08-.21.03-.44.23-.52l.49-.19s0,0,0,0l.91-.35c.21-.08.44.03.52.23.08.21-.03.44-.23.52l-.91.35s0,0,0,0l-.49.19s-.1.03-.14.03Zm2.85-.86c-.22,0-.4-.18-.4-.4v-22.04c0-.22.18-.4.4-.4s.4.18.4.4v22.04c0,.22-.18.4-.4.4Zm30.02-13.75c-.11,0-.23-.05-.31-.14l-1.66-2c-.14-.17-.12-.42.05-.56.17-.14.42-.12.56.05l1.66,2c.14.17.12.42-.05.56-.07.06-.17.09-.26.09Zm-27.97-8.55c-.08,0-.16-.02-.23-.07-.18-.13-.22-.38-.09-.56l.03-.04h0s.25-.35.25-.35c0,0,0,0,0,0l.13-.18c.13-.18.38-.22.56-.09.18.13.22.38.09.56l-.13.18s0,0,0,0l-.25.35s0,0,0,0l-.03.04c-.08.11-.2.17-.33.17Zm-6.36-.68c-.09,0-.18-.03-.26-.09l-.41-.34s0,0,0,0l-.44-.37c-.17-.14-.19-.39-.05-.56s.39-.19.56-.05l.44.37s0,0,0,0l.41.34c.17.14.19.39.05.56-.08.1-.19.14-.31.14Zm30.6-5.07s-.08,0-.12-.02c-.21-.06-.33-.29-.27-.5l.85-2.83c.06-.21.29-.33.5-.27.21.06.33.29.27.5l-.85,2.83c-.05.17-.21.29-.38.29Zm-14.54-4.8s-.02,0-.03,0l-.77-.05h0l-1.81-.12s-.01,0-.02,0c0,0-.02,0-.03,0l-2.87-.46-3.51-.52-2.35-.33-2.21-.29s0,0,0,0l-.77-.1-1.84-.22s0,0,0,0l-1.39-.17s0,0,0,0l-2.82-.31s0,0,0,0l-3.07-.32-3.1-.29-3.12-.27-3.15-.24-1.86-.13s0,0,0,0l-1.64-.11s0,0,0,0l-2.84-.17s0,0-.01,0c-.01,0-.03,0-.04,0l-2.34-.36s-.02,0-.03,0c0,0-.02,0-.03,0l-1.95-.53s-.03,0-.04-.01c-.01,0-.03-.01-.04-.02l-1.42-.66s-.04-.02-.06-.04c-.02-.01-.04-.03-.06-.05l-.81-.75s-.06-.07-.09-.11c0,0,0,0,0,0-.02-.04-.03-.08-.04-.12l-.14-.79c-.04-.22.11-.43.33-.46.22-.04.43.11.46.33l.12.67.67.63,1.35.63,1.91.52,1.87.29v-2.09l-2.01-.31s-.02,0-.03,0c0,0-.02,0-.03,0l-1.95-.53s-.03,0-.04-.01c-.01,0-.02,0-.04-.02l-1.43-.66s-.04-.02-.07-.04c-.02-.01-.04-.03-.05-.04l-.81-.75s-.06-.06-.08-.1c0,0,0,0,0,0s0,0,0,0c-.02-.04-.04-.08-.04-.13l-.14-.79c0-.05,0-.11,0-.16.01-.05.03-.1.06-.14l.54-.78s.04-.05.06-.07c.02-.02.05-.04.08-.06l1.5-.86,1.42-.88,1.35-.89,1.27-.9,1.19-.9,1.11-.91,1.03-.92.95-.93.87-.93.79-.94.7-.94.62-.95s.04-.05.06-.08c.02-.02.05-.04.08-.06l1.19-.7s.03-.02.04-.02c.02,0,.03-.01.05-.02l1.75-.59s.02,0,.04-.01c0,0,.02,0,.03,0l2.21-.43s.02,0,.02,0c0,0,.02,0,.03,0l2.5-.25s.02,0,.03,0c0,0,.01,0,.02,0L24.5,0s.02,0,.03,0c0,0,.01,0,.02,0l2.58.17s.02,0,.03,0h0s.01,0,.02,0l2.87.46,2.91.43,2.95.41,2.98.39,3.01.36,3.05.34,3.07.32,3.1.29,3.13.27,3.14.24,3.17.22,3.18.19s.01,0,.02,0c0,0,.02,0,.03,0l2.35.36s.02,0,.02,0c.01,0,.02,0,.03,0l1.95.53s.03,0,.04.01c.01,0,.02,0,.04.02l1.43.66s.04.02.06.04c.02.01.04.03.05.04l.81.75s.07.08.09.13h0s0,0,0,0c0,0,0,0,0,0,.01.03.02.07.03.1l.14.79s0,.03,0,.04c0,.01,0,.03,0,.04v2.88s0,.09-.02.13c-.01.04-.03.07-.05.1l-.54.77s-.04.05-.06.07c-.02.02-.05.04-.08.05l-1.5.86-1.42.88-1.35.89-1.27.89-1.19.9-1.2.99s0,0,0,0l-.94.84-.95.93-.87.93-.79.94-.7.94-.62.95s-.04.05-.06.07c-.02.02-.05.04-.08.06l-1.19.7s-.03.02-.05.02c-.02,0-.03.01-.05.02l-1.76.59s-.02,0-.03,0c-.01,0-.02,0-.03,0l-2.21.43s-.02,0-.02,0c0,0-.02,0-.03,0l-2.51.25s-.01,0-.02,0c0,0-.02,0-.03,0h-.58s0,0,0,0l-2.05.03s0,0,0,0Zm-.75-.85l.76.05,2.04-.03h.57s2.48-.25,2.48-.25l2.17-.43,1.7-.57.97-.57v-1.96l-.59.35s-.03.02-.05.02c-.02,0-.03.01-.05.02l-1.75.59s-.02,0-.04.01c0,0-.02,0-.03,0l-2.21.43s-.02,0-.02,0c0,0-.02,0-.03,0l-2.5.25s-.02,0-.02,0c0,0-.01,0-.02,0l-2.63.04s-.01,0-.02,0c0,0-.02,0-.02,0l-2.58-.17s-.01,0-.02,0c0,0-.02,0-.03,0l-2.87-.46-2.91-.43-2.95-.41-2.98-.39-3.01-.36-2.6-.29v2.09l2.47.28s0,0,0,0l.22.02s0,0,0,0l1.17.14s0,0,0,0l1.84.22s0,0,0,0l.77.1s0,0,0,0l2.21.29s0,0,0,0c0,0,0,0,0,0l2.35.33s0,0,0,0l.6.08s0,0,0,0l2.91.43s0,0,0,0l2.86.45,1.8.12Zm-22.68-2.82s0,0,0,0l2.64.27v-2.09l-2.71-.28-3.1-.29-3.12-.27-3.15-.24-3.17-.22-2.76-.17v2.09l2.47.15s0,0,0,0l.34.02s0,0,0,0l1.31.09s0,0,0,0l1.86.13h0s3.14.24,3.14.24c0,0,0,0,0,0l3.12.27s0,0,0,0l3.1.29Zm20.88-.19l2.55.16,2.61-.04,2.48-.24,2.17-.43,1.7-.57,1.08-.64.58-.88h0s0-.02.01-.03l.71-.95s0,0,0,0c0,0,0-.01.01-.02l.8-.95s0,0,0,0c0,0,0-.01.01-.02l.88-.94h0s0,0,0,0h0s0,0,0,0l.96-.93s0,0,.01-.01c0,0,0,0,0,0l1.04-.93h0s0,0,0,0c0,0,0,0,0,0,0,0,0,0,0,0,0,0,0,0,0,0h0s0,0,.01-.01l1.12-.92s0,0,0,0c0,0,0,0,0,0,0,0,0,0,0,0,0,0,0,0,.01,0l1.2-.91s0,0,0,0h0s0,0,0,0c0,0,0,0,0,0l1.28-.9s0,0,0,0c0,0,0,0,0,0,0,0,0,0,0,0l1.36-.89s0,0,0,0c0,0,0,0,0,0l1.43-.88s0,0,.01,0l1.43-.83.4-.57-.09-.5-.67-.63-1.35-.63-1.91-.52-2.32-.36-3.17-.19s0,0,0,0l-3.17-.22h0s0,0,0,0,0,0,0,0l-3.15-.24s0,0,0,0l-3.13-.27s0,0,0,0l-3.1-.29s0,0,0,0l-3.07-.32s0,0,0,0l-3.05-.34s0,0,0,0c0,0,0,0,0,0l-3.02-.36s0,0,0,0l-2.99-.39s0,0,0,0c0,0,0,0,0,0h0s0,0,0,0l-2.95-.41s0,0,0,0l-2.91-.43h0s-2.86-.45-2.86-.45l-2.55-.16-2.61.04-2.48.24-2.17.43-1.7.57-1.08.64-.58.88s0,0,0,0c0,0,0,.01-.01.02l-.71.95s0,0,0,0c0,0,0,0,0,0,0,0,0,0,0,0,0,0,0,0-.01.01l-.8.95s0,0,0,0c0,0,0,.01-.01.02l-.88.94s0,0,0,0c0,0,0,0,0,0l-.96.94s0,0,0,0c0,0,0,0-.01.01l-1.04.93s0,0-.01.01c0,0,0,0,0,0h0s0,0,0,0l-1.12.92s0,0-.01.01c0,0,0,0,0,0l-1.2.91s0,0-.01.01l-1.28.9s0,0-.01,0l-1.35.89s0,0,0,0c0,0,0,0,0,0,0,0,0,0,0,0l-1.43.88s0,0,0,0h0s0,0,0,0c0,0,0,0,0,0l-1.43.82-.4.57.09.5.67.63,1.35.63,1.91.52,2.32.36,3.17.19s0,0,0,0l3.17.22s0,0,0,0c0,0,0,0,0,0l3.15.24s0,0,0,0l3.13.27s0,0,0,0l3.1.29h0s3.07.32,3.07.32c0,0,0,0,.01,0l3.04.34s0,0,0,0l3.02.36s0,0,0,0l2.98.39s0,0,0,0l2.95.41s0,0,0,0c0,0,0,0,0,0,0,0,0,0,0,0l2.92.43s0,0,0,0l2.86.45Zm13.29-1.35v1.46l.63-.84s0-.01.01-.02h0s0,0,0,0c0,0,0,0,0,0l.8-.95s0,0,0-.01c0,0,0,0,0,0l.88-.94s0,0,0,0c0,0,0,0,0,0,0,0,0,0,0,0l.96-.93s0,0,.01-.01c0,0,0,0,0,0l.91-.81v-1.82l-.37.33-.95.93-.87.93-.79.94-.7.94-.56.85Zm5.05-5.62v1.86l.47-.38s0,0,.01,0c0,0,0,0,0,0h0s0,0,0,0l1.2-.91s0,0,0,0c0,0,0,0,0,0,0,0,0,0,0,0l1.28-.9s0,0,0,0c0,0,0,0,0,0l1.35-.89h.01s1.43-.89,1.43-.89c0,0,0,0,.01,0l1.43-.83.43-.61v-1.61l-1.45.84-1.42.88-1.35.89-1.27.9-1.19.9-.97.8Z"/></g></svg>