<?xml version="1.0" encoding="utf-8"?>
<!-- Generator: Adobe Illustrator 28.0.0, SVG Export Plug-In . SVG Version: 6.00 Build 0)  -->
<svg version="1.1" id="Layer_2_00000175322066200085181570000001853100315190641845_"
	 xmlns="http://www.w3.org/2000/svg" xmlns:xlink="http://www.w3.org/1999/xlink" x="0px" y="0px" viewBox="0 0 221.2 283.6"
	 style="enable-background:new 0 0 221.2 283.6;" xml:space="preserve">
<style type="text/css">
	.st0{fill:#293F27;}
</style>
<g id="Layer_1-2">
	<path class="st0" d="M154.9,283.6C154.9,283.6,154.9,283.6,154.9,283.6L154.9,283.6L154.9,283.6L154.9,283.6c0,0-0.1,0-0.2,0l0,0
		l0,0l0,0l0,0l0,0l0,0c0,0-0.1,0-0.1,0l0,0l0,0l0,0c-0.1,0-0.2-0.1-0.3-0.1l-20.7-13.1c0,0,0,0-0.1,0l0,0l0,0l0,0l0,0
		c-0.1-0.1-0.2-0.2-0.3-0.2l0,0l0,0c-0.1-0.1-0.2-0.3-0.2-0.4l0,0l0,0l0,0l0,0l0,0l0,0L110.9,176l-2.8-1.8l-20,59.1
		c0,0.1,0,0.1-0.1,0.1c-0.1,0.2-0.2,0.3-0.3,0.4s-0.3,0.2-0.5,0.2c-0.1,0-0.1,0-0.2,0l-8.2,1.2c-0.1,0-0.2,0-0.3,0
		c-0.1,0-0.1,0-0.2,0l0,0l0,0l0,0l0,0c-0.1,0-0.1,0-0.2-0.1l0,0l0,0l0,0c0,0,0,0-0.1,0c-0.1,0-0.1-0.1-0.1-0.1l-7.4-4.7
		c-0.6-0.4-0.7-1.1-0.4-1.7s1.1-0.7,1.7-0.4l6.2,3.9l16.4-48.4c0.2-0.6,0.9-1,1.5-0.8s1,0.9,0.8,1.5l-16.3,48l5.6-0.8l20-59.1
		c0.2-0.6,0.9-1,1.5-0.8c0,0,0.1,0,0.1,0c0.4-0.3,1-0.4,1.4-0.1l3.5,2.2c0,0,0,0,0.1,0l0,0l0,0c0.1,0.1,0.2,0.2,0.3,0.3l0,0l0,0
		c0.1,0.1,0.2,0.3,0.2,0.4l22.2,93.6l18.3,11.6L138.3,74.5c-0.1-0.7,0.4-1.2,1.1-1.3s1.2,0.4,1.3,1.1l15.4,206.7l6.9-1
		c0.7-0.1,1.3,0.4,1.4,1c0.1,0.7-0.4,1.3-1,1.4l-8.2,1.2c0,0,0,0,0,0C155.1,283.6,155.1,283.6,154.9,283.6L154.9,283.6z M11,268.2
		C11,268.2,11,268.2,11,268.2L11,268.2L11,268.2c-0.1,0-0.1,0-0.2,0l0,0l0,0l0,0c-0.1,0-0.1,0-0.2-0.1c-0.1,0-0.2-0.1-0.2-0.1
		l-3.9-2.5c-0.1,0-0.1-0.1-0.2-0.1c-0.1-0.1-0.2-0.3-0.3-0.4s-0.1-0.3-0.1-0.5c0-0.1,0-0.1,0-0.2L38.2,63.5c0.1-0.7,0.7-1.1,1.4-1
		c0.7,0.1,1.1,0.7,1,1.4l-32.1,200l1.7,1.1L42.4,64c0.1-0.7,0.7-1.1,1.4-1c0.7,0.1,1.1,0.7,1,1.4L12.5,265.6l41.7-6
		c0.7-0.1,1.3,0.4,1.4,1c0.1,0.7-0.4,1.3-1,1.4l-43.3,6.3C11.2,268.2,11.1,268.2,11,268.2L11,268.2z M170.7,245.2
		c-0.1,0-0.2,0-0.2,0l0,0l0,0c-0.1,0-0.2,0-0.2-0.1l0,0l0,0l0,0l0,0c-0.1,0-0.1-0.1-0.2-0.1l-3.9-2.5c-0.1-0.1-0.1-0.1-0.2-0.2
		c-0.1-0.1-0.1-0.1-0.2-0.2l-7.5-11.7c-0.4-0.6-0.2-1.3,0.4-1.7c0.2-0.2,0.5-0.2,0.8-0.2l-1.5-2.3c-0.4-0.6-0.2-1.3,0.4-1.7
		s1.3-0.2,1.7,0.4l11.3,17.7l41.4-6L183,60.5c-0.1-0.7,0.3-1.3,1-1.4c0.7-0.1,1.3,0.3,1.4,1l29.9,177.4c0,0.2,0,0.3,0,0.5
		c0,0.1,0,0.1,0,0c0-0.1,0,0,0,0l0,0l0,0l0,0c0,0.1-0.1,0.3-0.2,0.4l0,0c-0.1,0.1-0.2,0.3-0.4,0.4l0,0l0,0l0,0l0,0
		c-0.1,0.1-0.2,0.1-0.4,0.1l0,0l0,0l0,0l-43.3,6.2C170.9,245.1,170.8,245.1,170.7,245.2L170.7,245.2z M111.9,110.4
		c-0.2,0-0.4-0.1-0.6-0.2l-3.5-2.2c0,0,0,0,0,0c-0.1-0.1-0.2-0.2-0.3-0.3c-0.1-0.1-0.2-0.3-0.2-0.5c0,0,0-0.1,0-0.1l0,0l0,0
		c0-0.1,0-0.2,0-0.3l0,0l0,0c0-0.1,0-0.1,0.1-0.2l0,0c0-0.1,0.1-0.2,0.1-0.2c0.1-0.1,0.2-0.2,0.3-0.3c0.1-0.1,0.3-0.2,0.4-0.2
		c0,0,0,0,0,0l4.1-0.6c0.7-0.1,1.3,0.4,1.4,1c0.1,0.7-0.4,1.3-1,1.4l-0.8,0.1l0.7,0.5c0.6,0.3,0.7,1.1,0.4,1.7
		C112.7,110.2,112.3,110.4,111.9,110.4L111.9,110.4z M104.5,105.7c-0.2,0-0.5-0.1-0.7-0.2l-3.5-2.2c0,0,0,0-0.1,0
		c-0.1-0.1-0.2-0.2-0.3-0.3c0-0.1-0.1-0.1-0.1-0.2l0,0l0,0l0,0c0-0.1-0.1-0.2-0.1-0.3l0,0l0,0v0L94.6,70c-0.1-0.7,0.3-1.3,1-1.4
		c0.7-0.1,1.3,0.3,1.4,1l5.1,31.3l5.8-0.8l-4.8-29.2c-0.1-0.7,0.3-1.3,1-1.4s1.3,0.3,1.4,1l4.9,29.9l3,1.9c0,0,0,0,0.1,0
		c0.1,0.1,0.2,0.2,0.3,0.3l0,0c0.1,0.1,0.2,0.3,0.2,0.5c0,0.1,0,0.1,0,0.2l0,0c0,0.1,0,0.2,0,0.3c0,0.1,0,0.1-0.1,0.2l0,0l0,0l0,0
		l0,0c0,0.1-0.1,0.1-0.1,0.2l0,0l0,0c-0.1,0.1-0.2,0.2-0.3,0.3c-0.1,0.1-0.3,0.2-0.4,0.2l0,0c0,0,0,0-0.1,0l-8.2,1.2
		C104.7,105.6,104.7,105.6,104.5,105.7L104.5,105.7L104.5,105.7C104.6,105.6,104.6,105.6,104.5,105.7L104.5,105.7z M104.4,103
		l0.4,0.2l4.6-0.7l-0.4-0.2L104.4,103z M155.8,77.2C155.8,77.2,155.8,77.2,155.8,77.2C155.8,77.2,155.7,77.2,155.8,77.2l-3.3-0.2
		c-0.7,0-1.2-0.6-1.1-1.3c0-0.7,0.6-1.2,1.3-1.1l3.2,0.2l3.2-0.1l3-0.3l2.6-0.5l2-0.7l1.4-0.8c0.6-0.3,1.3-0.2,1.6,0.4
		c0.3,0.6,0.1,1.3-0.4,1.6l-1.5,0.9c0,0-0.1,0.1-0.1,0.1c-0.1,0-0.1,0-0.1,0.1l-2.2,0.7c0,0-0.1,0-0.1,0c0,0-0.1,0-0.1,0l-2.7,0.5
		c0,0-0.1,0-0.1,0c0,0,0,0-0.1,0l-3.1,0.3c0,0,0,0-0.1,0s0,0-0.1,0L155.8,77.2C155.8,77.2,155.8,77.2,155.8,77.2L155.8,77.2z
		 M155.8,68.6C155.8,68.6,155.7,68.6,155.8,68.6l-3.3-0.2c0,0,0,0,0,0c0,0,0,0,0,0L9.5,53h0l0,0c0,0,0,0,0,0l-2.9-0.5
		c0,0-0.1,0-0.1,0c0,0-0.1,0-0.1,0l-2.4-0.7c0,0-0.1,0-0.1,0c0,0-0.1,0-0.1,0l-1.3-0.6v5.3L2.5,57l0.6,0.5l1.5,0.7l2.3,0.6l2.9,0.4
		c0.6,0.1,1.1,0.7,1,1.4s-0.7,1.1-1.4,1l-2.9-0.5c0,0-0.1,0-0.1,0c0,0-0.1,0-0.1,0l-2.4-0.7c0,0-0.1,0-0.1,0s-0.1,0-0.1,0l-1.8-0.8
		c-0.1,0-0.1-0.1-0.2-0.1c-0.1,0-0.1-0.1-0.2-0.1l-1-0.9c-0.1-0.1-0.2-0.2-0.3-0.4l0,0l0,0c0-0.1-0.1-0.2-0.1-0.3l-0.2-1
		c0,0,0-0.1,0-0.1c0,0,0-0.1,0-0.1V48c0-0.1,0-0.2,0-0.3c0,0,0-0.1,0-0.1c0-0.1,0.1-0.2,0.2-0.3l0.7-0.9c0,0,0.1-0.1,0.1-0.1
		c0,0,0,0,0,0l0,0c0,0,0.1-0.1,0.1-0.1L51.7,2.8c0,0,0.1-0.1,0.1-0.1s0.1,0,0.1-0.1l1.5-0.9c0,0,0.1,0,0.1-0.1c0,0,0.1,0,0.1,0
		L55.8,1c0,0,0.1,0,0.1,0c0,0,0.1,0,0.1,0l2.7-0.5c0,0,0,0,0.1,0c0,0,0.1,0,0.1,0L62,0.1c0,0,0,0,0.1,0s0,0,0.1,0L65.4,0
		c0,0,0,0,0.1,0c0,0,0.1,0,0.1,0l3.2,0.2c0,0,0,0,0,0s0,0,0,0l143,15.3h0l0,0l0,0c0,0,0,0,0,0l2.9,0.4c0,0,0.1,0,0.1,0
		c0,0,0.1,0,0.1,0l2.4,0.7c0,0,0.1,0,0.1,0c0,0,0.1,0,0.1,0l1.8,0.8c0.1,0,0.1,0.1,0.2,0.1s0.1,0.1,0.2,0.1l1,0.9
		c0.1,0.1,0.2,0.2,0.3,0.3l0,0c0.1,0.1,0.1,0.2,0.1,0.4l0.2,1c0,0,0,0.1,0,0.1c0,0,0,0.1,0,0.1v8.6c0,0.1,0,0.3-0.1,0.4
		c0,0.1-0.1,0.2-0.2,0.3l-0.7,1c-0.4,0.5-1.1,0.7-1.7,0.3s-0.7-1.1-0.3-1.7l0.5-0.7v-5.3l-49.3,42.1c0,0-0.1,0.1-0.1,0.1
		c0,0-0.1,0-0.1,0.1l-1.5,0.9c0,0-0.1,0.1-0.1,0.1c0,0-0.1,0-0.1,0.1l-2.2,0.7c0,0-0.1,0-0.1,0c0,0-0.1,0-0.1,0l-2.7,0.5
		c0,0-0.1,0-0.1,0c0,0,0,0-0.1,0l-3.1,0.3c0,0,0,0-0.1,0s0,0-0.1,0L155.8,68.6C155.9,68.5,155.8,68.5,155.8,68.6L155.8,68.6z
		 M152.7,66l3.1,0.2l3.2-0.1l3-0.3l2.6-0.5l2-0.7l1.3-0.8l50.4-43.1l0.3-0.5l0-0.1l-0.6-0.5l-1.5-0.7l-2.3-0.6l-2.9-0.4L68.5,2.6
		l-3.2-0.2l-3.2,0l-3,0.3l-2.6,0.5l-2,0.7l-1.3,0.8L2.8,47.8l-0.3,0.5l0,0.1l0.6,0.5l1.5,0.7l2.3,0.6l2.9,0.4L152.7,66L152.7,66z
		 M138.6,56.4c-0.1,0-0.2,0-0.3,0l0,0l0,0c-0.1,0-0.1,0-0.2-0.1l0,0c-0.1,0-0.1-0.1-0.2-0.1l-15.3-9.7c0,0,0,0-0.1,0l0,0
		c-0.1-0.1-0.2-0.2-0.3-0.3c-0.1-0.1-0.2-0.3-0.2-0.5c0-0.1,0-0.1,0-0.2l0,0c0-0.1,0-0.2,0-0.3c0-0.1,0-0.1,0.1-0.2l0,0l0,0l0,0
		c0-0.1,0.1-0.1,0.1-0.2c0.1-0.1,0.2-0.2,0.3-0.3l0,0l0,0c0.1-0.1,0.3-0.2,0.5-0.2h0l8.2-1.2c0.1,0,0.1,0,0.2,0l0,0l0,0l0,0
		c0,0,0.1,0,0.1,0l0,0l0,0l0,0l0,0l0,0c0.1,0,0.2,0,0.3,0.1l0,0c0.1,0,0.1,0,0.1,0.1l15.3,9.7c0,0,0,0,0,0c0.1,0.1,0.2,0.2,0.3,0.3
		c0.1,0.1,0.1,0.3,0.2,0.5c0,0.1,0,0.1,0,0.2c0,0.1,0,0.2,0,0.3c0,0.1,0,0.1-0.1,0.2l0,0l0,0c0,0.1-0.1,0.1-0.1,0.2
		c-0.1,0.1-0.2,0.2-0.3,0.3l0,0l0,0c-0.1,0.1-0.3,0.2-0.5,0.2l0,0h0l-8.2,1.2C138.7,56.4,138.7,56.4,138.6,56.4L138.6,56.4
		L138.6,56.4L138.6,56.4L138.6,56.4z M126.7,46.3l12.2,7.7l4.6-0.7l-12.2-7.7L126.7,46.3z M45.2,46.5L45.2,46.5L45.2,46.5L45.2,46.5
		L45.2,46.5c-0.1,0-0.1,0-0.2,0l0,0l0,0l0,0l0,0c-0.1,0-0.2,0-0.3-0.1l0,0l0,0l0,0c0,0-0.1,0-0.1-0.1l-3.9-2.5c0,0,0,0,0,0
		c-0.1-0.1-0.2-0.2-0.3-0.3c-0.1-0.1-0.2-0.3-0.2-0.5c0-0.1,0-0.1,0-0.2l0,0c0-0.1,0-0.1,0-0.2l0,0l0,0c0-0.1,0-0.2,0.1-0.3
		c0,0,0-0.1,0.1-0.1c0.1-0.1,0.2-0.3,0.3-0.3c0.1-0.1,0.3-0.2,0.5-0.2c0,0,0,0,0,0L73.3,37c0.1,0,0.1,0,0.2,0l0,0c0.1,0,0.2,0,0.3,0
		l0,0l0,0c0.1,0,0.1,0,0.2,0l0,0l0,0l0,0c0.1,0,0.1,0.1,0.2,0.1l3.9,2.5c0,0,0,0,0.1,0c0.1,0.1,0.2,0.2,0.3,0.3
		c0.1,0.1,0.2,0.3,0.2,0.5c0,0.1,0,0.1,0,0.2l0,0c0,0.1,0,0.2,0,0.3l0,0l0,0c0,0,0,0.1,0,0.1l0,0l0,0l0,0l0,0l0,0
		c0,0.1-0.1,0.2-0.1,0.3l0,0c-0.1,0.1-0.2,0.2-0.3,0.3c-0.1,0.1-0.3,0.2-0.5,0.2l0,0c0,0,0,0-0.1,0l-32.1,4.6
		C45.4,46.4,45.3,46.4,45.2,46.5L45.2,46.5z M44.7,43.5l0.8,0.5L74,39.9l-0.8-0.5C73.2,39.4,44.7,43.5,44.7,43.5z M147.7,31.7
		C147.7,31.7,147.7,31.7,147.7,31.7L147.7,31.7L147.7,31.7L147.7,31.7L147.7,31.7L147.7,31.7L147.7,31.7c-0.1,0-0.1,0-0.2,0l0,0l0,0
		l0,0l0,0l0,0c-0.1,0-0.2,0-0.3-0.1l0,0c-0.1,0-0.1,0-0.1-0.1l-3.9-2.5c0,0,0,0,0,0c-0.1-0.1-0.2-0.2-0.3-0.3
		c-0.1-0.1-0.1-0.3-0.2-0.4c0-0.1,0-0.2,0-0.3l0,0c0,0,0-0.1,0-0.1l0,0l0,0c0-0.1,0.1-0.2,0.1-0.3l0,0c0-0.1,0.1-0.1,0.1-0.2
		c0.1-0.1,0.2-0.2,0.3-0.3c0.1-0.1,0.3-0.1,0.4-0.2c0,0,0,0,0.1,0l32.1-4.6l0,0c0,0,0.1,0,0.1,0l0,0c0.1,0,0.2,0,0.3,0l0,0l0,0l0,0
		c0.1,0,0.2,0,0.2,0.1l0,0l0,0l0,0c0.1,0,0.1,0,0.1,0.1l3.9,2.5c0,0,0,0,0.1,0c0.1,0.1,0.2,0.2,0.3,0.3c0.1,0.1,0.2,0.3,0.2,0.5
		c0,0,0,0.1,0,0.1l0,0l0,0c0,0.1,0,0.2,0,0.4l0,0l0,0c0,0.1,0,0.1-0.1,0.2l0,0l0,0l0,0c0,0.1-0.1,0.1-0.1,0.2
		c-0.1,0.1-0.2,0.2-0.4,0.3c-0.1,0.1-0.3,0.1-0.4,0.2c0,0,0,0,0,0l-32.1,4.6C147.9,31.7,147.8,31.7,147.7,31.7L147.7,31.7z
		 M147.2,28.7l0.8,0.5l28.4-4.1l-0.8-0.5L147.2,28.7z M89.7,25.5c-0.1,0-0.2,0-0.3,0l0,0l0,0c-0.1,0-0.1,0-0.2-0.1l0,0l0,0
		c-0.1,0-0.1-0.1-0.2-0.1l-15.3-9.7c0,0,0,0-0.1,0c-0.1-0.1-0.2-0.2-0.3-0.3c-0.1-0.1-0.2-0.3-0.2-0.5c0-0.1,0-0.1,0-0.2l0,0
		c0-0.1,0-0.2,0-0.3c0-0.1,0.1-0.2,0.1-0.2l0,0l0,0c0-0.1,0.1-0.1,0.1-0.1c0.1-0.1,0.2-0.3,0.3-0.4s0.3-0.1,0.5-0.2l0,0h0l8.2-1.2
		c0.1,0,0.1,0,0.2,0l0,0l0,0c0.1,0,0.2,0,0.3,0l0,0l0,0c0.1,0,0.1,0,0.2,0.1l0,0c0.1,0,0.1,0.1,0.2,0.1L98.5,22c0,0,0,0,0.1,0
		c0.1,0.1,0.2,0.2,0.3,0.3c0.1,0.1,0.2,0.3,0.2,0.5c0,0.1,0,0.1,0,0.2l0,0c0,0.1,0,0.2,0,0.3c0,0.1,0,0.2-0.1,0.2l0,0
		c0,0.1-0.1,0.1-0.1,0.2c-0.1,0.1-0.2,0.2-0.3,0.3c-0.1,0.1-0.3,0.1-0.5,0.2l0,0l0,0h0l-8.2,1.2C89.8,25.4,89.7,25.4,89.7,25.5
		L89.7,25.5L89.7,25.5L89.7,25.5L89.7,25.5z M77.7,15.3L89.9,23l4.6-0.7l-12.2-7.7L77.7,15.3z"/>
	<path class="st0" d="M163.1,282.4c-0.6,0-1.1-0.5-1.2-1.1l-3.9-51.5l0,0l-0.3-4.1l0,0L146.6,76.4l-7.4-0.8l0,0l-18.8-2l-6.2,29.8
		c0,0,0,0,0,0.1l-0.6,3.1l0,0l-0.6,2.8c-0.1,0.7-0.8,1.1-1.4,0.9s-1.1-0.8-0.9-1.4l0.6-2.8l0,0l0.4-2.1c-0.1-0.2-0.2-0.3-0.2-0.5
		c-0.1-0.5,0.2-1,0.6-1.2l6-28.9l-13.9-1.5l0,0l-8.6-0.9l0,0L87.1,70l13.7,33.8l3.6-0.5c0.7-0.1,1.3,0.4,1.4,1s-0.4,1.3-1,1.4
		l-3,0.4l0.2,0.6l6.3-0.9c0,0,0.1,0,0.1,0c0.1,0,0.3,0,0.4,0c0.2,0.1,0.3,0.1,0.4,0.2c0.1,0.1,0.2,0.3,0.3,0.4
		c0.1,0.1,0.1,0.3,0.1,0.4c0,0,0,0.1,0,0.1v66c0,0.1,0,0.2,0,0.3l0,0c-0.1,0.2-0.1,0.3-0.2,0.5c-0.1,0.1-0.3,0.2-0.4,0.3
		c-0.1,0.1-0.2,0.1-0.3,0.1l-1.2,0.2l0,0l-5.5,0.8l-5.2,9.7l0,0l-24.3,45.1l0,0l-16.9,31.4c-0.3,0.6-1,0.8-1.6,0.5
		c-0.6-0.3-0.8-1-0.5-1.6l16.9-31.4l0,0l24.3-45.1l0,0l5.5-10.2c0,0,0,0,0-0.1c0.1-0.1,0.2-0.3,0.3-0.4c0.1-0.1,0.3-0.2,0.4-0.2
		c0,0,0.1,0,0.1,0l6-0.9l0,0l0.2,0v-63.6l-5.9,0.8c-0.1,0-0.2,0-0.3,0c-0.2,0-0.3-0.1-0.5-0.2c-0.2-0.1-0.3-0.2-0.4-0.3
		c-0.1-0.1-0.1-0.2-0.1-0.3l-1.2-2.8c0,0,0,0,0-0.1L84.4,69.7l-40.9-4.4l0,0l-4.2-0.4l0,0L9.5,61.7c-0.7-0.1-1.1-0.7-1.1-1.3
		c0.1-0.7,0.7-1.1,1.3-1.1l29.8,3.2l0,0l4.2,0.5l0,0l41.6,4.5c0,0,0,0,0.1,0l10.5,1.1l0,0l23.8,2.6c0,0,0,0,0,0l19.8,2.1l0,0
		l8.4,0.9c0,0,0,0,0,0l4.8,0.5c0.7,0.1,1.1,0.7,1.1,1.3c-0.1,0.7-0.7,1.1-1.3,1.1l-3.4-0.4l11.1,148.8l0,0l0.3,4.1l0,0l3.9,51.5
		C164.4,281.8,163.9,282.3,163.1,282.4C163.2,282.4,163.2,282.4,163.1,282.4L163.1,282.4z M168.7,74.7c-0.3,0-0.7-0.1-0.9-0.4
		c-0.4-0.5-0.4-1.3,0.1-1.7l50.6-43.2c0.5-0.4,1.3-0.4,1.7,0.1c0.4,0.5,0.4,1.3-0.1,1.7l-50.6,43.2C169.3,74.6,169,74.7,168.7,74.7z
		"/>
</g>
</svg>
