<svg width="148" height="148" viewBox="0 0 148 148" fill="none" xmlns="http://www.w3.org/2000/svg">
<path d="M98.6642 58.5648L94.1502 52.8984L92.8444 51.2593L94.4835 49.9534L110.963 36.8248L112.602 35.519L113.908 37.1581L118.422 42.8245L119.728 44.4636L118.089 45.7695L101.609 58.8981L99.97 60.2039L98.6642 58.5648ZM101.765 118.089L88.6369 101.61L87.3311 99.9706L88.9702 98.6647L94.6365 94.1506L96.2756 92.8448L97.5815 94.4839L110.71 110.964L112.016 112.603L110.377 113.909L104.71 118.423L103.071 119.729L101.765 118.089ZM49.9578 53.052L36.8294 36.5723L35.5236 34.9331L37.1627 33.6273L42.829 29.1131L44.4682 27.8073L45.774 29.4465L58.9023 45.9262L60.2082 47.5654L58.569 48.8712L52.9027 53.3853L51.2636 54.6912L49.9578 53.052ZM33.6312 110.378L29.1171 104.711L27.8113 103.072L29.4505 101.766L45.93 88.6378L47.5692 87.332L48.875 88.9712L53.389 94.6375L54.6949 96.2767L53.0557 97.5825L36.5761 110.711L34.937 112.017L33.6312 110.378ZM130.606 11.4989C128.534 10.9565 126.4 10.7148 124.26 10.7806C95.3841 11.6933 66.5759 8.43265 38.6348 1.08929C26.7885 -2.02344 14.6166 5.08302 11.5015 16.9314C10.9568 19.0045 10.7152 21.1393 10.783 23.2796C11.6937 52.1532 8.43284 80.9638 1.09158 108.906C-0.416613 114.645 0.401869 120.628 3.39304 125.752C6.38628 130.878 11.1935 134.531 16.9336 136.037C19.0044 136.584 21.1391 136.825 23.2817 136.756C52.1549 135.845 80.9631 139.105 108.904 146.447C114.644 147.955 120.628 147.139 125.753 144.147C130.878 141.156 134.531 136.347 136.04 130.607C136.584 128.536 136.826 126.401 136.758 124.261C135.847 95.3851 139.108 66.5765 146.449 38.6348C149.562 26.7862 142.456 14.6142 130.608 11.4991L130.606 11.4989Z" fill="#4C9EC9"/>
</svg>
