<svg width="182" height="205" viewBox="0 0 182 205" fill="none" xmlns="http://www.w3.org/2000/svg">
<path d="M31.4606 112.775C36.3373 114.511 38.8692 119.158 37.6833 124.197C37.1078 126.65 37.4027 129.092 38.5218 131.147C39.6409 133.201 41.5327 134.773 43.906 135.619C48.7789 137.348 51.3185 142.01 50.1249 147.034C48.9343 152.076 51.4701 156.73 56.3476 158.456C61.2244 160.192 63.7601 164.847 62.5742 169.886C61.3798 174.92 63.9155 179.574 68.797 181.308C73.6699 183.036 76.2056 187.691 75.0158 192.723C73.8214 197.757 76.3571 202.411 81.2386 204.145C86.6203 206.056 93.2119 203.881 96.936 199.241C97.3037 198.884 97.6326 198.484 97.9182 198.049C98.0938 197.794 98.2452 197.534 98.3943 197.275C99.6819 194.98 101.646 193.085 103.947 191.78C103.958 191.773 103.972 191.765 103.984 191.759C106.384 190.451 109.129 189.777 111.843 189.942C114.631 190.115 117.453 189.402 119.902 188.022L119.933 188.006C122.321 186.698 124.362 184.765 125.685 182.407C126.973 180.111 128.937 178.217 131.238 176.911C131.249 176.905 131.261 176.898 131.273 176.892C133.673 175.584 136.418 174.91 139.132 175.075C141.918 175.25 144.742 174.536 147.191 173.155L147.222 173.139C149.61 171.831 151.653 169.897 152.974 167.54C154.262 165.244 156.226 163.35 158.526 162.044C158.538 162.038 158.552 162.03 158.564 162.024C160.964 160.716 163.707 160.044 166.423 160.207C166.728 160.228 167.022 160.236 167.332 160.227C167.813 160.225 168.303 160.17 168.785 160.063C173.473 159.597 177.959 156.776 180.268 152.67C183.576 146.785 181.34 140.269 175.284 138.106C170.411 136.377 167.875 131.723 169.061 126.684C170.255 121.65 167.72 116.995 162.838 115.262C157.965 113.533 155.43 108.879 156.619 103.847C157.81 98.8055 155.278 94.1581 150.397 92.4248C145.52 90.6889 142.988 86.0415 144.174 81.0027C144.748 78.5471 144.459 76.105 143.339 74.0485C142.218 71.9919 140.325 70.4237 137.952 69.577C133.079 67.8482 130.54 63.1867 131.733 58.162C132.924 53.1206 130.388 48.4662 125.511 46.7399C120.634 45.004 118.098 40.3496 119.284 35.3108C120.478 30.2765 117.943 25.6221 113.061 23.8887C108.188 22.1599 105.653 17.5055 106.842 12.4737C108.037 7.43942 105.501 2.78502 100.62 1.05166C95.2452 -0.857646 88.6583 1.31467 84.9314 5.94459C84.559 6.30382 84.2254 6.70627 83.9377 7.1481C83.762 7.40319 83.613 7.66219 83.4616 7.92248C82.1468 10.2634 80.1308 12.1864 77.7727 13.4925C75.3966 14.7655 72.6867 15.4203 70.0129 15.2554C67.3137 15.089 64.5803 15.7566 62.1858 17.052L62.1551 17.0686C59.6674 18.378 57.5348 20.3614 56.168 22.792C54.8556 25.1317 52.842 27.0533 50.4815 28.3607C48.1054 29.6338 45.3979 30.2873 42.7217 30.1237C40.0249 29.9559 37.2938 30.6223 34.8993 31.9176L34.8687 31.9343C32.381 33.2436 30.2507 35.2257 28.8816 37.6576C27.5691 39.9973 25.5532 41.9202 23.1927 43.2276C20.8166 44.5007 18.1091 45.1542 15.4329 44.9906C15.1305 44.9683 14.8336 44.9615 14.5228 44.9683C14.0424 44.9725 13.5555 45.0263 13.0753 45.1316C8.38375 45.5969 3.89744 48.4181 1.58674 52.5247C-1.7218 58.4104 0.515868 64.9285 6.57221 67.0916C11.4451 68.8204 13.9808 73.4748 12.7949 78.5137C11.6005 83.548 14.1362 88.2024 19.0177 89.9358C23.8906 91.6646 26.4263 96.319 25.2366 101.351C24.046 106.392 26.5778 111.039 31.4593 112.773L31.4606 112.775Z" fill="#C68337"/>
</svg>
