<svg width="256" height="87" viewBox="0 0 256 87" fill="none" xmlns="http://www.w3.org/2000/svg">
<path d="M255.5 43.394C255.5 67.142 240.489 86.394 221.987 86.394C212.356 86.394 203.684 81.1851 197.571 72.8463C191.458 81.1851 182.777 86.394 173.156 86.394C163.534 86.394 155.341 81.4778 149.264 73.5443C143.188 81.4778 134.723 86.394 125.373 86.394C116.023 86.394 108.282 81.8906 102.269 74.5426C96.255 81.8906 88.1255 86.394 79.164 86.394C70.2025 86.394 62.5432 82.1458 56.5839 75.1731C50.6246 82.1458 42.7031 86.394 34.0038 86.394C15.5021 86.394 0.5 67.142 0.5 43.394C0.5 19.6461 15.5021 0.394043 34.0038 0.394043C42.7031 0.394043 50.6246 4.64225 56.5839 11.615C62.5432 4.64225 70.4647 0.394043 79.164 0.394043C87.8632 0.394043 96.255 4.89745 102.269 12.2455C108.282 4.89745 116.412 0.394043 125.373 0.394043C134.335 0.394043 143.188 5.31026 149.264 13.2438C155.341 5.31026 163.796 0.394043 173.156 0.394043C182.515 0.394043 191.458 5.60298 197.571 13.9418C203.684 5.60298 212.356 0.394043 221.987 0.394043C240.489 0.394043 255.5 19.6461 255.5 43.394Z" fill="#293F27"/>
</svg>
