<svg width="214" height="384" viewBox="0 0 214 384" fill="none" xmlns="http://www.w3.org/2000/svg">
<g clip-path="url(#clip0_319_212)">
<path d="M28.695 308.154L27.3804 309.434L25.7327 310.45L23.8689 311.144L21.8779 311.465L19.8691 311.356L17.9213 310.771L16.149 309.639L14.6157 307.916L13.4282 305.549L12.5357 302.635L11.9509 299.272L11.6 295.601L11.4728 291.715L11.5364 287.742L11.7347 283.793L12.0399 279.991L12.4111 276.414L12.8332 273.041L13.2655 269.816L13.6978 266.688L14.0842 263.606L14.4097 260.519L14.636 257.378L14.7505 254.122L14.7327 250.726L14.6081 247.28L14.4173 243.856L14.2292 240.577L14.0588 237.541L13.9597 234.834L13.9953 232.571L14.1656 230.851L14.5343 229.772L15.0047 229.312L15.5718 229.343L16.327 229.866L17.1839 230.907L18.1196 232.42L19.0655 234.372L20.0038 236.729L20.904 239.434L21.7507 242.422L22.5161 245.583L23.1823 248.826L23.7595 252.063L24.202 255.199L24.5071 258.141L24.6597 260.787L24.652 263.083L24.4893 265.058L24.2096 266.805L23.8409 268.377L23.6959 268.836L18.2468 268.173L17.8145 271.235L22.7144 271.842L22.3712 272.837L21.8397 274.472L21.3464 276.287L20.8963 278.221L20.5175 280.216L20.2276 282.229L20.075 284.175L20.0572 286.002L20.22 287.658L20.5785 289.069L21.1557 290.197L21.9211 291.082L22.8136 291.802L23.8053 292.427L24.8504 293.024L25.8929 293.677L26.9202 294.46L27.8763 295.45L28.7408 296.705L29.4706 298.175L30.0096 299.805L30.3428 301.535L30.4165 303.298L30.1902 305.033L29.6333 306.669L28.695 308.154Z" fill="#293F27"/>
<path d="M119.05 307.855L120.23 310.185L121.753 312.154L123.546 313.79L125.555 315.116L127.744 316.173L130.032 316.984L132.364 317.581L134.706 317.997L136.995 318.262L139.184 318.415L141.218 318.512L143.074 318.594L144.686 318.711L145.993 318.908L146.965 319.224L147.542 319.673L147.75 320.293L147.578 321.102L147.003 322.056L146.011 323.1L144.605 324.156L142.805 325.192L140.598 326.146L137.976 326.965L134.968 327.613L131.627 328.067L128.024 328.351L124.24 328.43L120.35 328.328L116.411 328.042L112.531 327.56L110.242 327.146L115.528 318.288L112.602 316.798L106.855 326.427L105.144 326.016L101.757 324.955L98.5961 323.679L95.6948 322.194L93.063 320.492L90.7415 318.553L88.7403 316.387L87.0926 313.968L85.7958 311.312L84.8575 308.445L84.2447 305.413L83.9573 302.26L83.9573 299.04L84.2447 295.792L84.3438 295.193L94.9548 300.586L96.567 297.884L84.949 291.968L85.5873 289.406L86.6247 286.357L87.8656 283.474L89.2997 280.81L90.9195 278.42L92.7121 276.353L94.6497 274.664L96.7119 273.403L98.8911 272.618L101.18 272.347L103.514 272.572L105.828 273.266L108.07 274.406L110.161 275.965L112.042 277.907L113.657 280.216L114.936 282.862L115.836 285.808L116.421 288.977L116.807 292.279L117.08 295.642L117.339 298.966L117.692 302.163L118.224 305.156L119.05 307.855Z" fill="#293F27"/>
<path d="M191.418 328.266L187.924 328.927L183.942 329.409L180.672 329.664L178.978 322.184L175.701 322.814L177.295 329.838L175.215 329.93L170.808 329.996L166.613 329.955L162.811 329.815L159.549 329.601L156.991 329.315L155.135 328.971L153.93 328.557L153.352 328.108L153.281 327.626L153.65 327.006L154.507 326.24L155.786 325.363L157.459 324.373L159.46 323.317L161.756 322.227L164.314 321.158L167.081 320.135L170.025 319.214L173.097 318.433L176.268 317.834L179.474 317.443L182.681 317.26L185.788 317.28L188.753 317.492L191.491 317.887L193.932 318.446L196.005 319.16L197.642 320.012L198.779 320.995L199.399 322.051L199.509 323.146L199.084 324.273L198.092 325.391L196.498 326.46L194.273 327.435L191.418 328.266Z" fill="#293F27"/>
<path d="M117.692 223.368L118.086 225.174L118.186 227.093L118.043 229.101L117.746 231.19L117.339 233.336L116.899 235.523L116.502 237.727L116.205 239.955L116.07 242.167L116.06 244.363L116.159 246.53L116.339 248.657L116.556 250.75L116.772 252.778L116.97 254.755L117.115 256.664L117.179 258.491L117.115 260.215L116.924 261.79L116.584 263.19L116.078 264.384L115.386 265.333L114.483 266.015L113.349 266.41L111.963 266.497L110.349 266.326L108.556 265.974L106.692 265.512L103.72 252.382L100.442 253.015L103.064 264.588L102.621 264.489L100.63 264.093L98.6952 263.882L96.8822 263.889L95.1989 264.06L93.6579 264.318L92.2721 264.568L91.0363 264.734L89.9836 264.734L89.1013 264.502L88.3791 263.956L87.8121 263.024L87.4154 261.744L87.2171 260.187L87.2273 258.445L87.479 256.59L87.985 254.709L88.7504 252.862L89.7955 251.145L91.1355 249.596L92.6942 248.19L94.4157 246.897L96.2261 245.665L98.0264 244.45L99.7657 243.215L101.352 241.909L102.72 240.498L103.793 238.944L104.566 237.301L105.044 235.632L105.233 234.01L105.133 232.474L104.747 231.114L104.071 229.953L101.927 228.611L100.523 228.394L99.0079 228.381L97.4416 228.473L95.8829 228.606L94.4055 228.693L93.0629 228.652L91.9466 228.415L91.0745 227.927L90.4515 227.22L90.0726 226.304L89.948 225.246L90.0726 224.059L90.4439 222.804L91.0567 221.531L91.939 220.273L93.0629 219.084L94.4055 217.987L95.9464 217.005L97.6399 216.173L99.4682 215.512L101.388 215.053L103.369 214.826L105.388 214.849L107.397 215.15L109.367 215.703L111.251 216.505L112.998 217.525L114.565 218.734L115.9 220.133L116.952 221.689L117.692 223.368Z" fill="#293F27"/>
<path d="M104.775 139.061L105.991 138.684L108.892 138L111.737 137.536L114.44 137.291L116.864 137.247L118.933 137.418L120.637 137.798L121.952 138.38L122.908 139.179L123.51 140.194L123.78 141.455L123.709 142.975L123.276 144.761L122.511 146.8L121.502 149.053L120.322 151.466L119.096 153.982L117.909 156.546L116.853 159.108L116.035 161.608L115.557 164.009L115.485 166.262L115.79 168.41L116.403 170.518L117.268 172.643L118.321 174.853L119.503 177.208L120.736 179.787L121.98 182.639L123.159 185.811L124.24 189.197L125.158 192.664L125.862 196.093L126.312 199.338L126.447 202.27L126.221 204.75L125.59 206.646L124.555 207.858L123.996 208.097L120.889 194.34L117.611 194.97L120.619 208.273L119.699 208.044L117.789 207.128L115.918 205.834L114.178 204.212L112.683 202.324L111.486 200.231L110.547 197.968L109.81 195.557L109.179 193.026L108.584 190.424L107.964 187.765L107.224 185.086L106.314 182.423L105.152 179.8L103.801 177.215L102.324 174.666L100.765 172.133L99.1887 169.615L97.6681 167.094L96.262 164.573L95.0186 162.032L94.0091 159.475L93.2615 156.919L92.8114 154.411L92.6868 151.969L92.9284 149.65L93.559 147.461L94.6143 145.448L96.1272 143.641L98.1182 142.062L100.486 140.704L101.622 140.227L104.503 152.969L107.783 152.331L104.775 139.061Z" fill="#293F27"/>
<path d="M122.907 123.508L119.889 124.763L116.467 125.909L112.764 126.899L108.917 127.69L105.072 128.246L101.36 128.534L97.9196 128.504L94.8937 128.126L92.3789 127.373L90.3523 126.241L88.7224 124.73L87.4256 122.835L86.4161 120.559L85.6227 117.892L84.9743 114.856L84.4352 111.45L83.9292 107.677L83.5071 103.627L83.2096 99.3845L83.0927 95.0343L83.1995 90.6587L83.5885 86.3442L84.3081 82.1803L85.399 78.2588L86.8941 74.6383L88.7325 71.3521L90.7591 68.5354L93.5511 80.8587L96.8211 80.2259L93.5053 65.5579L95.4963 63.7821L97.8916 62.0982L100.234 60.8607L102.415 60.1132L104.386 59.8555L106.107 60.029L107.575 60.5826L108.782 61.4603L109.71 62.6084L110.359 63.9658L110.692 65.4915L110.702 67.1142L110.387 68.8033L109.817 70.5535L109.087 72.3803L108.279 74.3016L107.503 76.3197L106.827 78.4527L106.369 80.7158L106.214 83.109L106.43 85.6451L107.007 88.2654L107.908 90.9215L109.08 93.5571L110.494 96.1238L112.116 98.5578L113.909 100.816L115.826 102.839L117.827 104.584L119.861 106.092L121.87 107.398L123.79 108.57L125.572 109.649L127.159 110.692L128.481 111.728L128.987 112.277L116.889 115.999L117.944 118.928L130.401 115.101L130.447 115.272L130.33 116.599L129.798 117.984L128.814 119.385L127.357 120.791L125.392 122.174L122.907 123.508Z" fill="#293F27"/>
<path d="M27.2636 84.2468L27.9578 85.5429L28.3443 87.0381L28.3545 90.7835L28.0468 93.067L27.5967 95.6746L27.0297 98.6317L26.4067 101.969L25.7405 105.676L25.0464 109.689L24.3369 113.915L23.6071 118.249L22.8596 122.605L22.0942 126.878L21.3085 130.966L20.5177 134.79L19.7065 138.25L18.8954 141.319L18.0944 143.963L17.3112 146.149L16.5357 147.859L15.8135 149.053L15.1651 149.703L14.6438 149.803L14.1404 149.428L13.6267 148.445L13.1589 146.853L12.752 144.651L12.4113 141.865L12.1392 138.472L11.9511 134.482L11.8341 129.889L11.7985 124.73L11.8697 119.16L12.0579 113.386L12.4011 107.61L12.9046 102.028L13.6089 96.8278L14.5167 92.2225L15.6711 88.4107L17.0493 85.5327L18.5979 83.5528L20.238 82.3384L21.8145 81.8179L19.2921 96.366L22.5977 96.8559L25.1023 82.3919L26.2465 83.137L27.2636 84.2468Z" fill="#293F27"/>
<path d="M107.17 10.7689L109.08 10.8939L112.403 11.269L115.503 11.792L118.214 12.4783L120.367 13.3203L121.817 14.2924L122.475 15.4023L122.483 16.6627L121.997 18.1119L121.158 19.7167L120.151 21.4772L119.132 23.378L118.285 25.4089L117.789 27.5623L117.746 29.8177L118.125 32.1421L118.781 34.4792L119.61 36.806L120.484 39.0691L121.303 41.22L121.951 43.2356L122.302 45.0599L122.277 46.6596L121.88 48.0501L121.15 49.2569L120.088 50.303L118.727 51.1986L117.087 51.9563L115.178 52.5967L114.115 52.8621L112.998 43.927L109.665 44.2817L110.827 53.5357L110.71 53.5561L108.287 53.8648L105.881 54.0357L103.595 54.0408L101.548 53.8571L99.8751 53.4617L98.6495 52.8493L97.9909 52.0099L97.9095 50.9L98.3164 49.4942L99.0538 47.8332L99.9743 45.9478L100.892 43.8735L101.658 41.6308L102.08 39.2426L102.001 36.7525L101.307 34.173L100.091 31.568L98.5147 28.9809L96.7221 26.4448L94.876 23.998L93.1266 21.6889L91.6136 19.5636L90.505 17.6654L89.9125 16.0325L89.8489 14.6674L90.2634 13.5346L91.1457 12.6085L92.5061 11.8711L94.3242 11.3098L96.6051 10.9194L99.2877 10.6872L102.359 10.6082L103.773 10.6311L104.981 20.2908L108.315 19.9387L107.17 10.7689Z" fill="#293F27"/>
<path d="M29.5952 64.0728L26.4524 64.481L27.5788 71.8138L26.6049 71.8138C23.4239 69.6221 20.6065 67.0171 18.2265 64.0855C4.35564 47.0013 8.10116 22.7654 26.6049 9.9497L27.5788 9.9497L26.4524 17.2927L29.5952 17.7009L30.7929 9.9497L68.787 9.94971L69.9847 17.7009L73.1377 17.2927L71.9935 9.94971L72.975 9.94971C76.156 12.1541 78.9734 14.7591 81.3534 17.6881C95.2243 34.7775 91.4788 59.0108 72.975 71.8163L71.9935 71.8163L73.1377 64.4836L69.9847 64.0753L68.787 71.8163L30.7929 71.8163L29.5952 64.0753L29.5952 64.0728Z" fill="#293F27"/>
<path d="M73.1226 294.988L84.8143 219.354C85.1474 217.209 86.4442 215.295 88.3716 214.075C101.406 205.814 104.729 189.362 95.794 177.325C93.7953 174.641 91.2805 172.316 88.3716 170.477C86.4442 169.25 85.1474 167.334 84.8143 165.185L73.1226 89.5564C71.9427 81.9353 64.8789 76.2788 56.5386 76.2788L54.1153 76.2788C45.7827 76.2788 38.7214 81.9353 37.5415 89.5564L25.8397 165.185C25.5066 167.334 24.2199 169.25 22.2925 170.477C9.25824 178.731 5.93482 195.182 14.8701 207.225C16.8586 209.909 19.381 212.228 22.2925 214.075C24.2199 215.295 25.5066 217.209 25.8397 219.354L37.5415 294.988C38.7214 302.604 45.7826 308.271 54.1153 308.271L56.5386 308.271C64.8789 308.271 71.9427 302.604 73.1226 294.988ZM38.3959 127.743L43.1356 97.1238L46.1259 97.5193L41.3887 128.139L38.3959 127.743ZM64.5382 97.5193L67.5285 97.1238L72.258 127.743L69.2754 128.139L64.5382 97.5193ZM45.2792 139.712L45.2792 136.928L65.3849 136.928L65.3849 139.712L45.2792 139.712ZM32.7052 164.545L35.0725 149.236L38.0552 149.629L35.6853 164.94L32.7052 164.545ZM72.6089 149.629L75.5891 149.236L77.9589 164.545L74.9686 164.94L72.6089 149.629ZM32.7052 219.995L35.6853 219.609L38.0552 234.918L35.0725 235.313L32.7052 219.995ZM72.6089 234.918L74.9686 219.609L77.9589 219.995L75.5891 235.313L72.6089 234.918ZM45.2792 247.614L45.2792 244.833L65.3849 244.833L65.3849 247.614L45.2792 247.614ZM38.3959 256.801L41.3887 256.406L46.1259 287.028L43.1356 287.421L38.3959 256.801ZM64.5382 287.028L69.2754 256.406L72.258 256.801L67.5285 287.421L64.5382 287.028Z" fill="#293F27"/>
<path d="M87.7129 329.976L76.606 328.511L77.0561 325.6L87.7129 327.006L87.7129 324.411C62.3843 316.981 35.1791 316.981 9.85056 324.411L9.85056 327.006L20.515 325.6L20.965 328.511L9.85056 329.976L9.85056 363.634L20.965 365.099L20.515 368.007L9.85056 366.606L9.85056 369.201C35.1791 376.631 62.3843 376.631 87.7129 369.201L87.7129 366.606L77.0561 368.007L76.606 365.099L87.7129 363.634L87.7129 329.976Z" fill="#293F27"/>
<path d="M175.457 159.483L192.707 159.483C197.337 159.483 201.085 156.023 201.085 151.755L201.085 147.882L204.101 147.882L204.101 132.42L201.085 132.42L201.085 122.878L184.339 122.878L184.339 119.512L201.085 119.512L201.085 110.713L204.101 110.713L204.101 79.7768L201.085 79.7768L201.085 68.1755C161.217 82.3104 133.374 115.989 129.112 155.232C128.878 157.358 130.564 159.251 132.86 159.47C132.995 159.475 133.14 159.483 133.275 159.483L146.578 159.483L146.578 149.532L149.759 149.532L149.759 159.483L172.278 159.483L172.278 152.066L175.457 152.066L175.457 159.483ZM179.215 106.658C179.215 104.523 181.097 102.793 183.411 102.793C185.724 102.793 187.591 104.523 187.591 106.658C187.591 108.794 185.717 110.526 183.411 110.526C181.104 110.526 179.215 108.797 179.215 106.658ZM179.215 137.589C179.215 135.461 181.097 133.726 183.411 133.726C185.724 133.726 187.591 135.461 187.591 137.589C187.591 139.717 185.717 141.455 183.411 141.455C181.104 141.455 179.215 139.725 179.215 137.589Z" fill="#293F27"/>
<path d="M201.741 15.5297C201.985 13.3993 200.299 11.5061 198.003 11.2943C197.868 11.2816 197.724 11.2739 197.581 11.2739L184.275 11.2739L184.275 21.2321L181.096 21.2321L181.096 11.2739L158.578 11.2739L158.578 18.6909L155.397 18.6909L155.397 11.2739L138.157 11.2739C133.526 11.2739 129.781 14.7387 129.781 19.0098L129.781 22.8752L126.762 22.8752L126.762 38.3367L129.781 38.3367L129.781 47.879L146.525 47.879L146.525 51.2494L129.781 51.2494L129.781 60.0467L126.762 60.0467L126.762 90.98L129.781 90.98L129.781 102.581C169.646 88.4465 197.49 54.7729 201.741 15.5297ZM143.265 33.1676C143.265 31.0321 145.136 29.3022 147.453 29.3022C149.769 29.3022 151.641 31.0321 151.641 33.1676C151.641 35.3031 149.767 37.0355 147.453 37.0355C145.139 37.0355 143.265 35.3057 143.265 33.1676ZM143.265 64.1034C143.265 61.9679 145.136 60.2381 147.453 60.2381C149.769 60.2381 151.641 61.9679 151.641 64.1034C151.641 66.239 149.767 67.9663 147.453 67.9663C145.139 67.9663 143.265 66.2339 143.265 64.1034Z" fill="#293F27"/>
<path d="M201.085 243.833L204.101 243.833L204.101 212.904L201.085 212.904L201.085 204.097L184.339 204.097L184.339 200.732L201.085 200.732L201.085 191.189L204.101 191.189L204.101 175.723L201.085 175.723L201.085 171.857C201.085 167.586 197.337 164.126 192.707 164.126L175.457 164.126L175.457 171.546L172.278 171.546L172.278 164.126L149.759 164.126L149.759 174.08L146.578 174.08L146.578 164.126L133.275 164.126C130.968 164.126 129.094 165.856 129.094 167.989C129.094 168.119 129.094 168.247 129.112 168.377C133.374 207.62 161.217 241.294 201.085 255.429L201.085 243.833ZM179.215 186.023C179.215 183.879 181.097 182.15 183.411 182.15C185.724 182.15 187.591 183.879 187.591 186.023C187.591 188.166 185.717 189.888 183.411 189.888C181.104 189.888 179.215 188.156 179.215 186.023ZM179.215 216.951C179.215 214.818 181.097 213.086 183.411 213.086C185.724 213.086 187.591 214.818 187.591 216.951C187.591 219.084 185.717 220.816 183.411 220.816C181.104 220.816 179.215 219.084 179.215 216.951Z" fill="#293F27"/>
<path d="M184.275 312.34L197.581 312.34C199.895 312.34 201.769 310.608 201.769 308.467C201.769 308.337 201.759 308.21 201.741 308.087C197.49 268.844 169.646 235.163 129.781 221.031L129.781 232.634L126.762 232.634L126.762 263.563L129.781 263.563L129.781 272.367L146.525 272.367L146.525 275.728L129.781 275.728L129.781 285.267L126.762 285.267L126.762 300.737L129.781 300.737L129.781 304.602C129.781 308.878 133.526 312.34 138.156 312.34L155.396 312.34L155.396 304.918L158.577 304.918L158.577 312.34L181.096 312.34L181.096 302.38L184.275 302.38L184.275 312.34ZM143.265 259.513C143.265 257.373 145.136 255.64 147.453 255.64C149.769 255.64 151.641 257.373 151.641 259.513C151.641 261.654 149.767 263.379 147.453 263.379C145.139 263.379 143.265 261.649 143.265 259.513ZM143.265 290.442C143.265 288.309 145.136 286.579 147.453 286.579C149.769 286.579 151.641 288.309 151.641 290.442C151.641 292.575 149.767 294.307 147.453 294.307C145.139 294.307 143.265 292.577 143.265 290.442Z" fill="#293F27"/>
<path d="M133.77 371.985L133.77 374.769L113.675 374.769L113.675 371.985L98.6063 371.985L98.6063 340.396C98.6063 337.406 101.228 334.984 104.47 334.984L104.856 334.984L104.856 356.523L108.495 356.523L108.495 334.984L138.94 334.984L138.94 356.523L142.589 356.523L142.589 334.984L142.975 334.984C146.21 334.984 148.839 337.406 148.839 340.396L148.839 371.985L133.768 371.985L133.77 371.985Z" fill="#293F27"/>
<path d="M168.927 337.768L168.927 334.984L189.022 334.984L189.022 337.768L204.101 337.768L204.101 369.357C204.101 372.347 201.472 374.769 198.237 374.769L197.841 374.769L197.841 353.23L194.202 353.23L194.202 374.769L163.755 374.769L163.755 353.23L160.116 353.23L160.116 374.769L159.719 374.769C156.477 374.769 153.863 372.347 153.863 369.357L153.863 337.768L168.924 337.768L168.927 337.768Z" fill="#293F27"/>
<path d="M211.839 383.142L213.364 383.142L213.364 381.611" stroke="#293F27" stroke-width="5" stroke-linecap="round" stroke-linejoin="round"/>
<path d="M213.364 378.534L213.364 4.4873" stroke="#293F27" stroke-width="5" stroke-linecap="round" stroke-linejoin="round"/>
<path d="M213.364 2.94882L213.364 1.41797L211.839 1.41797" stroke="#293F27" stroke-width="5" stroke-linecap="round" stroke-linejoin="round"/>
<path d="M208.8 1.41797L3.68173 1.41796" stroke="#293F27" stroke-width="5" stroke-linecap="round" stroke-linejoin="round"/>
<path d="M2.16113 1.41797L0.635467 1.41797L0.635467 2.94882" stroke="#293F27" stroke-width="5" stroke-linecap="round" stroke-linejoin="round"/>
<path d="M0.635742 6.02832L0.635726 380.073" stroke="#293F27" stroke-width="5" stroke-linecap="round" stroke-linejoin="round"/>
<path d="M0.635467 381.611L0.635467 383.142L2.16113 383.142" stroke="#293F27" stroke-width="5" stroke-linecap="round" stroke-linejoin="round"/>
<path d="M5.19981 383.142L210.318 383.142" stroke="#293F27" stroke-width="5" stroke-linecap="round" stroke-linejoin="round"/>
</g>
<defs>
<clipPath id="clip0_319_212">
<rect width="383" height="214" fill="white" transform="translate(214 0.780029) rotate(90)"/>
</clipPath>
</defs>
</svg>
