<svg width="676" height="510" viewBox="0 0 676 510" fill="none" xmlns="http://www.w3.org/2000/svg">
<path d="M263.788 498.223C278.458 483.503 298.585 483.503 313.255 498.223C320.4 505.383 329.092 509.26 337.988 509.26C346.884 509.26 355.576 505.383 362.721 498.223C377.361 483.503 397.549 483.503 412.158 498.223C426.828 512.966 446.985 512.966 461.624 498.223C476.294 483.503 496.452 483.503 511.122 498.223C525.761 512.966 545.918 512.966 560.589 498.223C575.228 483.503 595.385 483.503 610.025 498.223C624.664 512.966 644.821 512.966 659.491 498.223C675.666 481.971 680.396 452.851 671.674 429.439C671.152 427.335 670.415 425.287 669.483 423.332C668.951 422.154 668.357 421.056 667.763 419.969C662.44 410.465 659.686 399.245 659.512 387.967C659.512 387.91 659.512 387.842 659.512 387.784C659.512 376.13 662.255 364.475 667.743 354.651C673.394 344.563 676.147 332.542 675.994 320.556L675.994 320.407C675.973 308.798 673.23 297.212 667.763 287.445C662.44 277.941 659.686 266.721 659.512 255.443C659.512 255.386 659.512 255.329 659.512 255.272C659.512 243.617 662.255 231.963 667.743 222.138C673.394 212.062 676.147 200.03 675.994 188.043L675.994 187.895C675.973 176.286 673.23 164.688 667.763 154.932C662.44 145.428 659.686 134.208 659.512 122.931C659.512 122.874 659.512 122.805 659.512 122.748C659.512 111.093 662.255 99.45 667.743 89.614C668.367 88.516 668.93 87.4294 669.462 86.2514C670.333 84.4443 671.039 82.5 671.561 80.4756C678.533 61.97 677.274 39.4156 667.763 22.3969C654.127 -1.99883 628.298 -6.91687 610.055 11.3485C595.416 26.0683 575.259 26.0683 560.589 11.3485C545.949 -3.39418 525.792 -3.39418 511.122 11.3485C496.482 26.0683 476.325 26.0683 461.686 11.3485C447.016 -3.39418 426.889 -3.39419 412.219 11.3485C397.549 26.0683 377.422 26.0683 362.752 11.3485C355.596 4.18874 346.915 0.288623 338.009 0.288623C329.102 0.288622 320.421 4.1773 313.275 11.3371C298.636 26.0569 278.448 26.0569 263.839 11.3371C249.169 -3.40563 229.012 -3.40563 214.372 11.3371C199.702 26.0569 179.545 26.0569 164.875 11.3371C150.236 -3.40563 130.078 -3.40564 115.408 11.337C100.769 26.0569 80.6115 26.0569 65.9721 11.337C51.3327 -3.40564 31.1754 -3.40564 16.5053 11.337C0.350826 27.5666 -4.37882 56.6631 4.30243 80.0638C4.82453 82.1911 5.56162 84.2613 6.51369 86.2399C7.04603 87.418 7.6398 88.5045 8.23356 89.6025C13.6593 99.3013 16.4132 110.773 16.4848 122.267C16.4132 133.762 13.6696 145.245 8.25404 154.921C2.7873 164.688 0.0436989 176.286 0.0129864 187.895L0.0129864 188.043C-0.140574 200.03 2.60303 212.062 8.23356 222.138C13.6593 231.825 16.4132 243.286 16.4848 254.791C16.4132 266.286 13.6696 277.758 8.25403 287.445C2.7873 297.201 0.0436931 308.787 0.0129806 320.396L0.0129806 320.545C-0.14058 332.531 2.60302 344.551 8.23355 354.639C13.6593 364.327 16.4132 375.798 16.4848 387.304C16.4132 398.799 13.6696 410.27 8.25402 419.958C7.62955 421.044 7.06649 422.142 6.52392 423.32C5.66398 425.127 4.9576 427.06 4.4355 429.073C-2.54636 447.59 -1.28717 470.144 8.22331 487.175C21.8594 511.57 47.6984 516.488 65.9414 498.223C80.5807 483.503 100.738 483.503 115.408 498.223C130.047 512.966 150.205 512.966 164.875 498.223C179.514 483.503 199.672 483.503 214.311 498.223C228.981 512.966 249.108 512.966 263.778 498.223L263.788 498.223Z" fill="#4C9EC9"/>
</svg>
