<svg width="612" height="549" viewBox="0 0 612 549" fill="none" xmlns="http://www.w3.org/2000/svg">
<path d="M496.737 208.497C480.458 227.145 470.886 249.915 470.886 274.5C470.886 337.665 534.068 388.879 612 388.879V549H549.543V510.88H542.76V549H446.039V510.88H439.277V549H342.556V510.88H335.794V549H276.2V510.88H269.439V549H172.718V510.88H165.956V549H69.2404V510.88H62.4574V549H0V0H62.4574V38.1247H69.2404V0H131.451V38.1247H138.234V0H200.445V38.1247H207.228V0H269.439V38.1247H276.2V0H335.794V38.1247H342.556V0H404.772V38.1247H411.55V0H473.766V38.1247H480.543V0H542.76V38.1247H549.543V0H612V160.121C564.396 160.121 522.293 179.229 496.737 208.497Z" fill="#FFA6AE"/>
</svg>
