<?xml version="1.0" encoding="UTF-8"?><svg id="Layer_2" xmlns="http://www.w3.org/2000/svg" viewBox="0 0 42.47 42.61"><defs><style>.cls-1{fill:gray;}</style></defs><g id="Layer_10"><path class="cls-1" d="m.3,13.96c-.19.13-.3.34-.3.57v-.37l.3-.2Z"/><path class="cls-1" d="m.68,42.61h-.68v-.68c0,.38.31.68.68.68Z"/><path class="cls-1" d="m21.61.25c-.23-.15-.53-.15-.76,0l.38-.25.38.25Z"/><path class="cls-1" d="m42.47,14.16v.37c0-.23-.12-.44-.31-.57l.31.2Z"/><path class="cls-1" d="m42.47,14.52v10.27c0,.22-.11.43-.29.56l-3.42,2.4c-.24.17-.55.17-.79,0l-3.03-2.12-3.03,2.12c-.24.17-.55.17-.79,0l-3.03-2.12-3.03,2.12c-.24.17-.55.17-.79,0l-2.35-1.64v5.18l2.74,1.92,3.03-2.12c.24-.17.55-.17.78,0l3.05,2.12,3.02-2.12c.24-.17.55-.17.79,0l3.03,2.12,3.03-2.12c.21-.15.48-.16.71-.05.23.12.37.35.37.61v10.96H.68c-.38,0-.68-.31-.68-.68V14.52c0-.23.11-.44.3-.57L20.85.25c.23-.15.53-.15.76,0l20.55,13.7c.19.13.31.34.31.57Z"/></g></svg>