<svg width="193" height="201" viewBox="0 0 193 201" fill="none" xmlns="http://www.w3.org/2000/svg">
<path d="M91.8398 114.579L88.7178 115.853C83.0986 118.175 78.6673 122.412 76.23 127.785C73.7706 133.21 73.6335 139.14 75.8453 144.484C76.3408 145.68 76.9559 146.838 77.6713 147.92C83.1931 156.284 80.9426 167.479 72.435 173.962C70.6006 175.359 69.4025 177.431 69.1443 179.647C68.8974 181.766 69.5032 183.838 70.8456 185.478C71.005 185.673 71.173 185.859 71.3489 186.035L35.4902 200.667C29.4509 194.904 27.4124 186.199 30.3118 178.119C33.0857 170.385 31.3401 161.959 25.7526 156.128C15.8806 145.826 12.8034 130.909 17.722 117.197C21.5892 106.416 19.1573 94.6758 11.3737 86.5549C1.19939 75.9394 -1.76235 60.7709 3.53749 46.7651L9.08184 44.5027L6.68892 38.6383L27.6977 30.0659L30.2529 36.3279L31.6137 36.4525C41.5984 37.3638 48.768 45.2738 48.289 54.8526C48.0906 58.7873 49.4713 62.5271 52.1724 65.3784C55.028 68.3948 58.9812 70.0601 63.3023 70.0696C66.5864 70.0773 69.7704 69.1157 72.5194 67.2897L72.5398 67.2863L72.5567 67.2745C81.0109 65.6631 86.8525 57.8035 85.5884 49.7033C85.0962 46.5506 83.5274 43.6137 81.1682 41.434C74.1255 34.9269 73.7124 24.2599 80.2105 16.6205L81.0956 15.5794L78.5413 9.31946L99.5501 0.746971L101.943 6.61134L107.487 4.34901C121.075 10.648 129.569 23.5593 129.727 38.2615C129.847 49.5095 136.323 59.5993 146.629 64.5976C159.737 70.9562 167.976 83.7671 168.127 98.0333C168.213 106.107 172.859 113.351 180.254 116.936C187.979 120.681 192.61 128.328 192.328 136.67L156.474 151.3C156.475 151.12 156.469 150.938 156.457 150.756C156.324 148.612 155.339 146.668 153.684 145.282C151.936 143.817 149.59 143.142 147.249 143.432C136.634 144.752 127.194 138.327 125.288 128.488C124.233 123.042 121.067 118.333 116.369 115.228C111.349 111.91 104.964 110.771 98.8539 112.103C97.5325 112.39 96.2255 112.795 94.9692 113.3L91.8389 114.577L91.8398 114.579Z" fill="#FFA6AE"/>
</svg>
