<svg width="567" height="379" viewBox="0 0 567 379" fill="none" xmlns="http://www.w3.org/2000/svg">
<mask id="mask0_386_78" style="mask-type:alpha" maskUnits="userSpaceOnUse" x="0" y="0" width="567" height="379">
<path d="M262.486 369.511L262.486 369.511C250.414 358.796 233.877 358.796 221.806 369.511L221.664 369.637L221.654 369.637C209.216 380.578 192.192 380.536 179.789 369.51L180.121 369.137L179.789 369.51C167.742 358.796 151.181 358.796 139.135 369.51L138.802 369.137L139.134 369.51C126.684 380.578 109.551 380.579 97.1261 369.511C85.054 358.796 68.4919 358.796 56.446 369.51L56.4452 369.511C40.9471 383.237 18.9975 379.509 7.45035 361.236L7.87303 360.968L7.45024 361.235C-0.584804 348.508 -1.64838 331.673 4.23572 317.844C4.6808 316.334 5.28094 314.883 6.01057 313.526C6.46994 312.644 6.94742 311.82 7.47734 311.005C11.9482 303.929 14.2181 295.543 14.278 287.133C14.2181 278.713 11.9394 270.326 7.45916 263.25L7.45874 263.25C2.69745 255.704 0.381899 246.722 0.510851 237.773L0.510848 237.666L0.510853 237.665C0.536778 228.997 2.85238 220.337 7.47604 213.038C11.9478 205.963 14.2181 197.576 14.278 189.164C14.2181 180.745 11.9394 172.366 7.45916 165.29L7.45888 165.29C2.69738 157.753 0.381906 148.762 0.510855 139.813L0.510853 139.706L0.510857 139.705C0.536783 131.036 2.85246 122.369 7.47619 115.061C11.9477 107.994 14.2181 99.5987 14.278 91.1871C14.2181 82.7761 11.9394 74.3891 7.45897 67.3047L7.45505 67.2983L7.37636 67.1696L7.37202 67.1625C6.90602 66.4007 6.43123 65.6245 6.00182 64.7847C5.19449 63.2995 4.56806 61.746 4.12267 60.1496C-3.18937 42.6803 0.790614 20.9511 14.4629 8.80092C26.9133 -2.26671 44.0464 -2.26726 56.4717 8.80101C68.5178 19.5151 85.0796 19.5151 97.1257 8.80101L97.1258 8.80092C109.576 -2.26659 126.709 -2.26726 139.134 8.80067C151.206 19.5152 167.768 19.5152 179.84 8.80067C192.266 -2.26726 209.398 -2.26659 221.849 8.80093L221.849 8.80136C233.869 19.5148 250.456 19.5152 262.503 8.80102L262.503 8.80044C268.56 3.43279 275.931 0.506354 283.507 0.506354C291.084 0.506355 298.455 3.44153 304.519 8.80866L304.52 8.80913C316.592 19.5236 333.128 19.5236 345.2 8.80913C357.651 -2.25851 374.758 -2.25842 387.209 8.80939L386.876 9.18309L387.209 8.80948C399.255 19.5235 415.817 19.5235 427.863 8.80948L428.195 9.18309L427.863 8.80939C440.313 -2.25812 457.446 -2.25879 469.871 8.80914C481.943 19.5238 498.505 19.5234 510.551 8.80949L510.552 8.80879C526.05 -4.91713 547.991 -1.18931 559.538 17.0843L559.116 17.3514L559.538 17.0843C567.574 29.8031 568.637 46.6379 562.762 60.4587C562.317 61.9764 561.717 63.4355 560.978 64.7936C560.525 65.6791 560.047 66.4947 559.519 67.3163C554.989 74.5013 552.719 83.0139 552.719 91.5423L552.719 91.6688C552.719 91.67 552.719 91.6712 552.719 91.6723C552.864 99.9244 555.142 108.127 559.538 115.069C564.162 122.369 566.478 131.037 566.495 139.705L566.495 139.706L566.495 139.809C566.495 139.81 566.495 139.812 566.495 139.813C566.624 148.762 564.3 157.753 559.521 165.291C554.989 172.468 552.719 180.99 552.719 189.519L552.719 189.637C552.719 189.639 552.719 189.64 552.719 189.641C552.864 197.893 555.142 206.096 559.538 213.038L559.116 213.305L559.538 213.038C564.162 220.346 566.478 229.005 566.495 237.674L566.495 237.675L566.495 237.778C566.495 237.779 566.495 237.78 566.495 237.782C566.624 246.731 564.299 255.713 559.521 263.259C554.989 270.436 552.719 278.958 552.719 287.488L552.719 287.614C552.719 287.616 552.719 287.617 552.719 287.618C552.864 295.87 555.142 304.073 559.538 311.015L559.541 311.02C560.036 311.821 560.541 312.646 560.995 313.535C561.785 315.002 562.411 316.538 562.857 318.119C570.204 335.597 566.224 357.343 552.534 369.51C540.084 380.578 522.951 380.579 510.525 369.51C498.479 358.796 481.918 358.796 469.872 369.51L469.539 369.137L469.871 369.51C457.421 380.578 440.288 380.579 427.863 369.511C415.791 358.796 399.229 358.796 387.157 369.511C374.732 380.579 357.599 380.578 345.149 369.51L345.148 369.51C333.128 358.797 316.541 358.796 304.494 369.51L304.494 369.511C298.437 374.879 291.057 377.797 283.49 377.797C275.923 377.797 268.543 374.879 262.486 369.511Z" fill="#C68337" stroke="#231F20"/>
</mask>
<g mask="url(#mask0_386_78)">
<rect x="-50" y="-62" width="736" height="521" fill="black"/>
</g>
</svg>
