<svg width="574" height="645" viewBox="0 0 574 645" fill="none" xmlns="http://www.w3.org/2000/svg">
<g clip-path="url(#clip0_302_150)">
<path d="M76.7547 186.38L65.1247 183.97L59.8747 182.45L54.9147 180.71L50.0247 178.46L40.6147 173.23L36.3447 170.29L32.1047 167.09L28.1647 163.67L21.0747 156.69L17.9347 153.13L15.3747 149.13L10.8347 140.68L8.63469 135.95L4.67469 127.07L3.20469 122.7L2.28469 118.15L0.694687 107.26L0.0546875 97.02L2.49469 79.67L3.79469 74.13L5.31469 68.88L7.37469 63.44L12.0947 53.95L14.5247 49.61L20.3347 41.58L23.4947 37.6L28.6547 32.34L34.5847 27.19L38.9447 23.9L47.4647 18.85L51.3947 16.8L60.2447 13.1L65.4147 11.48L70.2947 10.08L75.6547 9.00999L86.0347 7.34999L97.7647 7.17999L109.975 7.32999L117.015 9.09999L118.555 11.14L117.945 17.3L116.545 27.25L115.945 35.23L115.695 38.84L115.085 43.18L114.625 50.14L113.365 57.25L112.755 61.59L108.675 62.84L99.0847 62.53L93.5847 62.8L82.6147 64.9L77.6647 66.81L72.8647 69.52L68.7547 72.85L64.1747 77.67L61.1247 84.53L58.0547 95.29L57.8847 100.21L59.6247 110.08L61.6047 114.52L64.1247 118.78L67.5247 122.38L75.4847 128.7L79.8647 130.88L84.8247 132.62L93.3247 135.12L99.1247 136.46L100.705 140.06L99.8147 148.26L98.5647 159.01L96.9447 168.67L94.8247 183.73L93.6647 186.43L87.9147 188.48L76.7547 186.39V186.38Z" fill="#FFBE3A"/>
<path d="M187.895 183.76L182.745 182.73L173.205 180.15L168.305 178.6L163.925 176.8L159.285 174.74L152.065 170.87L148.715 168.55L143.565 165.2L139.705 161.85L135.835 158.24L128.875 151.02L125.785 147.41L122.945 143.54L120.365 139.42L115.725 130.66L111.605 120.87L108.765 110.56L107.475 101.28L106.445 93.81V85.82L107.215 77.06L107.985 72.68L110.565 63.66L112.115 58.76L113.915 54.12L118.295 45.62L120.875 41.5L123.715 37.38L126.805 33.77L129.895 29.9L137.625 22.68L142.525 19.07L152.065 12.88L161.345 8.23999L165.725 6.43999L170.365 4.88999L179.645 2.30999L188.665 0.50999L193.305 -0.0100098H210.315L215.475 0.50999L220.375 1.53999L230.165 4.11999L234.545 5.66999L238.925 7.46999L247.945 11.85L252.325 14.43L258.255 18.55L262.895 23.19L271.145 30.66L277.845 39.94L280.425 43.81L282.745 47.93L285.065 52.31L289.445 61.59L291.245 66.74L294.085 77.82L294.855 89.16V94.57L293.825 105.14L293.055 110.04L290.215 120.35L288.415 125.5L286.095 130.4L283.515 135.3L280.675 139.94L277.585 144.58L273.205 150.76L260.065 164.16L256.455 167.25L248.725 172.92L239.705 177.82L234.805 179.88L229.645 181.43L224.495 182.72L213.925 183.75L203.355 184.27H192.785L187.885 183.75L187.895 183.76ZM204.385 126.8L208.765 126.03L218.045 122.16L222.685 119.32L226.805 115.71L233.245 106.43L235.565 101.02L237.115 89.68L236.595 84.27L235.305 78.6L233.245 73.45L228.345 65.2L221.385 59.79L217.005 57.47L212.625 55.92L206.695 55.15L200.255 54.38L194.845 54.64L188.405 56.96L181.705 59.79L177.065 63.14L170.105 71.39L167.525 75.51L165.725 80.15L164.695 85.05L164.955 96.13L166.245 101.8L170.365 111.34L172.685 114.95L180.155 121.14L184.795 123.72L189.695 125.78L194.845 126.81H204.385V126.8Z" fill="#FFBE3A"/>
<path d="M367.265 183.76L362.115 182.73L352.575 180.15L347.675 178.6L343.295 176.8L338.655 174.74L331.435 170.87L328.085 168.55L322.935 165.2L319.075 161.85L315.205 158.24L308.245 151.02L305.155 147.41L302.315 143.54L299.735 139.42L295.095 130.66L290.975 120.87L288.135 110.56L286.845 101.28L285.815 93.81V85.82L286.585 77.06L287.355 72.68L289.935 63.66L291.485 58.76L293.285 54.12L297.665 45.62L300.245 41.5L303.085 37.38L306.175 33.77L309.265 29.9L316.995 22.68L321.895 19.07L331.435 12.88L340.715 8.23999L345.095 6.43999L349.735 4.88999L359.015 2.30999L368.035 0.50999L372.675 -0.0100098H389.685L394.845 0.50999L399.745 1.53999L409.535 4.11999L413.915 5.66999L418.295 7.46999L427.315 11.85L431.695 14.43L437.625 18.55L442.265 23.19L450.515 30.66L457.215 39.94L459.795 43.81L462.115 47.93L464.435 52.31L468.815 61.59L470.615 66.74L473.455 77.82L474.225 89.16V94.57L473.195 105.14L472.425 110.04L469.585 120.35L467.785 125.5L465.465 130.4L462.885 135.3L460.045 139.94L456.955 144.58L452.575 150.76L439.435 164.16L435.825 167.25L428.095 172.92L419.075 177.82L414.175 179.88L409.015 181.43L403.865 182.72L393.295 183.75L382.725 184.27H372.155L367.255 183.75L367.265 183.76ZM383.755 126.8L388.135 126.03L397.415 122.16L402.055 119.32L406.175 115.71L412.615 106.43L414.935 101.02L416.485 89.68L415.965 84.27L414.675 78.6L412.615 73.45L407.715 65.2L400.755 59.79L396.375 57.47L391.995 55.92L386.065 55.15L379.625 54.38L374.215 54.64L367.775 56.96L361.075 59.79L356.435 63.14L349.475 71.39L346.895 75.51L345.095 80.15L344.065 85.05L344.325 96.13L345.615 101.8L349.735 111.34L352.055 114.95L359.525 121.14L364.165 123.72L369.065 125.78L374.215 126.81H383.755V126.8Z" fill="#FFBE3A"/>
<path d="M471.895 178.35L470.095 170.88V140.73L469.325 135.83L470.095 131.45V126.3L470.355 119.86L470.095 113.16L470.355 105.17L470.095 95.89V68.57L470.355 63.67V48.72L470.615 38.41L470.355 28.1L470.615 19.85L470.355 14.44L470.615 9.03L472.415 5.42H477.575L484.795 4.9L490.205 4.64L497.425 4.9L506.965 4.38H511.605L518.305 4.64H522.425L525.265 4.9L527.065 6.19L528.615 13.15V44.85L529.385 50L528.865 52.06L529.125 56.18L528.605 64.43V132.73L529.125 142.27L529.645 150.77L529.905 156.96L534.805 158.25H539.705L549.495 157.99H559.545L567.275 157.73L571.655 158.25L573.975 165.21L573.715 174.75L571.135 177.33H565.725L556.445 177.59H532.215L525.255 178.88L519.585 178.62L512.625 178.1L506.695 178.62L502.055 178.88H488.655L476.795 179.4L471.895 178.37V178.35Z" fill="#FFBE3A"/>
<path d="M74.6848 226.87C74.6848 207.54 62.5748 198 49.9448 198C44.5348 198 40.6648 200.06 40.6648 204.19C40.6648 209.09 45.8148 209.6 52.0048 212.69C59.2248 216.04 65.9248 222.23 65.9248 234.34C65.9248 249.29 55.0948 260.63 39.6348 260.63C21.5948 260.63 8.70484 247.49 8.70484 230.22C8.70484 209.34 27.2648 193.11 48.3948 193.11C72.6248 193.11 93.4948 213.47 93.4948 245.43C93.4948 266.05 85.2448 284.6 85.2448 288.73C85.2448 289.5 85.7648 290.02 86.7948 290.02C88.3448 290.02 89.1148 287.7 90.9148 283.32C100.705 259.35 116.685 193.12 161.015 193.12C183.435 193.12 193.225 209.61 193.225 227.14C193.225 268.89 145.285 295.95 145.285 339.51C145.285 355.23 153.015 362.96 160.495 362.96C167.975 362.96 174.925 356.26 174.925 342.6C174.925 328.94 168.745 318.12 166.935 314.51C165.385 311.93 164.355 310.13 164.355 308.84C164.355 308.07 164.875 306.52 166.675 306.52C167.705 306.52 168.225 307.04 170.285 310.64C173.125 315.79 179.565 329.2 179.565 343.63C179.565 366.83 158.435 377.39 136.265 377.39C101.985 377.39 84.2048 352.91 84.2048 335.9C84.2048 315.28 99.4148 304.97 120.025 300.08C139.615 295.44 161.775 294.41 161.775 278.95C161.775 265.81 148.625 256.79 132.135 256.79C115.645 256.79 105.075 266.33 95.7948 286.17C86.0048 306.79 78.7849 333.08 66.4148 352.66C56.6248 368.12 44.7648 377.4 30.5948 377.4C12.0348 377.4 1.21484 362.45 1.21484 345.96C1.21484 303.43 74.6648 273.54 74.6648 226.89L74.6848 226.87Z" fill="#FFBE3A"/>
<path d="M244.255 296.45C244.255 307.53 256.365 318.61 279.045 318.61C309.715 318.61 330.845 301.86 330.845 281.5C330.845 277.12 329.555 275.31 329.555 273C329.555 270.94 330.845 269.91 332.135 269.91C335.225 269.91 336.005 277.64 336.005 282.54C336.005 331.51 301.215 377.38 244.255 377.38C207.915 377.38 178.275 356.5 178.275 328.41C178.275 291.3 221.575 278.67 251.985 278.67C254.305 278.67 256.365 277.9 256.365 276.87C256.365 275.84 255.595 275.58 254.305 275.32C220.795 270.68 207.655 256.51 207.655 237.95C207.655 210.89 238.845 193.11 279.045 193.11C322.085 193.11 340.125 215.27 340.125 236.41C340.125 254.19 327.495 271.46 305.335 271.46C287.295 271.46 273.895 258.83 273.895 241.56C273.895 230.99 278.795 224.55 283.175 219.91C288.845 213.98 294.515 211.66 294.515 205.74C294.515 201.87 292.195 198.01 286.265 198.01C274.415 198.01 260.755 220.95 260.755 248.01C260.755 260.64 264.365 275.59 278.535 275.59C281.375 275.59 283.175 274.82 286.015 274.82C290.655 274.82 292.975 276.88 292.975 279.72C292.975 282.81 290.395 285.39 285.245 285.39C278.805 285.39 272.105 282.56 262.045 282.56C249.935 282.56 244.265 289.52 244.265 296.48L244.255 296.45Z" fill="#FFBE3A"/>
<path d="M445.795 329.96C444.505 329.96 443.995 331.76 442.955 335.11C436.765 355.99 417.695 377.38 390.895 377.38C364.095 377.38 344.505 360.11 344.505 336.4C344.505 288.46 405.845 270.94 405.845 227.38C405.845 208.82 393.475 198 382.135 198C376.465 198 372.855 200.06 372.855 204.19C372.855 209.09 377.755 209.86 383.685 212.69C390.385 216.04 397.085 221.71 397.085 233.57C397.085 249.03 385.745 260.63 369.505 260.63C351.975 260.63 339.865 246.71 339.865 229.96C339.865 209.08 359.455 193.11 380.585 193.11C403.785 193.11 429.295 209.35 429.295 243.62C429.295 269.65 405.585 304.19 405.585 326.61C405.585 340.79 412.805 347.49 421.045 347.49C433.415 347.49 439.345 336.41 439.345 324.04C439.345 309.86 434.965 293.11 434.965 266.82C434.965 216.82 451.205 197.49 471.305 197.49C487.795 197.49 501.715 207.28 501.715 244.91C501.715 270.17 486.505 304.7 486.505 331.76C486.505 353.67 498.105 365.26 512.535 365.26C526.965 365.26 537.275 351.6 537.275 334.33C537.275 296.7 506.865 260.1 506.865 227.37C506.865 207.78 517.695 193.09 537.015 193.09C553.505 193.09 572.065 207.01 572.065 245.15C572.065 294.63 550.155 377.36 495.515 377.36C466.395 377.36 451.445 349.27 447.835 335.61C446.805 331.74 446.545 329.94 445.775 329.94L445.795 329.96Z" fill="#FFBE3A"/>
<path d="M0.915039 513.92C0.915039 434.36 38.185 380.97 84.775 380.97C95.165 380.97 104.845 383.84 113.805 388.85L51.095 591.68L160.395 530.4C156.095 592.04 127.065 631.1 84.065 631.1C32.465 631.1 0.925039 584.87 0.925039 513.92H0.915039Z" fill="#FFBE3A"/>
<path d="M169.695 385.99C239.215 385.99 282.225 418.24 282.225 467.7C282.225 510.7 248.895 541.16 195.855 547.97L290.105 626.09H169.695V385.99Z" fill="#FFBE3A"/>
<path d="M368.945 375.24L452.445 626.09L386.145 625.37L368.585 644.36L351.025 625.37L284.725 626.09L368.225 375.24H368.935H368.945Z" fill="#FFBE3A"/>
<path d="M456.745 636.84V385.99C523.405 385.99 571.785 421.83 571.785 475.58C571.785 513.92 546.345 545.46 503.335 558.36L457.825 636.84H456.745Z" fill="#FFBE3A"/>
</g>
<defs>
<clipPath id="clip0_302_150">
<rect width="573.91" height="644.37" fill="white" transform="translate(0.0449219)"/>
</clipPath>
</defs>
</svg>
