<svg width="2146" height="261" viewBox="0 0 2146 261" fill="none" xmlns="http://www.w3.org/2000/svg">
<g clip-path="url(#clip0_424_69)">
<path d="M102.94 250.49L87.3302 247.25L80.2802 245.21L73.6202 242.88L67.0602 239.86L54.4202 232.85L48.6902 228.9L43.0102 224.61L37.7202 220.02L28.2102 210.65L23.9902 205.87L20.5502 200.5L14.4602 189.17L11.5102 182.82L6.20023 170.9L4.23023 165.03L2.99023 158.92L0.850234 144.3L-0.00976562 130.56L3.26023 107.27L5.00023 99.83L7.04023 92.78L9.81024 85.49L16.1402 72.76L19.4002 66.93L27.2002 56.15L31.4402 50.81L38.3702 43.75L46.3302 36.83L52.1902 32.41L63.6202 25.63L68.9002 22.88L80.7802 17.91L87.7202 15.74L94.2702 13.87L101.46 12.44L115.4 10.21L131.15 9.97998L147.54 10.19L156.99 12.57L159.05 15.3L158.24 23.57L156.36 36.93L155.55 47.64L155.22 52.48L154.4 58.3L153.78 67.64L152.09 77.18L151.27 83L145.8 84.67L132.93 84.26L125.55 84.62L110.83 87.44L104.18 90L97.7302 93.63L92.2102 98.09L86.0602 104.56L81.9702 113.77L77.8502 128.21L77.6202 134.81L79.9502 148.06L82.6102 154.02L86.0002 159.73L90.5602 164.56L101.24 173.05L107.12 175.97L113.78 178.3L125.18 181.65L132.96 183.44L135.07 188.28L133.87 199.29L132.19 213.72L130.02 226.69L127.18 246.9L125.62 250.52L117.9 253.28L102.93 250.48L102.94 250.49Z" fill="#FF4D3A"/>
<path d="M252.1 246.98L245.18 245.6L232.38 242.14L225.81 240.06L219.93 237.64L213.7 234.87L204.02 229.68L199.52 226.57L192.6 222.07L187.41 217.57L182.22 212.73L172.88 203.05L168.73 198.21L164.93 193.02L161.47 187.49L155.24 175.73L149.71 162.59L145.91 148.76L144.18 136.31L142.8 126.28V115.56L143.84 103.8L144.88 97.92L148.34 85.81L150.42 79.24L152.84 73.01L158.72 61.6L162.18 56.07L165.98 50.54L170.13 45.7L174.28 40.51L184.66 30.83L191.23 25.99L204.03 17.69L216.48 11.46L222.36 9.04001L228.59 6.96001L241.04 3.50001L253.15 1.08001L259.38 0.390015H282.21L289.13 1.08001L295.7 2.46001L308.84 5.92001L314.72 8.00001L320.6 10.42L332.71 16.3L338.59 19.76L346.55 25.29L352.78 31.52L363.85 41.55L372.84 54L376.3 59.19L379.41 64.72L382.52 70.6L388.4 83.05L390.82 89.97L394.62 104.84L395.66 120.06V127.32L394.28 141.5L393.24 148.07L389.44 161.9L387.02 168.82L383.91 175.39L380.45 181.96L376.65 188.19L372.5 194.42L366.62 202.72L348.98 220.71L344.14 224.86L333.76 232.47L321.65 239.04L315.08 241.81L308.16 243.89L301.24 245.62L287.06 247L272.88 247.69H258.7L252.13 247L252.1 246.98ZM274.24 170.54L280.12 169.5L292.57 164.31L298.8 160.51L304.33 155.67L312.98 143.22L316.09 135.96L318.17 120.74L317.48 113.48L315.75 105.87L312.98 98.95L306.41 87.88L297.07 80.62L291.19 77.51L285.31 75.43L277.35 74.39L268.7 73.35L261.44 73.7L252.79 76.81L243.8 80.61L237.57 85.11L228.23 96.18L224.77 101.71L222.35 107.94L220.97 114.51L221.32 129.38L223.05 136.99L228.58 149.79L231.69 154.63L241.72 162.93L247.95 166.39L254.52 169.16L261.44 170.54H274.24Z" fill="#FF4D3A"/>
<path d="M492.82 246.98L485.9 245.6L473.1 242.14L466.53 240.06L460.65 237.64L454.42 234.87L444.74 229.68L440.24 226.57L433.32 222.07L428.13 217.57L422.94 212.73L413.6 203.05L409.45 198.21L405.65 193.02L402.19 187.49L395.96 175.73L390.43 162.59L386.63 148.76L384.9 136.31L383.52 126.28V115.56L384.56 103.8L385.6 97.92L389.06 85.81L391.14 79.24L393.56 73.01L399.44 61.6L402.9 56.07L406.7 50.54L410.85 45.7L415 40.51L425.38 30.83L431.95 25.99L444.75 17.69L457.2 11.46L463.08 9.04001L469.31 6.96001L481.76 3.50001L493.87 1.08001L500.1 0.390015H522.93L529.85 1.08001L536.42 2.46001L549.56 5.92001L555.44 8.00001L561.32 10.42L573.43 16.3L579.31 19.76L587.27 25.29L593.5 31.52L604.57 41.55L613.56 54L617.02 59.19L620.13 64.72L623.24 70.6L629.12 83.05L631.54 89.97L635.34 104.84L636.38 120.06V127.32L635 141.5L633.96 148.07L630.16 161.9L627.74 168.82L624.63 175.39L621.17 181.96L617.37 188.19L613.22 194.42L607.34 202.72L589.7 220.71L584.86 224.86L574.48 232.47L562.37 239.04L555.8 241.81L548.88 243.89L541.96 245.62L527.78 247L513.6 247.69H499.42L492.85 247L492.82 246.98ZM514.96 170.54L520.84 169.5L533.29 164.31L539.52 160.51L545.05 155.67L553.7 143.22L556.81 135.96L558.89 120.74L558.2 113.48L556.47 105.87L553.7 98.95L547.13 87.88L537.79 80.62L531.91 77.51L526.03 75.43L518.07 74.39L509.42 73.35L502.16 73.7L493.51 76.81L484.52 80.61L478.29 85.11L468.95 96.18L465.49 101.71L463.07 107.94L461.69 114.51L462.04 129.38L463.77 136.99L469.3 149.79L472.41 154.63L482.44 162.93L488.67 166.39L495.24 169.16L502.16 170.54H514.96Z" fill="#FF4D3A"/>
<path d="M633.24 239.71L630.82 229.68V189.21L629.78 182.64L630.82 176.76V169.84L631.17 161.19L630.82 152.2L631.17 141.48L630.82 129.03V92.37L631.17 85.8V65.74L631.52 51.91L631.17 38.08L631.52 27.01L631.17 19.75L631.52 12.49L633.94 7.65002H640.86L650.54 6.96002L657.8 6.61002L667.48 6.96002L680.28 6.27002H686.51L695.5 6.62002H701.03L704.83 6.97002L707.25 8.70002L709.33 18.04V60.58L710.37 67.5L709.68 70.27L710.03 75.8L709.34 86.87V178.53L710.03 191.33L710.72 202.74L711.07 211.04L717.64 212.77H724.21L737.35 212.42H750.84L761.22 212.07L767.1 212.76L770.21 222.1L769.86 234.9L766.4 238.36H759.14L746.69 238.71H714.18L704.84 240.44L697.23 240.09L687.89 239.4L679.93 240.09L673.7 240.44H655.71L639.8 241.13L633.23 239.75L633.24 239.71Z" fill="#FF4D3A"/>
<path d="M906.33 46.04C906.33 20.99 890.63 8.62999 874.27 8.62999C867.26 8.62999 862.25 11.3 862.25 16.65C862.25 23 868.93 23.66 876.95 27.67C886.3 32.01 894.99 40.03 894.99 55.73C894.99 75.1 880.96 89.8 860.92 89.8C837.54 89.8 820.84 72.77 820.84 50.39C820.84 23.34 844.89 2.29999 872.28 2.29999C903.68 2.29999 930.73 28.69 930.73 70.1C930.73 96.82 920.04 120.87 920.04 126.21C920.04 127.21 920.71 127.88 922.04 127.88C924.04 127.88 925.05 124.87 927.38 119.2C940.07 88.14 960.78 2.29999 1018.23 2.29999C1047.29 2.29999 1059.98 23.68 1059.98 46.39C1059.98 100.5 997.86 135.57 997.86 192.01C997.86 212.38 1007.88 222.4 1017.57 222.4C1027.26 222.4 1036.27 213.72 1036.27 196.01C1036.27 178.3 1028.25 164.28 1025.92 159.6C1023.92 156.26 1022.58 153.92 1022.58 152.25C1022.58 151.25 1023.25 149.24 1025.59 149.24C1026.93 149.24 1027.59 149.91 1030.27 154.58C1033.94 161.26 1042.29 178.63 1042.29 197.33C1042.29 227.39 1014.9 241.08 986.18 241.08C941.76 241.08 918.71 209.35 918.71 187.31C918.71 160.59 938.42 147.23 965.14 140.88C990.52 134.87 1019.25 133.53 1019.25 113.49C1019.25 96.46 1002.22 84.77 980.84 84.77C959.46 84.77 945.77 97.13 933.75 122.85C921.06 149.57 911.71 183.64 895.67 209.02C882.98 229.06 867.61 241.08 849.24 241.08C825.19 241.08 811.16 221.71 811.16 200.33C811.16 145.22 906.35 106.48 906.35 46.02L906.33 46.04Z" fill="#FFBE3A"/>
<path d="M1126.1 136.22C1126.1 150.58 1141.8 164.94 1171.19 164.94C1210.94 164.94 1238.32 143.23 1238.32 116.85C1238.32 111.17 1236.65 108.83 1236.65 105.83C1236.65 103.16 1238.32 101.82 1239.99 101.82C1244 101.82 1245 111.84 1245 118.19C1245 181.65 1199.91 241.1 1126.1 241.1C1079.01 241.1 1040.6 214.05 1040.6 177.64C1040.6 129.54 1096.71 113.18 1136.12 113.18C1139.13 113.18 1141.8 112.18 1141.8 110.84C1141.8 109.5 1140.8 109.17 1139.13 108.84C1095.71 102.83 1078.68 84.46 1078.68 60.41C1078.68 25.34 1119.09 2.28998 1171.2 2.28998C1226.98 2.28998 1250.36 31.01 1250.36 58.4C1250.36 81.44 1233.99 103.82 1205.27 103.82C1181.89 103.82 1164.52 87.45 1164.52 65.08C1164.52 51.39 1170.87 43.04 1176.54 37.02C1183.89 29.34 1191.24 26.33 1191.24 18.65C1191.24 13.64 1188.23 8.62998 1180.55 8.62998C1165.19 8.62998 1147.48 38.36 1147.48 73.43C1147.48 89.8 1152.16 109.17 1170.53 109.17C1174.2 109.17 1176.54 108.17 1180.22 108.17C1186.23 108.17 1189.24 110.84 1189.24 114.52C1189.24 118.53 1185.9 121.87 1179.22 121.87C1170.87 121.87 1162.19 118.2 1149.16 118.2C1133.46 118.2 1126.11 127.22 1126.11 136.24L1126.1 136.22Z" fill="#FFBE3A"/>
<path d="M1387.28 179.64C1385.61 179.64 1384.94 181.98 1383.61 186.32C1375.59 213.37 1350.88 241.1 1316.14 241.1C1281.4 241.1 1256.02 218.72 1256.02 187.99C1256.02 125.87 1335.51 103.16 1335.51 46.71C1335.51 22.66 1319.48 8.63002 1304.78 8.63002C1297.43 8.63002 1292.76 11.3 1292.76 16.65C1292.76 23 1299.11 24 1306.79 27.67C1315.47 32.01 1324.16 39.36 1324.16 54.72C1324.16 74.76 1309.46 89.79 1288.42 89.79C1265.71 89.79 1250.01 71.75 1250.01 50.04C1250.01 22.99 1275.39 2.28002 1302.78 2.28002C1332.84 2.28002 1365.91 23.32 1365.91 67.74C1365.91 101.47 1335.18 146.23 1335.18 175.29C1335.18 193.66 1344.53 202.34 1355.22 202.34C1371.25 202.34 1378.93 187.98 1378.93 171.95C1378.93 153.58 1373.25 131.87 1373.25 97.8C1373.25 33 1394.29 7.95002 1420.34 7.95002C1441.72 7.95002 1459.75 20.64 1459.75 69.4C1459.75 102.13 1440.04 146.89 1440.04 181.96C1440.04 210.35 1455.07 225.38 1473.77 225.38C1492.47 225.38 1505.83 207.68 1505.83 185.3C1505.83 136.54 1466.42 89.11 1466.42 46.69C1466.42 21.31 1480.45 2.27002 1505.5 2.27002C1526.88 2.27002 1550.92 20.31 1550.92 69.74C1550.92 133.87 1522.53 241.08 1451.72 241.08C1413.98 241.08 1394.61 204.67 1389.93 186.97C1388.59 181.96 1388.26 179.62 1387.26 179.62L1387.28 179.64Z" fill="#FFBE3A"/>
<path d="M1598.56 135.23C1598.56 58.97 1634.29 7.77997 1678.95 7.77997C1688.91 7.77997 1698.19 10.53 1706.78 15.34L1646.66 209.78L1751.44 151.04C1747.32 210.13 1719.49 247.57 1678.27 247.57C1628.8 247.57 1598.57 203.25 1598.57 135.24L1598.56 135.23Z" fill="#FFA6AE"/>
<path d="M1760.36 12.59C1827 12.59 1868.23 43.51 1868.23 90.92C1868.23 132.14 1836.28 161.34 1785.44 167.87L1875.79 242.76H1760.36V12.59Z" fill="#FFA6AE"/>
<path d="M1951.36 2.28998L2031.4 242.76L1967.85 242.07L1951.02 260.28L1934.19 242.07L1870.64 242.76L1950.67 2.28998H1951.36Z" fill="#FFA6AE"/>
<path d="M2035.52 253.07V12.59C2099.42 12.59 2145.79 46.94 2145.79 98.47C2145.79 135.23 2121.4 165.46 2080.18 177.82L2036.55 253.05H2035.52V253.07Z" fill="#FFA6AE"/>
</g>
<defs>
<clipPath id="clip0_424_69">
<rect width="2145.8" height="259.91" fill="white" transform="translate(0 0.369995)"/>
</clipPath>
</defs>
</svg>
