<svg width="1286" height="156" viewBox="0 0 1286 156" fill="none" xmlns="http://www.w3.org/2000/svg">
<g clip-path="url(#clip0_345_1346)">
<path d="M61.6931 149.556L52.3379 147.623L48.1128 146.407L44.1214 145.017L40.1899 143.216L32.6146 139.036L29.1805 136.68L25.7765 134.122L22.6061 131.385L16.9067 125.797L14.3776 122.946L12.316 119.744L8.66616 112.987L6.8982 109.2L3.71586 102.091L2.53522 98.5907L1.79207 94.9469L0.509547 86.2281L-0.00585938 78.0341L1.95389 64.1449L2.99669 59.708L4.21928 55.5036L5.87937 51.1562L9.673 43.5645L11.6268 40.0877L16.3014 33.659L18.8424 30.4744L22.9957 26.2641L27.7662 22.1373L31.2781 19.5014L38.1283 15.458L41.2926 13.818L48.4124 10.8541L52.5716 9.56004L56.4971 8.44484L60.8062 7.59205L69.1605 6.26216L78.5997 6.125L88.4224 6.25024L94.0859 7.66957L95.3204 9.29764L94.835 14.2295L93.7083 22.1969L93.2228 28.5839L93.0251 31.4703L92.5336 34.9411L92.1621 40.5111L91.1492 46.2004L90.6578 49.6712L87.3796 50.6672L79.6664 50.4226L75.2435 50.6373L66.4217 52.3191L62.4363 53.8458L58.5707 56.0105L55.2625 58.6703L51.5768 62.5288L49.1256 68.0212L46.6564 76.6327L46.5186 80.5687L47.915 88.4704L49.5092 92.0247L51.5408 95.43L54.2737 98.3104L60.6743 103.373L64.1983 105.115L68.1897 106.504L75.0218 108.502L79.6844 109.57L80.949 112.456L80.2298 119.022L79.223 127.627L77.9225 135.362L76.2204 147.415L75.2855 149.574L70.6588 151.219L61.6871 149.55L61.6931 149.556Z" fill="#FF4D3A"/>
<path d="M151.086 147.462L146.939 146.639L139.268 144.576L135.33 143.335L131.806 141.892L128.073 140.24L122.271 137.145L119.574 135.291L115.427 132.607L112.317 129.923L109.206 127.037L103.609 121.264L101.122 118.378L98.8443 115.283L96.7707 111.985L93.037 104.972L89.7228 97.1354L87.4454 88.8877L86.4086 81.4631L85.5815 75.4816V69.0886L86.2048 62.0754L86.8281 58.5688L88.9017 51.3469L90.1483 47.4288L91.5986 43.7135L95.1226 36.909L97.1962 33.6111L99.4736 30.3132L101.961 27.4268L104.448 24.3317L110.669 18.559L114.606 15.6726L122.277 10.7228L129.739 7.00747L133.263 5.56428L136.996 4.32385L144.458 2.26044L151.715 0.81725L155.449 0.405762H169.131L173.279 0.81725L177.216 1.64023L185.091 3.70363L188.615 4.94406L192.139 6.38726L199.397 9.89385L202.921 11.9573L207.691 15.2551L211.425 18.9705L218.059 24.952L223.447 32.3766L225.52 35.4717L227.384 38.7696L229.248 42.2762L232.772 49.7009L234.222 53.8277L236.5 62.6956L237.123 71.7722V76.1018L236.296 84.5582L235.673 88.4762L233.395 96.7239L231.945 100.851L230.081 104.769L228.008 108.687L225.73 112.402L223.243 116.118L219.719 121.067L209.147 131.796L206.247 134.271L200.026 138.809L192.768 142.727L188.831 144.379L184.683 145.62L180.536 146.651L172.038 147.474L163.54 147.886H155.042L151.104 147.474L151.086 147.462ZM164.355 101.876L167.879 101.256L175.34 98.1611L179.074 95.895L182.388 93.0086L187.572 85.5839L189.436 81.2543L190.683 72.1777L190.269 67.8482L189.232 63.3099L187.572 59.183L183.635 52.5813L178.037 48.2518L174.513 46.3971L170.989 45.1566L166.219 44.5364L161.035 43.9162L156.684 44.1249L151.5 45.9796L146.112 48.2458L142.378 50.9294L136.781 57.5311L134.707 60.829L133.257 64.5443L132.43 68.4624L132.639 77.3303L133.676 81.8686L136.99 89.502L138.854 92.3884L144.865 97.3382L148.599 99.4016L152.536 101.053L156.684 101.876H164.355Z" fill="#FF4D3A"/>
<path d="M295.352 147.462L291.205 146.639L283.534 144.576L279.596 143.335L276.072 141.892L272.339 140.24L266.537 137.145L263.841 135.291L259.693 132.607L256.583 129.923L253.472 127.037L247.875 121.264L245.388 118.378L243.11 115.283L241.037 111.985L237.303 104.972L233.989 97.1354L231.712 88.8877L230.675 81.4631L229.848 75.4816V69.0886L230.471 62.0754L231.094 58.5688L233.168 51.3469L234.414 47.4288L235.865 43.7135L239.389 36.909L241.462 33.6111L243.74 30.3132L246.227 27.4268L248.714 24.3317L254.935 18.559L258.872 15.6726L266.543 10.7228L274.005 7.00747L277.529 5.56428L281.262 4.32385L288.724 2.26044L295.982 0.81725L299.715 0.405762H313.398L317.545 0.81725L321.482 1.64023L329.357 3.70363L332.881 4.94406L336.405 6.38726L343.663 9.89385L347.187 11.9573L351.957 15.2551L355.691 18.9705L362.325 24.952L367.713 32.3766L369.787 35.4717L371.65 38.7696L373.514 42.2762L377.038 49.7009L378.489 53.8277L380.766 62.6956L381.389 71.7722V76.1018L380.562 84.5582L379.939 88.4762L377.662 96.7239L376.211 100.851L374.347 104.769L372.274 108.687L369.996 112.402L367.509 116.118L363.985 121.067L353.413 131.796L350.513 134.271L344.292 138.809L337.034 142.727L333.097 144.379L328.95 145.62L324.802 146.651L316.304 147.474L307.806 147.886H299.308L295.37 147.474L295.352 147.462ZM308.621 101.876L312.145 101.256L319.606 98.1611L323.34 95.895L326.654 93.0086L331.838 85.5839L333.702 81.2543L334.949 72.1777L334.535 67.8482L333.498 63.3099L331.838 59.183L327.901 52.5813L322.303 48.2518L318.779 46.3971L315.255 45.1566L310.485 44.5364L305.301 43.9162L300.95 44.1249L295.766 45.9796L290.378 48.2458L286.644 50.9294L281.047 57.5311L278.973 60.829L277.523 64.5443L276.696 68.4624L276.906 77.3303L277.942 81.8686L281.256 89.502L283.12 92.3884L289.131 97.3382L292.865 99.4016L296.803 101.053L300.95 101.876H308.621Z" fill="#FF4D3A"/>
<path d="M379.507 143.127L378.057 137.145V113.011L377.434 109.093L378.057 105.586V101.459L378.267 96.3007L378.057 90.9395L378.267 84.5465L378.057 77.1218V55.2592L378.267 51.3411V39.3781L378.476 31.1305L378.267 22.8828L378.476 16.2811L378.267 11.9515L378.476 7.62196L379.927 4.73557H384.074L389.875 4.32409L394.226 4.11536L400.028 4.32409L407.699 3.9126H411.432L416.82 4.12132H420.134L422.412 4.33005L423.862 5.36175L425.109 10.9318V36.3009L425.732 40.4277L425.318 42.0797L425.528 45.3775L425.115 51.9792V106.642L425.528 114.275L425.942 121.079L426.152 126.029L430.089 127.061H434.026L441.901 126.852H449.986L456.207 126.644L459.731 127.055L461.595 132.625L461.385 140.258L459.311 142.322H454.96L447.499 142.531H428.015L422.418 143.562L417.857 143.354L412.26 142.942L407.489 143.354L403.755 143.562H392.974L383.439 143.974L379.501 143.151L379.507 143.127Z" fill="#FF4D3A"/>
<path d="M543.173 27.6297C543.173 12.6909 533.764 5.31988 523.959 5.31988C519.758 5.31988 516.755 6.91216 516.755 10.1027C516.755 13.8896 520.759 14.2832 525.565 16.6746C531.169 19.2628 536.377 24.0456 536.377 33.4085C536.377 44.9599 527.969 53.7264 515.958 53.7264C501.947 53.7264 491.938 43.5704 491.938 30.2239C491.938 14.0923 506.351 1.54492 522.767 1.54492C541.585 1.54492 557.796 17.2829 557.796 41.9781C557.796 57.9129 551.39 72.2554 551.39 75.4399C551.39 76.0363 551.791 76.4358 552.588 76.4358C553.787 76.4358 554.392 74.6408 555.789 71.2594C563.394 52.7365 575.806 1.54492 610.236 1.54492C627.652 1.54492 635.257 14.2951 635.257 27.8384C635.257 60.1075 598.028 81.0219 598.028 114.68C598.028 126.828 604.033 132.804 609.84 132.804C615.648 132.804 621.047 127.627 621.047 117.066C621.047 106.504 616.241 98.1434 614.845 95.3524C613.646 93.3605 612.843 91.9651 612.843 90.9692C612.843 90.3728 613.244 89.1741 614.647 89.1741C615.45 89.1741 615.845 89.5737 617.452 92.3587C619.651 96.3424 624.655 106.701 624.655 117.853C624.655 135.78 608.24 143.944 591.028 143.944C564.407 143.944 550.593 125.021 550.593 111.878C550.593 95.9428 562.405 87.9754 578.419 84.1885C593.629 80.6044 610.847 79.8053 610.847 67.8542C610.847 57.6982 600.641 50.7268 587.828 50.7268C575.014 50.7268 566.81 58.0978 559.606 73.4362C552.001 89.3709 546.397 109.689 536.784 124.825C529.179 136.776 519.968 143.944 508.958 143.944C494.545 143.944 486.137 132.392 486.137 119.642C486.137 86.7767 543.185 63.6737 543.185 27.6178L543.173 27.6297Z" fill="#FFBE3A"/>
<path d="M674.883 81.4096C674.883 89.9733 684.292 98.5371 701.906 98.5371C725.729 98.5371 742.138 85.5901 742.138 69.8581C742.138 66.4708 741.137 65.0753 741.137 63.2862C741.137 61.6939 742.138 60.8948 743.139 60.8948C745.542 60.8948 746.141 66.8703 746.141 70.6572C746.141 108.502 719.118 143.956 674.883 143.956C646.662 143.956 623.642 127.824 623.642 106.111C623.642 77.4259 657.269 67.6694 680.888 67.6694C682.692 67.6694 684.292 67.0731 684.292 66.274C684.292 65.4748 683.693 65.278 682.692 65.0812C656.67 61.4971 646.464 50.542 646.464 36.1995C646.464 15.2852 670.682 1.53906 701.912 1.53906C735.342 1.53906 749.353 18.6665 749.353 35.0008C749.353 48.741 739.543 62.0875 722.331 62.0875C708.319 62.0875 697.909 52.3251 697.909 38.9845C697.909 30.8204 701.714 25.8407 705.112 22.2507C709.517 17.6706 713.922 15.8756 713.922 11.2955C713.922 8.30775 712.118 5.31999 707.516 5.31999C698.31 5.31999 687.696 23.0498 687.696 43.9641C687.696 53.7266 690.501 65.278 701.511 65.278C703.71 65.278 705.112 64.6817 707.318 64.6817C710.92 64.6817 712.724 66.274 712.724 68.4686C712.724 70.86 710.722 72.8518 706.718 72.8518C701.714 72.8518 696.512 70.6632 688.703 70.6632C679.294 70.6632 674.889 76.0424 674.889 81.4215L674.883 81.4096Z" fill="#FFBE3A"/>
<path d="M831.411 107.304C830.41 107.304 830.008 108.699 829.211 111.287C824.405 127.419 809.596 143.956 788.776 143.956C767.956 143.956 752.745 130.61 752.745 112.283C752.745 75.2375 800.385 61.6941 800.385 28.0296C800.385 13.6871 790.778 5.32019 781.968 5.32019C777.563 5.32019 774.764 6.91248 774.764 10.103C774.764 13.8899 778.57 14.4863 783.172 16.6749C788.374 19.2631 793.582 23.6463 793.582 32.8064C793.582 44.7575 784.773 53.7208 772.163 53.7208C758.553 53.7208 749.144 42.9624 749.144 30.0155C749.144 13.8839 764.354 1.53331 780.769 1.53331C798.784 1.53331 818.604 14.0807 818.604 40.571C818.604 60.6863 800.187 87.3794 800.187 104.71C800.187 115.665 805.79 120.841 812.197 120.841C821.804 120.841 826.407 112.277 826.407 102.718C826.407 91.7626 823.003 78.8156 823.003 58.4976C823.003 19.8535 835.612 4.91467 851.224 4.91467C864.037 4.91467 874.843 12.4825 874.843 41.561C874.843 61.0799 863.031 87.773 863.031 108.687C863.031 125.618 872.038 134.581 883.245 134.581C894.452 134.581 902.459 124.026 902.459 110.679C902.459 81.6006 878.84 53.3153 878.84 28.0177C878.84 12.882 887.249 1.52734 902.261 1.52734C915.075 1.52734 929.482 12.2857 929.482 41.7638C929.482 80.0083 912.468 143.944 870.03 143.944C847.412 143.944 835.804 122.231 832.999 111.675C832.196 108.687 831.998 107.292 831.399 107.292L831.411 107.304Z" fill="#FFBE3A"/>
<path d="M958.033 80.8191C958.033 35.3407 979.446 4.81299 1006.21 4.81299C1012.18 4.81299 1017.74 6.45298 1022.89 9.32147L986.86 125.278L1049.66 90.2476C1047.19 125.486 1030.51 147.814 1005.8 147.814C976.156 147.814 958.039 121.384 958.039 80.8251L958.033 80.8191Z" fill="#FFA6AE"/>
<path d="M1055 7.68164C1094.94 7.68164 1119.65 26.1211 1119.65 54.3945C1119.65 78.9765 1100.5 96.3902 1070.03 100.284L1124.18 144.946H1055V7.68164Z" fill="#FFA6AE"/>
<path d="M1169.47 1.53906L1217.44 144.946L1179.35 144.534L1169.27 155.394L1159.18 144.534L1121.09 144.946L1169.06 1.53906H1169.47Z" fill="#FFA6AE"/>
<path d="M1219.91 151.094V7.68164C1258.2 7.68164 1285.99 28.1666 1285.99 58.8971C1285.99 80.8193 1271.38 98.8472 1246.67 106.218L1220.53 151.082H1219.91V151.094Z" fill="#FFA6AE"/>
</g>
<defs>
<clipPath id="clip0_345_1346">
<rect width="1286" height="155" fill="white" transform="translate(0 0.394043)"/>
</clipPath>
</defs>
</svg>
