<svg width="50" height="50" viewBox="0 0 50 50" fill="none" xmlns="http://www.w3.org/2000/svg">
<g clip-path="url(#clip0_3_11)">
<path d="M38.8657 9.21514L25.4468 0.297418L24.9992 0L11.1327 9.21514L0.358859 16.3741L0 16.6128V50H49.9984V37.1387C49.9984 36.8388 49.8315 36.5639 49.5645 36.4257C49.2976 36.2874 48.9758 36.3083 48.7299 36.4803L45.1598 38.9714L41.5898 36.4803C41.3116 36.2866 40.9414 36.2866 40.6632 36.4811L37.1133 38.9706L33.5239 36.4787C33.2465 36.2858 32.878 36.2866 32.6006 36.4795L29.0305 38.9706L25.8048 36.7199V30.6437L28.5684 32.5721C28.8458 32.7658 29.216 32.7658 29.4934 32.5721L33.0634 30.081L36.6335 32.5721C36.9109 32.7658 37.2811 32.7658 37.5585 32.5721L41.1285 30.081L44.6986 32.5721C44.976 32.7658 45.3461 32.7658 45.6235 32.5721L49.6557 29.7587C49.871 29.6084 50 29.3624 50 29.1003V16.6128L38.8673 9.21514H38.8657Z" fill="#231F20"/>
</g>
<defs>
<clipPath id="clip0_3_11">
<rect width="50" height="50" fill="white"/>
</clipPath>
</defs>
</svg>
