<svg width="50" height="50" viewBox="0 0 50 50" fill="none" xmlns="http://www.w3.org/2000/svg">
<g clip-path="url(#clip0_3_17)">
<path d="M49.1935 50H0.806452C0.36129 50 0 49.6399 0 49.1962V17.0429C0 16.7744 0.134677 16.5228 0.358871 16.3741L24.5524 0.297428C24.8234 0.117369 25.1758 0.117369 25.4468 0.297428L49.6403 16.3741C49.8645 16.5228 49.9992 16.7744 49.9992 17.0429V29.1004C49.9992 29.3624 49.871 29.6084 49.6548 29.7587L45.6226 32.5721C45.3452 32.7658 44.975 32.7658 44.6976 32.5721L41.1274 30.081L37.5573 32.5721C37.2798 32.7658 36.9097 32.7658 36.6323 32.5721L33.0621 30.081L29.4919 32.5721C29.2145 32.7658 28.8444 32.7658 28.5669 32.5721L25.8032 30.6437V36.7199L29.029 38.9706L32.5992 36.4795C32.8766 36.2858 33.2452 36.2858 33.5226 36.4787L37.1121 38.9706L40.6621 36.4812C40.9403 36.2866 41.3105 36.2858 41.5887 36.4804L45.1589 38.9714L48.729 36.4804C48.975 36.3083 49.2976 36.2874 49.5637 36.4257C49.8306 36.5639 49.9976 36.8389 49.9976 37.1387V49.1962C49.9976 49.6399 49.6363 50 49.1911 50H49.1935ZM1.6129 48.3923H48.3871V38.6829L45.6234 40.6112C45.346 40.805 44.9758 40.805 44.6984 40.6112L41.1298 38.121L37.5806 40.6096C37.3032 40.8042 36.9339 40.805 36.6556 40.6121L33.0653 38.1194L29.4944 40.6112C29.2169 40.805 28.8468 40.805 28.5694 40.6112L24.5371 37.7978C24.3218 37.6475 24.1927 37.4015 24.1927 37.1395V29.1012C24.1927 28.8013 24.3597 28.5264 24.6266 28.3882C24.8935 28.2499 25.2153 28.2708 25.4613 28.4428L29.0315 30.9339L32.6016 28.4428C32.879 28.2491 33.2492 28.2491 33.5266 28.4428L37.0968 30.9339L40.6669 28.4428C40.9444 28.2491 41.3145 28.2491 41.5919 28.4428L45.1621 30.9339L48.3879 28.6832V17.4745L25 1.93242L1.6129 17.4729V48.3923Z" fill="#231F20"/>
<path d="M50 50H0V16.6128L25 0L50 16.6128V27.3319H48.3871V17.4729L25 1.93241L1.6129 17.4729V48.3923H48.3871V43.489H50V50Z" fill="#231F20"/>
</g>
<defs>
<clipPath id="clip0_3_17">
<rect width="50" height="50" fill="white"/>
</clipPath>
</defs>
</svg>
